<svg width="166" height="55" viewBox="0 0 166 55" fill="none" xmlns="http://www.w3.org/2000/svg">
<path d="M55.01 48.15C53.45 48.15 52.04 47.79 50.78 47.07C49.54 46.35 48.55 45.37 47.81 44.13C47.09 42.87 46.72 41.46 46.7 39.9V25.74C46.7 25.38 46.8 25.1 47 24.9C47.22 24.68 47.51 24.57 47.87 24.57C48.21 24.57 48.48 24.68 48.68 24.9C48.9 25.1 49.01 25.38 49.01 25.74V34.56C49.67 33.62 50.54 32.87 51.62 32.31C52.72 31.73 53.94 31.44 55.28 31.44C56.82 31.44 58.2 31.81 59.42 32.55C60.64 33.27 61.6 34.26 62.3 35.52C63.02 36.78 63.38 38.2 63.38 39.78C63.38 41.38 63.01 42.81 62.27 44.07C61.55 45.33 60.56 46.33 59.3 47.07C58.04 47.79 56.61 48.15 55.01 48.15ZM55.01 46.05C56.17 46.05 57.21 45.78 58.13 45.24C59.05 44.68 59.77 43.93 60.29 42.99C60.83 42.05 61.1 40.98 61.1 39.78C61.1 38.6 60.83 37.54 60.29 36.6C59.77 35.64 59.05 34.89 58.13 34.35C57.21 33.81 56.17 33.54 55.01 33.54C53.87 33.54 52.84 33.81 51.92 34.35C51 34.89 50.28 35.64 49.76 36.6C49.24 37.54 48.98 38.6 48.98 39.78C48.98 40.98 49.24 42.05 49.76 42.99C50.28 43.93 51 44.68 51.92 45.24C52.84 45.78 53.87 46.05 55.01 46.05ZM68.8709 37.89C68.9309 36.65 69.2509 35.54 69.8309 34.56C70.4309 33.58 71.2009 32.81 72.1409 32.25C73.1009 31.69 74.1609 31.41 75.3209 31.41C76.2409 31.41 76.9509 31.54 77.4509 31.8C77.9509 32.06 78.1409 32.44 78.0209 32.94C77.9409 33.24 77.8009 33.44 77.6009 33.54C77.4209 33.64 77.1909 33.68 76.9109 33.66C76.6509 33.64 76.3509 33.62 76.0109 33.6C74.8909 33.5 73.8909 33.62 73.0109 33.96C72.1509 34.28 71.4609 34.78 70.9409 35.46C70.4409 36.14 70.1909 36.95 70.1909 37.89H68.8709ZM69.0509 48C68.6909 48 68.4109 47.9 68.2109 47.7C68.0109 47.5 67.9109 47.22 67.9109 46.86V32.73C67.9109 32.37 68.0109 32.09 68.2109 31.89C68.4109 31.69 68.6909 31.59 69.0509 31.59C69.4109 31.59 69.6909 31.69 69.8909 31.89C70.0909 32.09 70.1909 32.37 70.1909 32.73V46.86C70.1909 47.22 70.0909 47.5 69.8909 47.7C69.6909 47.9 69.4109 48 69.0509 48ZM87.92 48.15C86.32 48.15 84.89 47.79 83.63 47.07C82.37 46.35 81.38 45.36 80.66 44.1C79.94 42.84 79.58 41.41 79.58 39.81C79.58 38.19 79.94 36.75 80.66 35.49C81.38 34.23 82.37 33.24 83.63 32.52C84.89 31.8 86.32 31.44 87.92 31.44C89.52 31.44 90.94 31.8 92.18 32.52C93.44 33.24 94.43 34.23 95.15 35.49C95.87 36.75 96.24 38.19 96.26 39.81C96.26 41.41 95.89 42.84 95.15 44.1C94.43 45.36 93.44 46.35 92.18 47.07C90.94 47.79 89.52 48.15 87.92 48.15ZM87.92 46.05C89.08 46.05 90.12 45.78 91.04 45.24C91.96 44.7 92.68 43.96 93.2 43.02C93.72 42.08 93.98 41.01 93.98 39.81C93.98 38.61 93.72 37.54 93.2 36.6C92.68 35.64 91.96 34.89 91.04 34.35C90.12 33.81 89.08 33.54 87.92 33.54C86.76 33.54 85.72 33.81 84.8 34.35C83.88 34.89 83.15 35.64 82.61 36.6C82.09 37.54 81.83 38.61 81.83 39.81C81.83 41.01 82.09 42.08 82.61 43.02C83.15 43.96 83.88 44.7 84.8 45.24C85.72 45.78 86.76 46.05 87.92 46.05ZM107.173 48C106.113 48 105.163 47.75 104.323 47.25C103.503 46.75 102.853 46.07 102.373 45.21C101.893 44.33 101.653 43.33 101.653 42.21V27.54C101.653 27.2 101.753 26.92 101.953 26.7C102.173 26.48 102.453 26.37 102.793 26.37C103.133 26.37 103.413 26.48 103.633 26.7C103.853 26.92 103.963 27.2 103.963 27.54V42.21C103.963 43.23 104.263 44.07 104.863 44.73C105.463 45.37 106.233 45.69 107.173 45.69H107.983C108.303 45.69 108.563 45.8 108.763 46.02C108.963 46.24 109.063 46.52 109.063 46.86C109.063 47.2 108.943 47.48 108.703 47.7C108.463 47.9 108.163 48 107.803 48H107.173ZM99.7027 34.2C99.4027 34.2 99.1527 34.11 98.9527 33.93C98.7527 33.73 98.6527 33.49 98.6527 33.21C98.6527 32.91 98.7527 32.67 98.9527 32.49C99.1527 32.29 99.4027 32.19 99.7027 32.19H107.353C107.653 32.19 107.903 32.29 108.103 32.49C108.303 32.67 108.403 32.91 108.403 33.21C108.403 33.49 108.303 33.73 108.103 33.93C107.903 34.11 107.653 34.2 107.353 34.2H99.7027ZM120.053 48.15C118.513 48.15 117.133 47.79 115.913 47.07C114.693 46.33 113.723 45.33 113.003 44.07C112.303 42.81 111.953 41.39 111.953 39.81C111.953 38.21 112.313 36.78 113.033 35.52C113.773 34.26 114.773 33.27 116.033 32.55C117.293 31.81 118.713 31.44 120.293 31.44C121.873 31.44 123.283 31.81 124.523 32.55C125.783 33.27 126.773 34.26 127.493 35.52C128.233 36.78 128.613 38.21 128.633 39.81L127.703 40.53C127.703 41.97 127.363 43.27 126.683 44.43C126.023 45.57 125.113 46.48 123.953 47.16C122.813 47.82 121.513 48.15 120.053 48.15ZM120.293 46.05C121.453 46.05 122.483 45.78 123.383 45.24C124.303 44.7 125.023 43.96 125.543 43.02C126.083 42.06 126.353 40.99 126.353 39.81C126.353 38.61 126.083 37.54 125.543 36.6C125.023 35.66 124.303 34.92 123.383 34.38C122.483 33.82 121.453 33.54 120.293 33.54C119.153 33.54 118.123 33.82 117.203 34.38C116.283 34.92 115.553 35.66 115.013 36.6C114.473 37.54 114.203 38.61 114.203 39.81C114.203 40.99 114.473 42.06 115.013 43.02C115.553 43.96 116.283 44.7 117.203 45.24C118.123 45.78 119.153 46.05 120.293 46.05ZM127.463 48C127.123 48 126.843 47.9 126.623 47.7C126.403 47.48 126.293 47.2 126.293 46.86V41.73L126.863 39.36L128.633 39.81V46.86C128.633 47.2 128.523 47.48 128.303 47.7C128.083 47.9 127.803 48 127.463 48ZM133.666 48.48C133.186 48.48 132.776 48.31 132.436 47.97C132.096 47.63 131.926 47.22 131.926 46.74C131.926 46.24 132.096 45.82 132.436 45.48C132.796 45.14 133.206 44.97 133.666 44.97C134.146 44.97 134.556 45.15 134.896 45.51C135.236 45.85 135.406 46.26 135.406 46.74C135.406 47.2 135.236 47.61 134.896 47.97C134.576 48.31 134.166 48.48 133.666 48.48ZM146.83 48.15C145.29 48.15 143.91 47.79 142.69 47.07C141.47 46.33 140.5 45.33 139.78 44.07C139.08 42.81 138.73 41.39 138.73 39.81C138.73 38.21 139.09 36.78 139.81 35.52C140.55 34.26 141.55 33.27 142.81 32.55C144.07 31.81 145.49 31.44 147.07 31.44C148.65 31.44 150.06 31.81 151.3 32.55C152.56 33.27 153.55 34.26 154.27 35.52C155.01 36.78 155.39 38.21 155.41 39.81L154.48 40.53C154.48 41.97 154.14 43.27 153.46 44.43C152.8 45.57 151.89 46.48 150.73 47.16C149.59 47.82 148.29 48.15 146.83 48.15ZM147.07 46.05C148.23 46.05 149.26 45.78 150.16 45.24C151.08 44.7 151.8 43.96 152.32 43.02C152.86 42.06 153.13 40.99 153.13 39.81C153.13 38.61 152.86 37.54 152.32 36.6C151.8 35.66 151.08 34.92 150.16 34.38C149.26 33.82 148.23 33.54 147.07 33.54C145.93 33.54 144.9 33.82 143.98 34.38C143.06 34.92 142.33 35.66 141.79 36.6C141.25 37.54 140.98 38.61 140.98 39.81C140.98 40.99 141.25 42.06 141.79 43.02C142.33 43.96 143.06 44.7 143.98 45.24C144.9 45.78 145.93 46.05 147.07 46.05ZM154.24 48C153.9 48 153.62 47.9 153.4 47.7C153.18 47.48 153.07 47.2 153.07 46.86V41.73L153.64 39.36L155.41 39.81V46.86C155.41 47.2 155.3 47.48 155.08 47.7C154.86 47.9 154.58 48 154.24 48ZM161.553 48C161.193 48 160.903 47.9 160.683 47.7C160.483 47.48 160.383 47.19 160.383 46.83V32.76C160.383 32.4 160.483 32.12 160.683 31.92C160.903 31.7 161.193 31.59 161.553 31.59C161.893 31.59 162.163 31.7 162.363 31.92C162.583 32.12 162.693 32.4 162.693 32.76V46.83C162.693 47.19 162.583 47.48 162.363 47.7C162.163 47.9 161.893 48 161.553 48ZM161.523 28.47C161.083 28.47 160.703 28.31 160.383 27.99C160.063 27.67 159.903 27.28 159.903 26.82C159.903 26.32 160.063 25.93 160.383 25.65C160.723 25.35 161.113 25.2 161.553 25.2C161.973 25.2 162.343 25.35 162.663 25.65C163.003 25.93 163.173 26.32 163.173 26.82C163.173 27.28 163.013 27.67 162.693 27.99C162.373 28.31 161.983 28.47 161.523 28.47Z" fill="white"/>
<path fill-rule="evenodd" clip-rule="evenodd" d="M18.5703 0.0111921C18.661 -0.00272604 18.7551 -0.00396018 18.8507 0.00916182C19.0141 0.0316149 19.1697 0.0757177 19.3162 0.134163C19.381 0.159984 19.4413 0.191986 19.4968 0.229197C19.5566 0.25011 19.6152 0.277226 19.6717 0.310757C19.7225 0.340917 19.7727 0.372788 19.8223 0.406176L19.9301 0.478717C19.9667 0.503352 20.001 0.530046 20.033 0.558533C20.0716 0.577567 20.1093 0.599395 20.1459 0.624066L20.362 0.769864C20.3988 0.794654 20.4332 0.821514 20.4652 0.850177C20.5039 0.869365 20.5417 0.891366 20.5784 0.91623L20.7949 1.06328C20.8317 1.08831 20.8661 1.11541 20.8981 1.14431C20.9369 1.16374 20.9748 1.186 21.0115 1.21113C21.0837 1.26057 21.1559 1.31015 21.228 1.35989C21.2648 1.38523 21.2992 1.41264 21.3311 1.44186C21.3699 1.4616 21.4078 1.4842 21.4445 1.50968C21.5166 1.55981 21.5887 1.61012 21.6607 1.66061C21.6974 1.68634 21.7317 1.71414 21.7635 1.74374C21.8023 1.76389 21.8401 1.7869 21.8767 1.81282C21.9486 1.8638 22.0205 1.915 22.0923 1.96642C22.1289 1.99262 22.163 2.02089 22.1946 2.05095C22.2333 2.07159 22.271 2.0951 22.3074 2.12153C22.3791 2.17352 22.4507 2.22575 22.5221 2.27826C22.5584 2.30501 22.5923 2.33381 22.6237 2.36439C22.6623 2.38561 22.6998 2.40971 22.736 2.43673C22.8072 2.48988 22.8783 2.54331 22.9492 2.59706C22.9853 2.62444 23.0189 2.65386 23.0499 2.68503C23.0883 2.7069 23.1256 2.73167 23.1615 2.75936C23.2321 2.81384 23.3026 2.86865 23.3728 2.92379C23.4086 2.95189 23.4418 2.98201 23.4724 3.01384C23.5106 3.03647 23.5476 3.06199 23.5831 3.09044C23.653 3.14639 23.7227 3.20271 23.7922 3.25941C23.8276 3.2883 23.8603 3.31917 23.8903 3.35172C23.9282 3.37519 23.9648 3.40154 23.9999 3.43082C24.0689 3.48839 24.1377 3.54637 24.2061 3.60478C24.241 3.63453 24.2732 3.66623 24.3026 3.69956C24.34 3.72394 24.3762 3.75121 24.4107 3.78139C24.4787 3.84073 24.5463 3.90052 24.6136 3.96077C24.6479 3.99147 24.6794 4.02406 24.7082 4.05823C24.7451 4.08361 24.7807 4.11187 24.8146 4.14302C24.8813 4.20426 24.9477 4.26598 25.0136 4.32821C25.0472 4.35991 25.0779 4.39344 25.1058 4.42849C25.1422 4.45494 25.1772 4.48425 25.2104 4.51643C25.2755 4.57968 25.3404 4.64345 25.4047 4.70776C25.4375 4.74051 25.4674 4.77504 25.4943 4.81101C25.5301 4.83859 25.5643 4.86901 25.5966 4.90228C25.6601 4.96764 25.7232 5.03355 25.7858 5.10005C25.8177 5.1339 25.8465 5.16945 25.8724 5.20636C25.9074 5.23513 25.9407 5.26671 25.972 5.30109C26.0336 5.36861 26.0947 5.43673 26.1553 5.50545C26.1861 5.54044 26.2139 5.57703 26.2386 5.61489C26.2727 5.64489 26.305 5.67766 26.3353 5.71318C26.3946 5.78292 26.4535 5.85329 26.5118 5.92429C26.5415 5.96043 26.5681 5.99807 26.5915 6.03689C26.6246 6.06815 26.6558 6.10213 26.6849 6.13881C26.7419 6.21079 26.7983 6.28342 26.8541 6.35672C26.8825 6.394 26.9077 6.43268 26.9297 6.47243C26.9617 6.50494 26.9918 6.54014 27.0195 6.57795C27.0738 6.65209 27.1275 6.72691 27.1806 6.80241C27.2076 6.8408 27.2313 6.88047 27.2518 6.9211C27.2826 6.95486 27.3113 6.99123 27.3375 7.03014C27.3633 7.06839 27.389 7.10681 27.4145 7.14541C27.4395 7.18332 27.4644 7.22162 27.4892 7.26028C27.5146 7.29979 27.5365 7.34044 27.5552 7.38191C27.5842 7.41702 27.611 7.45463 27.6353 7.49464C27.6822 7.57198 27.7286 7.65068 27.7745 7.73066C27.7974 7.77053 27.8171 7.81134 27.8335 7.8528C27.8603 7.88856 27.8849 7.92661 27.9069 7.96688C27.9497 8.04524 27.9921 8.12474 28.034 8.20532C28.0552 8.24597 28.0731 8.28742 28.0878 8.32938C28.1131 8.36605 28.136 8.40492 28.1564 8.44589C28.1958 8.52528 28.2348 8.60563 28.2734 8.68691C28.2928 8.72783 28.309 8.76941 28.322 8.8114C28.3457 8.84855 28.367 8.88777 28.3857 8.92897C28.4223 9.00951 28.4584 9.0909 28.4941 9.17308C28.5121 9.21449 28.5268 9.25646 28.5384 9.29872C28.5608 9.33651 28.5808 9.37628 28.5981 9.41794C28.6318 9.49907 28.6651 9.58092 28.698 9.66346C28.7146 9.70533 28.728 9.74765 28.7383 9.79017C28.7595 9.82855 28.7782 9.86884 28.7942 9.91092C28.8254 9.99294 28.8562 10.0756 28.8865 10.1588C28.9018 10.2009 28.9139 10.2434 28.9229 10.286C28.9429 10.3248 28.9604 10.3654 28.9751 10.4077C29.004 10.4907 29.0324 10.5743 29.0603 10.6583C29.0744 10.7008 29.0853 10.7434 29.093 10.7862C29.1119 10.8254 29.1281 10.8664 29.1416 10.909C29.1681 10.9925 29.1941 11.0766 29.2196 11.161C29.2325 11.2039 29.2422 11.247 29.2488 11.2899C29.2666 11.3297 29.2818 11.3712 29.2941 11.4143C29.3183 11.4984 29.3419 11.583 29.365 11.6679C29.3767 11.7111 29.3853 11.7543 29.3907 11.7975C29.4073 11.8377 29.4214 11.8796 29.4325 11.9229C29.4544 12.0078 29.4757 12.093 29.4965 12.1785C29.507 12.222 29.5144 12.2654 29.5186 12.3087C29.5341 12.3493 29.547 12.3916 29.557 12.4352C29.5765 12.5208 29.5955 12.6067 29.6139 12.6928C29.6233 12.7365 29.6294 12.7802 29.6324 12.8236C29.6468 12.8646 29.6585 12.9072 29.6673 12.9511C29.6844 13.0373 29.701 13.1237 29.717 13.2104C29.7251 13.2545 29.73 13.2983 29.7318 13.3418C29.7451 13.3834 29.7555 13.4263 29.763 13.4705C29.7778 13.5573 29.7919 13.6443 29.8053 13.7315C29.8122 13.7758 29.8158 13.8199 29.8163 13.8635C29.8283 13.9055 29.8376 13.9488 29.8438 13.9932C29.8559 14.0807 29.8675 14.1683 29.8783 14.2559C29.8838 14.3005 29.8861 14.3448 29.8852 14.3885C29.896 14.4309 29.904 14.4746 29.9088 14.5193C29.9183 14.6073 29.9271 14.6955 29.9351 14.7836C29.9392 14.8285 29.9401 14.873 29.9379 14.9168C29.9473 14.9596 29.9538 15.0037 29.9572 15.0487C29.9639 15.1372 29.9698 15.2258 29.9749 15.3143C29.9775 15.3595 29.9768 15.4042 29.9731 15.448C29.9811 15.4914 29.9862 15.5358 29.988 15.5811C29.9916 15.6701 29.9944 15.7592 29.9964 15.8482C29.9974 15.8936 29.9952 15.9384 29.9898 15.9822C29.9963 16.026 29.9997 16.0707 29.9999 16.1162C30.0002 16.2059 29.9997 16.2954 29.9983 16.3849C29.9976 16.4305 29.9936 16.4753 29.9865 16.519C29.9913 16.5631 29.993 16.6081 29.9914 16.6537C29.9881 16.7439 29.984 16.834 29.9789 16.9239C29.9763 16.9697 29.9704 17.0146 29.9614 17.0583C29.9644 17.1028 29.9642 17.1481 29.9606 17.1939C29.9535 17.2843 29.9454 17.3745 29.9362 17.4645C29.9316 17.5105 29.9236 17.5555 29.9126 17.5991C29.9135 17.6441 29.9112 17.6897 29.9055 17.7357C29.8941 17.8262 29.8816 17.9165 29.8681 18.0064C29.8611 18.0525 29.8509 18.0974 29.8376 18.1407C29.8363 18.186 29.8317 18.2318 29.8236 18.2778C29.8074 18.3686 29.7902 18.459 29.7717 18.549C29.7622 18.5949 29.7495 18.6394 29.7339 18.6823C29.7301 18.7277 29.7229 18.7734 29.7121 18.8192C29.6908 18.9099 29.6681 19.0001 29.6442 19.0899C29.6319 19.1357 29.6164 19.1799 29.598 19.2223C29.5915 19.2679 29.5814 19.3137 29.5677 19.3592C29.5407 19.449 29.5123 19.5383 29.4824 19.627C29.467 19.6725 29.4485 19.7162 29.427 19.7577C29.4174 19.8035 29.4042 19.849 29.3872 19.8941C29.3706 19.9384 29.3536 19.9824 29.3362 20.0263C29.3194 20.0688 29.3023 20.1112 29.285 20.1535C29.2674 20.1965 29.2469 20.2376 29.2239 20.2766C29.2122 20.3201 29.1971 20.3634 29.1786 20.406C29.1423 20.4897 29.1051 20.573 29.0671 20.6558C29.0477 20.698 29.0256 20.738 29.0011 20.7759C28.9876 20.8188 28.9708 20.8613 28.9506 20.903C28.911 20.9849 28.8706 21.0664 28.8293 21.1475C28.8084 21.1887 28.7848 21.2277 28.7588 21.2645C28.7436 21.3067 28.7252 21.3484 28.7035 21.3892C28.6607 21.4693 28.6173 21.549 28.5731 21.6282C28.5506 21.6685 28.5256 21.7066 28.4983 21.7423C28.4815 21.7838 28.4616 21.8246 28.4384 21.8645C28.3927 21.9428 28.3464 22.0207 28.2994 22.098C28.2755 22.1374 28.2491 22.1745 28.2206 22.2091C28.2024 22.2499 28.181 22.2899 28.1564 22.3289C28.108 22.4054 28.0589 22.4814 28.0093 22.5569C27.984 22.5954 27.9564 22.6314 27.9267 22.665C27.907 22.705 27.8843 22.7442 27.8583 22.7822C27.8073 22.857 27.7557 22.9312 27.7035 23.0049C27.6769 23.0424 27.648 23.0774 27.6172 23.1099C27.5962 23.1492 27.5721 23.1875 27.5449 23.2246C27.4914 23.2975 27.4373 23.3698 27.3827 23.4415C27.3548 23.4781 27.3248 23.5122 27.2929 23.5436C27.2705 23.5822 27.2452 23.6197 27.2167 23.6559C27.1607 23.7269 27.1042 23.7974 27.0472 23.8672C27.0182 23.9028 26.9871 23.9358 26.9542 23.9661C26.9306 24.0039 26.9039 24.0405 26.8743 24.0756C26.8158 24.1449 26.7569 24.2135 26.6976 24.2815C26.6673 24.3161 26.635 24.3481 26.6011 24.3773C26.5762 24.4143 26.5483 24.4501 26.5175 24.4842C26.4567 24.5515 26.3956 24.618 26.3341 24.6838C26.3027 24.7175 26.2693 24.7484 26.2343 24.7765C26.2081 24.8128 26.179 24.8476 26.1469 24.8808C26.0837 24.9462 26.0201 25.0108 25.9562 25.0747C25.9236 25.1073 25.8891 25.1371 25.8532 25.164C25.8257 25.1993 25.7954 25.2332 25.7622 25.2652C25.6967 25.3285 25.6308 25.3909 25.5647 25.4525C25.5308 25.4841 25.4952 25.5127 25.4581 25.5385C25.4293 25.573 25.3976 25.6059 25.3631 25.6369C25.295 25.6981 25.2266 25.7584 25.158 25.8178C25.1229 25.8482 25.0862 25.8756 25.0482 25.9C25.018 25.9334 24.9851 25.9652 24.9494 25.9949C24.8788 26.0537 24.808 26.1116 24.737 26.1684C24.7005 26.1976 24.6624 26.2237 24.6232 26.2468C24.5915 26.2793 24.5571 26.31 24.5199 26.3385C24.4464 26.395 24.3727 26.4503 24.2989 26.5045C24.261 26.5323 24.2218 26.557 24.1814 26.5785C24.1482 26.6098 24.1123 26.6391 24.0738 26.6661C23.9973 26.7197 23.9208 26.7721 23.8443 26.8231C23.8049 26.8494 23.7642 26.8724 23.7225 26.8922C23.6876 26.9222 23.6501 26.95 23.6099 26.9754C23.5299 27.026 23.4498 27.0752 23.3697 27.123C23.3284 27.1476 23.286 27.1688 23.2428 27.1866C23.2058 27.2152 23.1662 27.2413 23.1241 27.2649C23.0402 27.3118 22.9564 27.357 22.8726 27.4006C22.8292 27.4231 22.7849 27.4421 22.74 27.4575C22.7007 27.4842 22.6588 27.5083 22.6146 27.5295C22.5261 27.5718 22.4377 27.6123 22.3494 27.6507C22.3035 27.6707 22.2569 27.6869 22.2099 27.6993C22.1677 27.7237 22.1231 27.7451 22.0762 27.7634C21.982 27.8 21.8879 27.8342 21.7939 27.866C21.7448 27.8826 21.6952 27.895 21.6456 27.9035C21.5998 27.9247 21.5516 27.9426 21.5013 27.9568C21.4516 27.9708 21.4018 27.9841 21.3521 27.9967C21.2877 28.0129 21.2218 28.0225 21.1555 28.0253V28.2189C21.1555 28.2617 21.1526 28.3038 21.147 28.345C21.1526 28.3863 21.1555 28.4284 21.1555 28.4712V28.7234C21.1555 28.7662 21.1526 28.8083 21.147 28.8496C21.1526 28.8908 21.1555 28.9329 21.1555 28.9757V29.228C21.1555 29.2707 21.1526 29.3128 21.147 29.3541C21.1526 29.3953 21.1555 29.4375 21.1555 29.4802V29.7325C21.1555 29.7753 21.1526 29.8174 21.147 29.8586C21.1526 29.8999 21.1555 29.942 21.1555 29.9848V30.237C21.1555 30.2798 21.1526 30.3219 21.147 30.3632C21.1526 30.4044 21.1555 30.4465 21.1555 30.4893V30.7416C21.1555 30.7843 21.1526 30.8264 21.147 30.8677C21.1526 30.909 21.1555 30.9511 21.1555 30.9938V31.2461C21.1555 31.2889 21.1526 31.331 21.147 31.3722C21.1526 31.4135 21.1555 31.4556 21.1555 31.4984V31.7506C21.1555 31.7934 21.1526 31.8355 21.147 31.8768C21.1526 31.918 21.1555 31.9601 21.1555 32.0029V32.2552C21.1555 32.2979 21.1526 32.34 21.147 32.3813C21.1526 32.4226 21.1555 32.4647 21.1555 32.5074V32.7492C21.1555 32.7883 21.1531 32.8269 21.1484 32.8648C21.1531 32.9027 21.1555 32.9413 21.1555 32.9804V33.2117C21.1555 33.2508 21.1531 33.2894 21.1484 33.3273C21.1531 33.3652 21.1555 33.4038 21.1555 33.4429V33.6742C21.1555 33.7133 21.1531 33.7519 21.1484 33.7898C21.1531 33.8277 21.1555 33.8663 21.1555 33.9054V34.1367C21.1555 34.1758 21.1531 34.2144 21.1484 34.2523C21.1531 34.2902 21.1555 34.3288 21.1555 34.3679V34.5992C21.1555 34.6383 21.1531 34.6769 21.1484 34.7148C21.1531 34.7527 21.1555 34.7913 21.1555 34.8304V35.0616C21.1555 35.1008 21.1531 35.1394 21.1484 35.1773C21.1531 35.2152 21.1555 35.2537 21.1555 35.2929V35.5338C21.1555 35.5762 21.1527 35.618 21.1472 35.659C21.1527 35.7 21.1555 35.7418 21.1555 35.7843V36.0348C21.1555 36.0773 21.1527 36.1191 21.1472 36.1601C21.1527 36.201 21.1555 36.2429 21.1555 36.2853V36.5358C21.1555 36.5783 21.1527 36.6201 21.1472 36.6611C21.1527 36.7021 21.1555 36.7439 21.1555 36.7864V37.0369C21.1555 37.0793 21.1527 37.1211 21.1472 37.1621C21.1527 37.2031 21.1555 37.2449 21.1555 37.2874V37.5379C21.1555 37.5804 21.1527 37.6222 21.1472 37.6631C21.1527 37.7041 21.1555 37.7459 21.1555 37.7884V38.0389C21.1555 38.0814 21.1527 38.1232 21.1472 38.1642C21.1527 38.2052 21.1555 38.247 21.1555 38.2894V38.54C21.1555 38.5824 21.1527 38.6242 21.1472 38.6652C21.1527 38.7062 21.1555 38.748 21.1555 38.7905V39.041C21.1555 39.0835 21.1527 39.1253 21.1472 39.1662C21.1527 39.2072 21.1555 39.249 21.1555 39.2915V39.542C21.1555 39.5845 21.1527 39.6263 21.1472 39.6673C21.1527 39.7082 21.1555 39.7501 21.1555 39.7925V40.043C21.1555 40.0855 21.1527 40.1273 21.1472 40.1683C21.1527 40.2093 21.1555 40.2511 21.1555 40.2936V40.5441C21.1555 40.5865 21.1527 40.6283 21.1472 40.6693C21.1527 40.7103 21.1555 40.7521 21.1555 40.7946V41.0451C21.1555 41.0876 21.1527 41.1294 21.1472 41.1704C21.1527 41.2113 21.1555 41.2532 21.1555 41.2956V41.5461C21.1555 41.5886 21.1527 41.6304 21.1472 41.6714C21.1527 41.7124 21.1555 41.7542 21.1555 41.7967V42.0472C21.1555 42.0896 21.1527 42.1314 21.1472 42.1724C21.1527 42.2134 21.1555 42.2552 21.1555 42.2977V42.5482C21.1555 42.5907 21.1527 42.6325 21.1472 42.6735C21.1527 42.7144 21.1555 42.7562 21.1555 42.7987V43.0492C21.1555 43.0917 21.1527 43.1335 21.1472 43.1745C21.1527 43.2155 21.1555 43.2573 21.1555 43.2997V43.5503C21.1555 43.5927 21.1527 43.6345 21.1472 43.6755C21.1527 43.7165 21.1555 43.7583 21.1555 43.8008V44.0513C21.1555 44.0938 21.1527 44.1356 21.1472 44.1765C21.1527 44.2175 21.1555 44.2593 21.1555 44.3018V44.5523C21.1555 44.5948 21.1527 44.6366 21.1472 44.6776C21.1527 44.7186 21.1555 44.7604 21.1555 44.8028V45.0534C21.1555 45.0958 21.1527 45.1376 21.1472 45.1786C21.1527 45.2196 21.1555 45.2614 21.1555 45.3039V45.5544C21.1555 45.5969 21.1527 45.6386 21.1472 45.6796C21.1527 45.7206 21.1555 45.7624 21.1555 45.8049V46.0554C21.1555 46.0979 21.1527 46.1397 21.1472 46.1807C21.1527 46.2216 21.1555 46.2635 21.1555 46.3059V46.5564C21.1555 46.5989 21.1527 46.6407 21.1472 46.6817C21.1527 46.7227 21.1555 46.7645 21.1555 46.807V47.0575C21.1555 47.0999 21.1527 47.1417 21.1472 47.1827C21.1527 47.2237 21.1555 47.2655 21.1555 47.308V47.4332H21.0764C20.929 47.7668 20.5912 48 20.1981 48C19.805 48 19.4672 47.7668 19.3198 47.4332H19.2406V47.308C19.2406 47.2655 19.2435 47.2237 19.249 47.1827C19.2435 47.1417 19.2406 47.0999 19.2406 47.0575V46.807C19.2406 46.7645 19.2435 46.7227 19.249 46.6817C19.2435 46.6407 19.2406 46.5989 19.2406 46.5564V46.3059C19.2406 46.2635 19.2435 46.2216 19.249 46.1807C19.2435 46.1397 19.2406 46.0979 19.2406 46.0554V45.8049C19.2406 45.7624 19.2435 45.7206 19.249 45.6796C19.2435 45.6386 19.2406 45.5969 19.2406 45.5544V45.3039C19.2406 45.2614 19.2435 45.2196 19.249 45.1786C19.2435 45.1376 19.2406 45.0958 19.2406 45.0534V44.8028C19.2406 44.7604 19.2435 44.7186 19.249 44.6776C19.2435 44.6366 19.2406 44.5948 19.2406 44.5523V44.3018C19.2406 44.2593 19.2435 44.2175 19.249 44.1765C19.2435 44.1356 19.2406 44.0938 19.2406 44.0513V43.8008C19.2406 43.7583 19.2435 43.7165 19.249 43.6755C19.2435 43.6345 19.2406 43.5927 19.2406 43.5503V43.2997C19.2406 43.2573 19.2435 43.2155 19.249 43.1745C19.2435 43.1335 19.2406 43.0917 19.2406 43.0492V42.7987C19.2406 42.7562 19.2435 42.7144 19.249 42.6735C19.2435 42.6325 19.2406 42.5907 19.2406 42.5482V42.2977C19.2406 42.2552 19.2435 42.2134 19.249 42.1724C19.2435 42.1314 19.2406 42.0896 19.2406 42.0472V41.7967C19.2406 41.7542 19.2435 41.7124 19.249 41.6714C19.2435 41.6304 19.2406 41.5886 19.2406 41.5461V41.2956C19.2406 41.2532 19.2435 41.2113 19.249 41.1704C19.2435 41.1294 19.2406 41.0876 19.2406 41.0451V40.7946C19.2406 40.7521 19.2435 40.7103 19.249 40.6693C19.2435 40.6283 19.2406 40.5865 19.2406 40.5441V40.2936C19.2406 40.2511 19.2435 40.2093 19.249 40.1683C19.2435 40.1273 19.2406 40.0855 19.2406 40.043V39.7925C19.2406 39.7501 19.2435 39.7082 19.249 39.6673C19.2435 39.6263 19.2406 39.5845 19.2406 39.542V39.2915C19.2406 39.249 19.2435 39.2072 19.249 39.1662C19.2435 39.1253 19.2406 39.0835 19.2406 39.041V38.7905C19.2406 38.748 19.2435 38.7062 19.249 38.6652C19.2435 38.6242 19.2406 38.5824 19.2406 38.54V38.2894C19.2406 38.247 19.2435 38.2052 19.249 38.1642C19.2435 38.1232 19.2406 38.0814 19.2406 38.0389V37.7884C19.2406 37.7459 19.2435 37.7041 19.249 37.6631C19.2435 37.6222 19.2406 37.5804 19.2406 37.5379V37.2874C19.2406 37.2449 19.2435 37.2031 19.249 37.1621C19.2435 37.1211 19.2406 37.0793 19.2406 37.0369V36.7864C19.2406 36.7439 19.2435 36.7021 19.249 36.6611C19.2435 36.6201 19.2406 36.5783 19.2406 36.5358V36.5163C19.2123 36.5196 19.1839 36.5229 19.1556 36.5261C19.1089 36.5313 19.0626 36.5331 19.0169 36.5318C18.9725 36.5423 18.9268 36.5499 18.88 36.5542C18.7866 36.5628 18.6935 36.5703 18.6008 36.5769C18.5538 36.5802 18.5074 36.5802 18.4617 36.5769C18.4168 36.5857 18.3707 36.5913 18.3237 36.5937C18.2301 36.5984 18.1368 36.6021 18.0439 36.6047C17.9965 36.6061 17.9498 36.6041 17.9041 36.5988C17.8586 36.6057 17.812 36.6095 17.7645 36.6098C17.6713 36.6105 17.5784 36.6102 17.4859 36.6089C17.4382 36.6083 17.3914 36.6042 17.3457 36.5969C17.2997 36.6019 17.2527 36.6036 17.2051 36.6019C17.1119 36.5986 17.0191 36.5942 16.9267 36.5889C16.8791 36.5862 16.8325 36.58 16.7871 36.5708C16.7409 36.5737 16.6939 36.5734 16.6463 36.5696C16.553 36.5621 16.4601 36.5537 16.3677 36.5442C16.3204 36.5394 16.2743 36.5312 16.2295 36.52C16.1833 36.5209 16.1365 36.5185 16.0894 36.5126C15.9962 36.501 15.9036 36.4883 15.8114 36.4747C15.7645 36.4678 15.7189 36.4577 15.6748 36.4445C15.6288 36.4433 15.5823 36.4389 15.5355 36.4309C15.4429 36.4151 15.3507 36.3983 15.259 36.3806C15.2125 36.3716 15.1674 36.3594 15.124 36.3443C15.0781 36.3411 15.0318 36.3346 14.9855 36.3245C14.8938 36.3047 14.8026 36.2838 14.7119 36.2621C14.6658 36.251 14.6213 36.2368 14.5785 36.2198C14.5327 36.2145 14.4868 36.2059 14.4409 36.1939C14.3505 36.17 14.2606 36.1453 14.1712 36.1196C14.1256 36.1065 14.0817 36.0904 14.0398 36.0715C13.9943 36.0643 13.9487 36.0537 13.9035 36.0396C13.8144 36.0119 13.7259 35.9834 13.638 35.9539C13.5931 35.9389 13.55 35.9209 13.5089 35.9002C13.4638 35.891 13.4188 35.8785 13.3742 35.8625C13.2867 35.8311 13.1998 35.7989 13.1134 35.7658C13.0692 35.7489 13.027 35.7291 12.9869 35.7068C12.9423 35.6957 12.8979 35.6813 12.8541 35.6635C12.7683 35.6285 12.683 35.5928 12.5983 35.5563C12.5549 35.5376 12.5137 35.5161 12.4746 35.4921C12.4306 35.4792 12.3869 35.4631 12.3439 35.4435C12.2598 35.4051 12.1762 35.366 12.0932 35.3261C12.0507 35.3058 12.0105 35.2827 11.9726 35.2573C11.9292 35.2427 11.8864 35.2248 11.8444 35.2036C11.762 35.162 11.6802 35.1197 11.599 35.0767C11.5575 35.0548 11.5184 35.0303 11.4816 35.0035C11.439 34.9873 11.397 34.9678 11.356 34.9451C11.2755 34.9005 11.1955 34.8552 11.1162 34.8092C11.0757 34.7858 11.0377 34.7599 11.0021 34.7318C10.9602 34.7141 10.9192 34.6931 10.8792 34.669C10.8006 34.6215 10.7225 34.5734 10.6451 34.5247C10.6057 34.4999 10.5687 34.4727 10.5343 34.4435C10.4933 34.4243 10.4531 34.4019 10.4141 34.3765C10.3375 34.3263 10.2614 34.2756 10.186 34.2243C10.1476 34.1982 10.1117 34.1698 10.0784 34.1395C10.0382 34.119 9.99897 34.0953 9.96104 34.0686C9.88634 34.0159 9.81226 33.9628 9.7388 33.9091C9.70143 33.8818 9.66665 33.8524 9.63453 33.821C9.59514 33.7992 9.55684 33.7744 9.51995 33.7465C9.44721 33.6915 9.3751 33.6361 9.30362 33.5802C9.26727 33.5518 9.23359 33.5213 9.20259 33.4891C9.16405 33.4661 9.12668 33.4401 9.09081 33.4112C9.02003 33.354 8.94987 33.2965 8.88035 33.2385C8.84503 33.2091 8.81241 33.1777 8.78253 33.1446C8.74483 33.1205 8.7084 33.0935 8.67355 33.0635C8.60469 33.0044 8.53646 32.9449 8.46888 32.885C8.43457 32.8546 8.403 32.8224 8.3742 32.7885C8.33735 32.7634 8.30184 32.7354 8.26799 32.7045C8.20102 32.6435 8.1347 32.5821 8.06903 32.5205C8.03571 32.4892 8.00517 32.4562 7.97744 32.4216C7.94141 32.3955 7.90681 32.3666 7.87394 32.3349C7.80883 32.2721 7.74439 32.209 7.6806 32.1458C7.64824 32.1137 7.61871 32.0799 7.592 32.0446C7.5568 32.0176 7.52309 31.9879 7.49118 31.9554C7.42791 31.8909 7.3653 31.8263 7.30336 31.7615C7.27195 31.7286 7.24339 31.6942 7.21769 31.6583C7.18329 31.6305 7.15045 31.5999 7.11948 31.5667C7.058 31.5007 6.9972 31.4346 6.93709 31.3684C6.90659 31.3348 6.87898 31.2997 6.85425 31.2633C6.82063 31.2346 6.78865 31.2033 6.75858 31.1694C6.69887 31.1019 6.63986 31.0345 6.58155 30.967C6.55194 30.9327 6.52525 30.897 6.50146 30.86C6.46859 30.8306 6.43743 30.7986 6.40824 30.764C6.35028 30.6952 6.29305 30.6265 6.23654 30.5579C6.20778 30.5229 6.18197 30.4866 6.15909 30.4491C6.12696 30.419 6.09658 30.3862 6.06824 30.351C6.01203 30.281 5.95657 30.2112 5.90185 30.1415C5.87391 30.1059 5.84896 30.069 5.82695 30.031C5.79552 30.0001 5.76589 29.9667 5.73837 29.9308C5.68392 29.8598 5.63024 29.789 5.57735 29.7184C5.55019 29.6822 5.52606 29.6447 5.50491 29.6061C5.47413 29.5745 5.44523 29.5405 5.41849 29.5039C5.36582 29.432 5.31397 29.3604 5.26293 29.2891C5.23653 29.2522 5.2132 29.214 5.19288 29.175C5.16273 29.1427 5.1345 29.1079 5.10851 29.0708C5.05743 28.9977 5.00722 28.9251 4.95788 28.8529C4.93233 28.8155 4.90986 28.777 4.89042 28.7376C4.86102 28.7047 4.83362 28.6694 4.80848 28.6318L4.73583 28.5224C4.71133 28.4853 4.68703 28.4482 4.66294 28.4111C4.63854 28.3735 4.61719 28.3349 4.59882 28.2955C4.57071 28.2621 4.54461 28.2265 4.52078 28.1886C4.47356 28.1134 4.42715 28.0383 4.38154 27.9632C4.3583 27.925 4.33814 27.8858 4.32099 27.8459C4.29391 27.8117 4.26892 27.7754 4.24627 27.7368C4.20143 27.6605 4.1574 27.5843 4.11415 27.5081C4.09203 27.4692 4.07303 27.4294 4.05704 27.3889C4.03095 27.354 4.007 27.3169 3.98547 27.2776C3.94308 27.2004 3.90147 27.1233 3.86063 27.0463C3.83966 27.0068 3.82182 26.9664 3.80702 26.9256C3.78194 26.89 3.75907 26.8522 3.73867 26.8124C3.69846 26.7339 3.65903 26.6556 3.62035 26.5775C3.60063 26.5377 3.58402 26.4971 3.57043 26.4562C3.54653 26.4201 3.52486 26.3819 3.5057 26.3419C3.46764 26.2623 3.43035 26.1829 3.39379 26.1038C3.37515 26.0634 3.35964 26.0225 3.34716 25.9811C3.32421 25.9444 3.30355 25.9057 3.28545 25.8652C3.24977 25.7852 3.21483 25.7055 3.18058 25.626C3.16299 25.5852 3.14855 25.5439 3.13714 25.5023C3.11514 25.465 3.09547 25.4258 3.07839 25.3848C3.04473 25.304 3.01177 25.2235 2.97949 25.1432C2.96302 25.1023 2.94966 25.0609 2.93931 25.0193C2.91837 24.9818 2.89977 24.9425 2.88379 24.9014C2.85211 24.82 2.82112 24.7389 2.79077 24.6582C2.77524 24.617 2.76284 24.5753 2.75344 24.5335C2.73333 24.4956 2.71562 24.4559 2.70054 24.4145C2.67079 24.3328 2.64169 24.2515 2.61319 24.1707C2.59864 24.1294 2.58717 24.0878 2.57866 24.0461C2.55949 24.008 2.54271 23.9683 2.52856 23.9269C2.50046 23.8446 2.47296 23.7629 2.44603 23.6818C2.43227 23.6403 2.4216 23.5985 2.41388 23.5568C2.39541 23.5184 2.37936 23.4784 2.36596 23.4369C2.33949 23.3547 2.31358 23.2732 2.28819 23.1923C2.27521 23.1509 2.26526 23.1094 2.25823 23.0678C2.24052 23.0295 2.2252 22.9896 2.21253 22.9482C2.18734 22.8659 2.16267 22.7844 2.13847 22.7035C2.12607 22.6621 2.1167 22.6206 2.11022 22.579C2.09302 22.5406 2.07822 22.5007 2.06605 22.4593C2.04197 22.3772 2.01835 22.2961 1.99514 22.2158C1.98326 22.1746 1.97434 22.1334 1.96826 22.0922C1.95156 22.054 1.93723 22.0143 1.92549 21.9732L1.85683 21.7317C1.84528 21.691 1.83664 21.6501 1.83078 21.6093C1.81441 21.5715 1.80036 21.5322 1.78886 21.4915L1.72109 21.2523C1.70964 21.2119 1.70103 21.1715 1.69515 21.1311C1.67886 21.0938 1.66484 21.0549 1.6533 21.0147C1.63035 20.9348 1.60767 20.8564 1.58515 20.7795C1.57359 20.74 1.56477 20.7003 1.55858 20.6607C1.54222 20.6242 1.52803 20.5863 1.51621 20.547C1.49267 20.4688 1.4693 20.3925 1.446 20.318C1.43403 20.2797 1.42466 20.2412 1.41779 20.2028C1.40111 20.1676 1.38645 20.1311 1.374 20.0932C1.34916 20.0176 1.32442 19.9445 1.29966 19.8737C1.28696 19.8374 1.27664 19.8009 1.26862 19.7642C1.25138 19.7312 1.23593 19.6968 1.22245 19.6611C1.19544 19.5897 1.16849 19.5214 1.14149 19.4564C1.12766 19.4231 1.11592 19.3894 1.10618 19.3556C1.08813 19.3259 1.07156 19.2949 1.05659 19.2627C1.04205 19.2314 1.02754 19.2012 1.01307 19.1719C0.993778 19.133 0.974848 19.0944 0.956264 19.0561C0.937279 19.017 0.921278 18.9772 0.908167 18.937C0.885221 18.9013 0.864445 18.8637 0.846096 18.8241C0.808823 18.7439 0.773125 18.665 0.738941 18.5875C0.721104 18.5471 0.706367 18.5061 0.694635 18.4648C0.672705 18.4277 0.653095 18.3886 0.636076 18.3477C0.601534 18.2646 0.568777 18.1832 0.537722 18.1032C0.521448 18.0613 0.508413 18.019 0.498495 17.9765C0.47801 17.9376 0.460033 17.8969 0.444828 17.8545C0.413807 17.7678 0.384836 17.683 0.3578 17.5997C0.343582 17.556 0.332785 17.5119 0.32526 17.4679C0.306686 17.427 0.290854 17.3843 0.278046 17.3399C0.251957 17.2495 0.228207 17.1611 0.206604 17.0745C0.195217 17.0289 0.187418 16.9832 0.183031 16.9378C0.16716 16.8947 0.154282 16.85 0.144686 16.8038C0.125175 16.7099 0.108229 16.6183 0.0935268 16.5289C0.0858154 16.4819 0.081768 16.4352 0.0811768 16.3891C0.0688572 16.3446 0.0597134 16.2986 0.054018 16.2514C0.0425243 16.1561 0.0334816 16.0637 0.0263615 15.9738C0.0226803 15.9273 0.0224895 15.8814 0.0255775 15.8362C0.0171242 15.792 0.0117817 15.7467 0.0097847 15.7005C0.00583839 15.6091 0.00350189 15.5206 0.00210953 15.435C0.0014019 15.3916 0.0036869 15.3488 0.00878143 15.3069C0.00311852 15.2657 0.000156403 15.2237 7.82013e-05 15.181L1.90735e-06 15.059C1.90735e-06 14.9701 0.00639725 14.8807 0.020031 14.7915C0.0351734 14.6924 0.0654755 14.5992 0.108269 14.5139C0.126949 14.4181 0.161196 14.3235 0.211994 14.2335C0.311777 14.0568 0.438482 13.9097 0.576969 13.789C0.641682 13.7326 0.711966 13.6865 0.785824 13.6503C0.843416 13.5996 0.908226 13.555 0.979759 13.518C1.10439 13.4535 1.23164 13.4021 1.35634 13.3606C1.41547 13.3409 1.4752 13.3272 1.53483 13.3192C1.58828 13.2967 1.64457 13.2787 1.70335 13.2658C1.81167 13.2419 1.92061 13.2226 2.0285 13.2071C2.08129 13.1995 2.13371 13.1962 2.18537 13.1971C2.23462 13.1847 2.28552 13.176 2.33779 13.1713C2.43757 13.1624 2.53728 13.1558 2.63592 13.1511C2.68532 13.1487 2.73403 13.1501 2.78177 13.1549C2.82869 13.1472 2.87678 13.1428 2.92579 13.142C3.02137 13.1405 3.11598 13.1403 3.20876 13.1411C3.256 13.1415 3.30242 13.1453 3.34777 13.1522C3.39306 13.1471 3.43929 13.145 3.4862 13.1463C3.57951 13.1489 3.67049 13.1522 3.75804 13.1558C3.80329 13.1577 3.84767 13.1626 3.89099 13.1704C3.93449 13.1666 3.97876 13.1657 4.0236 13.1679C4.05809 13.1696 4.09114 13.1712 4.12317 13.1728C4.178 13.1755 4.22982 13.178 4.28069 13.1804C4.32206 13.1824 4.36271 13.1869 4.40245 13.1937C4.44114 13.1901 4.48045 13.1888 4.52028 13.1899C4.56017 13.1909 4.59395 13.1914 4.62235 13.1914C4.69082 13.1914 4.75905 13.1945 4.82562 13.1994C4.88566 13.2039 4.944 13.2137 5.00017 13.2283C5.0553 13.2274 5.11128 13.2312 5.16762 13.24C5.26587 13.2554 5.36782 13.274 5.47228 13.2953C5.52166 13.3054 5.56936 13.319 5.61515 13.3359C5.66334 13.3398 5.71184 13.3474 5.76032 13.3589C5.85121 13.3803 5.94455 13.4036 6.0399 13.4284C6.08646 13.4406 6.1313 13.4559 6.17426 13.4741C6.22042 13.4801 6.26672 13.4895 6.31284 13.5024C6.40113 13.5272 6.49103 13.5532 6.58228 13.5803C6.62753 13.5938 6.67102 13.6103 6.7126 13.6294C6.75782 13.6368 6.80304 13.6474 6.848 13.6614C6.93501 13.6886 7.02307 13.7167 7.11198 13.7457C7.1565 13.7602 7.19922 13.7776 7.23998 13.7976C7.2847 13.806 7.32936 13.8176 7.37367 13.8326C7.45974 13.8617 7.54646 13.8915 7.63366 13.922C7.67768 13.9374 7.71984 13.9557 7.76001 13.9765C7.8044 13.9858 7.84865 13.9982 7.89249 14.0141C7.97812 14.045 8.06408 14.0766 8.15019 14.1086C8.19379 14.1249 8.23548 14.1439 8.27514 14.1654C8.31925 14.1756 8.36317 14.1889 8.40661 14.2055C8.49182 14.2382 8.57705 14.2714 8.66216 14.305C8.70547 14.3221 8.74682 14.3419 8.78607 14.3642C8.83003 14.3752 8.87373 14.3894 8.91688 14.4069C9.0018 14.4414 9.08648 14.4763 9.17075 14.5116C9.21381 14.5296 9.25484 14.5503 9.29373 14.5735C9.33758 14.5854 9.3811 14.6006 9.424 14.619C9.50884 14.6556 9.59313 14.6925 9.6767 14.7296C9.71957 14.7486 9.76032 14.7704 9.79884 14.7946C9.84264 14.8076 9.88603 14.8238 9.92871 14.8434C10.0134 14.8823 10.0972 14.9215 10.1799 14.9608C10.2228 14.9812 10.2633 15.0043 10.3016 15.0298C10.3455 15.0441 10.3889 15.0617 10.4315 15.0828C10.4735 15.1036 10.5152 15.1244 10.5566 15.1452C10.5966 15.1655 10.6368 15.1861 10.6769 15.2072C10.7174 15.2284 10.7557 15.252 10.7917 15.2778C10.8329 15.2938 10.8735 15.3128 10.9131 15.3349C10.989 15.3772 11.0652 15.4208 11.1414 15.4654C11.1796 15.4878 11.2155 15.5123 11.2493 15.5387C11.2886 15.556 11.3272 15.576 11.3647 15.599C11.4378 15.6435 11.5109 15.6889 11.5838 15.735C11.6206 15.7582 11.6551 15.7834 11.6875 15.8105C11.7256 15.8286 11.763 15.8495 11.7993 15.8731C11.8703 15.9193 11.9411 15.966 12.0116 16.0131C12.0473 16.0369 12.0808 16.0627 12.1121 16.0902C12.1494 16.1091 12.1859 16.1306 12.2212 16.1547C12.2909 16.2023 12.3601 16.2502 12.4286 16.298C12.4636 16.3224 12.4963 16.3486 12.5269 16.3765C12.5635 16.396 12.5993 16.418 12.634 16.4427C12.7026 16.4915 12.7704 16.5402 12.8373 16.5886C12.8717 16.6135 12.9039 16.6402 12.9338 16.6685C12.97 16.6885 13.0053 16.711 13.0395 16.7361C13.0453 16.7404 13.051 16.7446 13.0568 16.7488C13.057 16.7117 13.0574 16.6746 13.0578 16.6375C13.0583 16.5936 13.0618 16.5504 13.0682 16.5082C13.0633 16.4658 13.0612 16.4226 13.0622 16.3787C13.0642 16.2924 13.0666 16.2062 13.0695 16.12C13.071 16.0761 13.0755 16.0331 13.0828 15.991C13.0789 15.9485 13.0777 15.9052 13.0797 15.8614C13.0836 15.7752 13.0879 15.689 13.0927 15.6029C13.0952 15.5591 13.1007 15.5161 13.1089 15.4742C13.1058 15.4316 13.1057 15.3884 13.1086 15.3446C13.1144 15.2585 13.1206 15.1725 13.1274 15.0865C13.1308 15.0427 13.1372 14.9999 13.1463 14.9582C13.1442 14.9156 13.145 14.8723 13.1489 14.8286C13.1566 14.7428 13.1647 14.6569 13.1733 14.571C13.1777 14.5274 13.185 14.4847 13.1951 14.4432C13.1939 14.4006 13.1957 14.3574 13.2005 14.3138C13.21 14.2281 13.22 14.1425 13.2305 14.0568C13.2358 14.0133 13.2441 13.9708 13.255 13.9295C13.2548 13.8869 13.2575 13.8437 13.2633 13.8002C13.2746 13.7148 13.2865 13.6294 13.2988 13.544C13.3051 13.5006 13.3142 13.4584 13.3261 13.4173C13.3268 13.3747 13.3304 13.3316 13.3371 13.2883C13.3503 13.2032 13.364 13.1181 13.3781 13.033C13.3853 12.9898 13.3954 12.9477 13.4081 12.907C13.4097 12.8644 13.4142 12.8214 13.4218 12.7782C13.4369 12.6935 13.4523 12.6087 13.4683 12.524C13.4764 12.4809 13.4873 12.4391 13.5009 12.3986C13.5034 12.3561 13.5088 12.3132 13.5173 12.2702C13.5341 12.1858 13.5514 12.1014 13.5691 12.0171C13.5781 11.9742 13.5899 11.9326 13.6043 11.8925C13.6077 11.85 13.614 11.8073 13.6234 11.7645C13.642 11.6805 13.6609 11.5965 13.6804 11.5125C13.6902 11.4699 13.7029 11.4286 13.7181 11.3887C13.7224 11.3464 13.7296 11.3038 13.7399 11.2612L13.7706 11.1358L13.8012 11.0124C13.8116 10.9705 13.8246 10.93 13.8401 10.891C13.8446 10.8493 13.852 10.8074 13.8623 10.7655L13.9235 10.5186C13.9339 10.4767 13.947 10.4361 13.9626 10.3971C13.9671 10.3553 13.9745 10.3134 13.9849 10.2715L14.0463 10.0244C14.0567 9.9825 14.0699 9.94194 14.0855 9.90287C14.09 9.86112 14.0974 9.81918 14.1079 9.77727L14.1697 9.52989C14.1802 9.48795 14.1934 9.44736 14.2091 9.40826C14.2137 9.36646 14.2212 9.32448 14.2317 9.28254L14.2939 9.03528C14.3045 8.9933 14.3178 8.95268 14.3336 8.91357C14.3383 8.87173 14.3459 8.82971 14.3565 8.78774L14.4194 8.5401C14.4301 8.49813 14.4435 8.45752 14.4594 8.41842C14.4642 8.37657 14.4719 8.33455 14.4826 8.29258L14.5462 8.04524C14.557 8.00319 14.5706 7.96252 14.5866 7.92337C14.5916 7.88144 14.5994 7.83933 14.6103 7.7973L14.6749 7.54947C14.6859 7.50746 14.6996 7.46685 14.7158 7.42777C14.7209 7.38586 14.729 7.3438 14.74 7.30181L14.8056 7.05435C14.8169 7.01226 14.8308 6.97158 14.8472 6.93245C14.8525 6.89042 14.8608 6.84825 14.8721 6.80617L14.9392 6.55813C14.9506 6.51609 14.9648 6.47547 14.9814 6.43642C14.9869 6.39441 14.9954 6.35228 15.007 6.31025C15.0298 6.22721 15.0527 6.14464 15.0756 6.06256C15.0873 6.0205 15.1017 5.97989 15.1186 5.94087C15.1245 5.89881 15.1333 5.85664 15.1451 5.81461C15.1687 5.73126 15.1923 5.64846 15.2158 5.56624C15.2279 5.52412 15.2427 5.48348 15.26 5.44446C15.2662 5.4023 15.2753 5.36006 15.2876 5.31798C15.3119 5.23461 15.3362 5.15188 15.3606 5.06982C15.373 5.02773 15.3882 4.98715 15.4059 4.94821C15.4125 4.90603 15.4221 4.86379 15.4348 4.82174C15.46 4.73831 15.4853 4.65561 15.5105 4.5737C15.5235 4.53158 15.5392 4.49101 15.5574 4.45212C15.5645 4.40985 15.5747 4.36755 15.5879 4.32548C15.6144 4.24165 15.6408 4.1587 15.6673 4.07666C15.681 4.03442 15.6974 3.99378 15.7163 3.95489C15.724 3.91241 15.7348 3.86996 15.7488 3.82778C15.7767 3.74373 15.8046 3.66071 15.8326 3.57877C15.8471 3.53647 15.8643 3.49584 15.884 3.45701C15.8926 3.41437 15.9042 3.37181 15.9191 3.32958C15.9489 3.24518 15.9788 3.16201 16.0087 3.08013C16.0242 3.0377 16.0425 2.99705 16.0633 2.95828C16.073 2.91539 16.0858 2.87265 16.1019 2.83033C16.1342 2.7454 16.1667 2.66196 16.1993 2.58009C16.2162 2.53748 16.236 2.49676 16.2583 2.45807C16.2694 2.41481 16.2838 2.3718 16.3016 2.32933C16.3377 2.24332 16.374 2.15913 16.4105 2.07692C16.4297 2.03365 16.4519 1.99253 16.4766 1.95366C16.49 1.90946 16.5069 1.86568 16.5274 1.82265C16.5478 1.77992 16.5682 1.73776 16.5888 1.69618C16.6088 1.65582 16.629 1.61565 16.6494 1.57579C16.6708 1.53398 16.6949 1.49442 16.7214 1.45721C16.7378 1.41379 16.7576 1.37101 16.7809 1.32922C16.8295 1.24239 16.8804 1.15615 16.934 1.07206C16.9636 1.02564 16.9966 0.982637 17.0325 0.943162C17.0581 0.894073 17.0884 0.846517 17.1235 0.801092C17.1989 0.703555 17.2834 0.60626 17.3786 0.514674C17.4343 0.461004 17.495 0.415391 17.5592 0.377819C17.6154 0.32147 17.6798 0.271214 17.752 0.228828C17.9081 0.137113 18.0844 0.0650262 18.2799 0.0256101C18.3781 0.00583654 18.4757 0.00160117 18.5703 0.0111921ZM18.4028 2.32615C18.4228 2.29815 18.4414 2.2688 18.4585 2.23814C18.4928 2.17681 18.5252 2.1223 18.556 2.07401C18.5711 2.05033 18.585 2.02624 18.5977 2.00181C18.6148 1.98299 18.6313 1.96335 18.6471 1.9429C18.6546 1.93321 18.6617 1.92436 18.6684 1.91627C18.6732 1.91924 18.678 1.92216 18.6829 1.92506C18.7005 1.93551 18.7201 1.94784 18.7416 1.96232L18.8493 2.03479C18.8857 2.05934 18.9233 2.08108 18.9618 2.10004C18.9936 2.12841 19.0278 2.15501 19.0642 2.17957L19.2787 2.32424C19.315 2.34875 19.3524 2.37047 19.3906 2.38944C19.4223 2.41777 19.4563 2.44435 19.4925 2.4689L19.7057 2.61368C19.7417 2.63823 19.7789 2.66 19.8169 2.67906C19.8484 2.70742 19.8821 2.73404 19.9181 2.75866C19.9887 2.80705 20.0592 2.85548 20.1296 2.90397C20.1654 2.92863 20.2022 2.95055 20.24 2.96976C20.2711 2.9982 20.3045 3.02494 20.3402 3.04971C20.4102 3.09838 20.4801 3.14713 20.5497 3.19597C20.5851 3.22081 20.6217 3.24293 20.6591 3.26239C20.6899 3.29098 20.7229 3.31789 20.7582 3.34288C20.8275 3.39199 20.8966 3.4412 20.9654 3.49054C21.0005 3.51562 21.0366 3.53803 21.0737 3.55781C21.104 3.5866 21.1366 3.61376 21.1714 3.63903C21.2399 3.68871 21.3081 3.73851 21.3761 3.78847C21.4106 3.81388 21.4463 3.83664 21.483 3.8568C21.5128 3.88586 21.5449 3.91332 21.5792 3.93895C21.6467 3.98931 21.7139 4.03984 21.7808 4.09056C21.8148 4.11634 21.85 4.13953 21.8862 4.16015C21.9154 4.18952 21.9469 4.21735 21.9807 4.24339C22.0471 4.29459 22.1132 4.34598 22.1789 4.39759C22.2123 4.42383 22.247 4.44751 22.2827 4.46866C22.3112 4.49841 22.3421 4.52667 22.3753 4.55319C22.4404 4.60533 22.5052 4.65769 22.5696 4.7103C22.6024 4.73705 22.6364 4.76128 22.6715 4.78303C22.6993 4.8132 22.7295 4.84193 22.7619 4.86899C22.8257 4.92218 22.8891 4.97564 22.9521 5.02936C22.9841 5.05667 23.0174 5.08152 23.0518 5.10393C23.0789 5.13456 23.1082 5.16383 23.1399 5.19148C23.2022 5.24584 23.264 5.30049 23.3254 5.35545C23.3566 5.38338 23.3891 5.40891 23.4228 5.43204C23.449 5.46318 23.4775 5.49301 23.5083 5.52132C23.5689 5.57694 23.629 5.63288 23.6886 5.68916C23.719 5.71776 23.7507 5.74401 23.7836 5.76792C23.8088 5.79959 23.8363 5.83005 23.8662 5.85904C23.9249 5.91601 23.9832 5.97333 24.041 6.03102C24.0703 6.06033 24.1011 6.08735 24.1332 6.11208C24.1573 6.14433 24.1838 6.17543 24.2127 6.20515C24.2694 6.26355 24.3257 6.32233 24.3814 6.38151C24.4097 6.41156 24.4395 6.43939 24.4707 6.46499C24.4937 6.49783 24.5191 6.5296 24.5469 6.56009C24.6014 6.61995 24.6555 6.68023 24.709 6.74095C24.7362 6.77178 24.7649 6.80045 24.7951 6.82695C24.8169 6.8604 24.8411 6.89286 24.8677 6.92413C24.92 6.98552 24.9717 7.04737 25.0229 7.10967C25.0489 7.1413 25.0765 7.17084 25.1056 7.19827C25.1262 7.23234 25.1491 7.26552 25.1745 7.29759C25.2243 7.36056 25.2736 7.42399 25.3224 7.48793C25.3471 7.52036 25.3735 7.55079 25.4014 7.57917C25.4206 7.61385 25.4423 7.64774 25.4664 7.68062C25.5136 7.74511 25.5603 7.81011 25.6064 7.87564C25.6298 7.90888 25.6549 7.94018 25.6817 7.96951C25.6995 8.0048 25.7197 8.03938 25.7424 8.07306C25.7647 8.10618 25.7869 8.13943 25.809 8.17282C25.8293 8.20359 25.8496 8.23482 25.87 8.26652C25.8908 8.29904 25.9134 8.32988 25.9374 8.35899C25.9529 8.39339 25.9707 8.42725 25.9908 8.46039C26.0299 8.52492 26.0689 8.59105 26.1078 8.65875C26.1272 8.69257 26.1485 8.72476 26.1713 8.75526C26.1854 8.79065 26.2017 8.82558 26.2205 8.85988C26.2572 8.92698 26.2936 8.9954 26.3299 9.06508C26.3482 9.10027 26.3685 9.13385 26.3905 9.16575C26.4033 9.20226 26.4185 9.2384 26.4361 9.27398C26.4705 9.34318 26.5047 9.41348 26.5385 9.48483C26.5556 9.52077 26.5746 9.55516 26.5955 9.58792C26.607 9.62494 26.621 9.66167 26.6374 9.69793C26.6697 9.76904 26.7017 9.84107 26.7333 9.91398C26.7493 9.95073 26.7673 9.98596 26.7873 10.0196C26.7976 10.0572 26.8104 10.0946 26.8258 10.1317C26.8558 10.2039 26.8855 10.277 26.9149 10.3507C26.9297 10.3881 26.9468 10.4241 26.9658 10.4585C26.975 10.4966 26.9867 10.5346 27.001 10.5722C27.029 10.6457 27.0566 10.7199 27.0838 10.7947C27.0976 10.8325 27.1136 10.8689 27.1316 10.9039C27.1397 10.9422 27.1503 10.9805 27.1635 11.0185C27.1895 11.0932 27.2151 11.1685 27.2403 11.2442C27.253 11.2825 27.2679 11.3193 27.2849 11.3547C27.2919 11.3933 27.3014 11.4319 27.3136 11.4703C27.3375 11.5457 27.361 11.6215 27.384 11.6978C27.3957 11.7365 27.4096 11.7739 27.4257 11.8099C27.4317 11.8488 27.4401 11.8877 27.4513 11.9265C27.4731 12.0026 27.4944 12.0789 27.5153 12.1557C27.5259 12.1946 27.5389 12.2324 27.554 12.2688C27.5589 12.3078 27.5663 12.347 27.5764 12.3861C27.5961 12.4628 27.6154 12.5398 27.6341 12.617C27.6436 12.6562 27.6555 12.6942 27.6696 12.731C27.6734 12.77 27.6797 12.8093 27.6887 12.8486C27.7064 12.9259 27.7235 13.0034 27.7401 13.0811C27.7485 13.1204 27.7593 13.1587 27.7723 13.1958C27.775 13.2349 27.7803 13.2743 27.7881 13.3138C27.8036 13.3914 27.8185 13.4692 27.8329 13.5471C27.8402 13.5867 27.8499 13.6252 27.8618 13.6626C27.8635 13.7017 27.8676 13.7412 27.8743 13.7808C27.8875 13.8588 27.9001 13.9368 27.9122 14.0149C27.9183 14.0545 27.9269 14.0932 27.9377 14.1308C27.9381 14.1699 27.9411 14.2094 27.9466 14.2491C27.9575 14.3273 27.9678 14.4055 27.9774 14.4837C27.9823 14.5234 27.9897 14.5622 27.9993 14.6C27.9986 14.639 28.0003 14.6785 28.0046 14.7182C28.013 14.7965 28.0208 14.8747 28.028 14.9529C28.0316 14.9926 28.0377 15.0315 28.0461 15.0695C28.0441 15.1083 28.0445 15.1477 28.0475 15.1875C28.0534 15.2657 28.0586 15.3438 28.0631 15.4217C28.0654 15.4614 28.0702 15.5004 28.0772 15.5385C28.074 15.5771 28.073 15.6163 28.0746 15.656C28.0778 15.7341 28.0802 15.812 28.082 15.8896C28.0829 15.9291 28.0862 15.9681 28.0919 16.0062C28.0872 16.0445 28.0849 16.0834 28.085 16.1229C28.0853 16.2008 28.0848 16.2784 28.0836 16.3557C28.083 16.3949 28.0848 16.4336 28.089 16.4717C28.0829 16.5095 28.0791 16.548 28.0777 16.5872C28.0749 16.6647 28.0713 16.7418 28.067 16.8186C28.0648 16.8575 28.065 16.8961 28.0675 16.9341C28.0599 16.9713 28.0545 17.0095 28.0514 17.0483C28.0454 17.125 28.0385 17.2012 28.0308 17.2769C28.0269 17.3155 28.0254 17.3538 28.0262 17.3916C28.017 17.4283 28.0099 17.4659 28.005 17.5044C27.9955 17.58 27.9852 17.6551 27.9739 17.7296C27.9682 17.7676 27.9649 17.8054 27.9638 17.8429C27.9528 17.8788 27.9439 17.9157 27.9372 17.9535C27.924 18.028 27.9099 18.1018 27.8948 18.175C27.8872 18.2122 27.8819 18.2493 27.8788 18.2862C27.8661 18.321 27.8553 18.3568 27.8466 18.3937C27.8295 18.4667 27.8113 18.539 27.7922 18.6105C27.7825 18.6468 27.7751 18.6832 27.7699 18.7194C27.7553 18.7531 27.7425 18.7879 27.7317 18.8238C27.7104 18.8945 27.6881 18.9644 27.6649 19.0334C27.653 19.0686 27.6434 19.1041 27.6359 19.1396C27.6193 19.1718 27.6043 19.2053 27.5913 19.2401C27.5785 19.274 27.5655 19.3078 27.5522 19.3413C27.5379 19.3775 27.5233 19.4136 27.5086 19.4497C27.4936 19.4864 27.4811 19.5235 27.471 19.5608C27.4513 19.5942 27.4334 19.6291 27.4176 19.6655C27.3865 19.7372 27.3546 19.8086 27.322 19.8798C27.3054 19.916 27.2913 19.9527 27.2796 19.9897C27.2584 20.0224 27.2391 20.0567 27.2217 20.0926C27.1875 20.1632 27.1526 20.2336 27.117 20.3038C27.0988 20.3394 27.0832 20.3757 27.07 20.4123C27.0475 20.4442 27.0267 20.4779 27.0079 20.5132C26.9708 20.5827 26.933 20.652 26.8946 20.7209C26.8751 20.7559 26.858 20.7917 26.8434 20.8279C26.8196 20.8591 26.7975 20.892 26.7772 20.9267C26.7374 20.9951 26.697 21.0631 26.6559 21.1307C26.635 21.1651 26.6166 21.2003 26.6006 21.2361C26.5756 21.2664 26.5522 21.2987 26.5307 21.3327C26.4883 21.3998 26.4453 21.4664 26.4017 21.5327C26.3796 21.5664 26.3599 21.601 26.3426 21.6363C26.3165 21.6658 26.2919 21.6972 26.2691 21.7306C26.2242 21.7963 26.1788 21.8616 26.1329 21.9264C26.1095 21.9594 26.0886 21.9934 26.0701 22.0281C26.0429 22.0567 26.0172 22.0874 25.9933 22.12C25.9461 22.1842 25.8984 22.248 25.8502 22.3112C25.8257 22.3435 25.8035 22.3768 25.7838 22.4109C25.7556 22.4387 25.7288 22.4685 25.7037 22.5003C25.6543 22.5631 25.6044 22.6253 25.5542 22.6869C25.5286 22.7183 25.5053 22.7508 25.4844 22.7842C25.4553 22.811 25.4276 22.8399 25.4015 22.8709C25.3498 22.9321 25.2978 22.9927 25.2454 23.0527C25.2188 23.0832 25.1944 23.115 25.1724 23.1477C25.1424 23.1735 25.1137 23.2015 25.0865 23.2316C25.0329 23.291 24.979 23.3496 24.9248 23.4076C24.8971 23.4373 24.8717 23.4682 24.8485 23.5002C24.8177 23.525 24.788 23.552 24.7598 23.5812C24.7041 23.6388 24.6482 23.6957 24.592 23.7518C24.5634 23.7804 24.537 23.8104 24.5128 23.8415C24.4812 23.8652 24.4507 23.8911 24.4216 23.9192C24.3641 23.9747 24.3064 24.0294 24.2486 24.0833C24.2189 24.1109 24.1915 24.1399 24.1663 24.1701C24.1338 24.1927 24.1024 24.2175 24.0723 24.2445C24.0129 24.2979 23.9533 24.3505 23.8936 24.4021C23.8632 24.4284 23.8349 24.4563 23.8087 24.4854C23.7756 24.5066 23.7435 24.5301 23.7126 24.5558C23.6514 24.6068 23.5902 24.6567 23.5291 24.7057C23.4977 24.7308 23.4684 24.7574 23.4411 24.7854C23.4073 24.8053 23.3744 24.8275 23.3425 24.8519C23.2795 24.9003 23.2166 24.9476 23.1538 24.9937C23.1217 25.0173 23.0915 25.0425 23.0633 25.069C23.029 25.0873 22.9955 25.1079 22.9629 25.1307C22.8984 25.1759 22.834 25.2199 22.77 25.2627C22.7372 25.2845 22.7062 25.3081 22.6771 25.3331C22.6424 25.3496 22.6083 25.3683 22.575 25.3893C22.5088 25.4312 22.443 25.4717 22.3776 25.5107C22.3441 25.5306 22.3123 25.5523 22.2822 25.5755C22.2471 25.59 22.2125 25.6067 22.1785 25.6257C22.1111 25.6634 22.0443 25.6994 21.9782 25.7338C21.9443 25.7514 21.9119 25.7708 21.8811 25.7917C21.8459 25.8038 21.8111 25.818 21.7768 25.8344C21.7685 25.8384 21.7603 25.8423 21.7521 25.8462C21.7634 25.8127 21.7727 25.7791 21.78 25.7454C21.8007 25.7064 21.8188 25.6654 21.8341 25.6228C21.8635 25.5409 21.8932 25.457 21.923 25.3709C21.9378 25.3282 21.9493 25.2851 21.9576 25.2419C21.9773 25.2025 21.9945 25.1612 22.0088 25.1182C22.0364 25.0353 22.0641 24.9507 22.0917 24.8645C22.1055 24.8214 22.116 24.778 22.1233 24.7346C22.1421 24.6947 22.1583 24.653 22.1716 24.6097C22.1974 24.5257 22.2231 24.4403 22.2486 24.3537C22.2614 24.3101 22.2708 24.2664 22.2771 24.2227C22.295 24.1823 22.3102 24.1401 22.3225 24.0964C22.3464 24.0113 22.37 23.9251 22.3933 23.8378C22.405 23.7938 22.4134 23.7497 22.4186 23.7057C22.4355 23.6647 22.4496 23.6221 22.4608 23.5779C22.4825 23.492 22.5039 23.4053 22.5248 23.3177C22.5354 23.2734 22.5426 23.2291 22.5467 23.185C22.5624 23.1436 22.5755 23.1006 22.5854 23.0561C22.6049 22.9692 22.624 22.8815 22.6425 22.7931C22.6519 22.7483 22.6579 22.7036 22.6607 22.6593C22.6754 22.6172 22.6872 22.5737 22.6959 22.5287C22.713 22.4408 22.7296 22.3523 22.7455 22.2632C22.7535 22.2181 22.7582 22.1732 22.7596 22.1287C22.7731 22.0862 22.7836 22.0422 22.7909 21.9969C22.8054 21.9082 22.8192 21.8189 22.8323 21.7292C22.8389 21.6836 22.8421 21.6383 22.8421 21.5935C22.8542 21.5504 22.8634 21.5058 22.8693 21.4601C22.8808 21.3704 22.8916 21.2803 22.9017 21.1898C22.9068 21.1439 22.9084 21.0983 22.9068 21.0535C22.9175 21.0097 22.925 20.9647 22.9293 20.9187C22.9377 20.8282 22.9452 20.7373 22.9519 20.6462C22.9553 20.5998 22.9553 20.5539 22.952 20.5089C22.961 20.4645 22.9668 20.419 22.9693 20.3725C22.9742 20.2812 22.9782 20.1896 22.9812 20.0978C22.9827 20.051 22.9808 20.005 22.9756 19.9598C22.9828 19.9149 22.9868 19.8689 22.9873 19.8221C22.9878 19.776 22.9881 19.73 22.9881 19.6838V19.5622C22.9881 19.5204 22.9853 19.4787 22.9799 19.4383C22.9853 19.3979 22.9881 19.3567 22.9881 19.3149V19.0689C22.9881 19.0271 22.9853 18.9848 22.9799 18.9444C22.9853 18.904 22.9881 18.8628 22.9881 18.8209V18.5749C22.9881 18.5331 22.9853 18.491 22.98 18.4507C22.9853 18.4104 22.9881 18.3693 22.9881 18.3276V18.082C22.9881 18.0402 22.9853 17.998 22.9799 17.9576C22.9853 17.9173 22.9881 17.8761 22.9881 17.8343V17.5884C22.9881 17.5465 22.9853 17.5044 22.9799 17.464C22.9853 17.4236 22.9881 17.3824 22.9881 17.3406V17.0949C22.9881 17.0531 22.9853 17.0109 22.9799 16.9705C22.9853 16.9302 22.9881 16.889 22.9881 16.8472V16.6013C22.9881 16.5595 22.9853 16.5174 22.9799 16.477C22.9853 16.4366 22.9881 16.3955 22.9881 16.3537V16.1081C22.9881 16.0663 22.9853 16.0241 22.9799 15.9837C22.9853 15.9434 22.9881 15.9022 22.9881 15.8603V15.6143C22.9881 15.5725 22.9853 15.5303 22.9799 15.4899C22.9853 15.4495 22.9881 15.4083 22.9881 15.3665V15.1207C22.9881 15.0789 22.9853 15.0368 22.9799 14.9964C22.9853 14.9561 22.9881 14.9149 22.9881 14.8731V14.6276C22.9881 14.5859 22.9853 14.5438 22.98 14.5035C22.9853 14.4632 22.9881 14.422 22.9881 14.3803V14.1348C22.9881 14.093 22.9853 14.0508 22.9799 14.0105C22.9853 13.9701 22.9881 13.9289 22.9881 13.8871V13.641C22.9881 13.599 22.9853 13.5568 22.9799 13.5163C22.9853 13.4758 22.9881 13.4345 22.9881 13.3926V13.1461C22.9881 13.1045 22.9853 13.0626 22.98 13.0224C22.9853 12.9823 22.9881 12.9413 22.9881 12.8997V12.6523C22.9881 12.6108 22.9853 12.5691 22.98 12.529C22.9853 12.4889 22.9881 12.448 22.9881 12.4065V12.2852L22.9126 12.284C22.7671 11.946 22.427 11.709 22.0306 11.709C21.6343 11.709 21.2941 11.946 21.1487 12.284H21.0732V12.4056C21.0732 12.4471 21.0759 12.4889 21.0812 12.529C21.0759 12.5691 21.0732 12.61 21.0732 12.6515V12.8986C21.0732 12.9402 21.0759 12.9823 21.0812 13.0224C21.0759 13.0626 21.0732 13.1036 21.0732 13.1452V13.3916C21.0732 13.4335 21.0759 13.4758 21.0813 13.5163C21.0759 13.5568 21.0732 13.5981 21.0732 13.64V13.8861C21.0732 13.9279 21.0759 13.9701 21.0813 14.0105C21.0759 14.0508 21.0732 14.092 21.0732 14.1338V14.3793C21.0732 14.4211 21.0759 14.4632 21.0813 14.5035C21.0759 14.5438 21.0732 14.5849 21.0732 14.6267V14.8722C21.0732 14.9139 21.0759 14.9561 21.0813 14.9964C21.0759 15.0368 21.0732 15.0779 21.0732 15.1197V15.3655C21.0732 15.4073 21.0759 15.4495 21.0813 15.4899C21.0759 15.5303 21.0732 15.5715 21.0732 15.6134V15.8594C21.0732 15.9012 21.0759 15.9434 21.0813 15.9837C21.0759 16.0241 21.0732 16.0653 21.0732 16.1072V16.3527C21.0732 16.3945 21.0759 16.4366 21.0813 16.477C21.0759 16.5174 21.0732 16.5586 21.0732 16.6004V16.8462C21.0732 16.888 21.0759 16.9302 21.0813 16.9705C21.0759 17.0109 21.0732 17.0521 21.0732 17.0939V17.3396C21.0732 17.3814 21.0759 17.4236 21.0813 17.464C21.0759 17.5044 21.0732 17.5456 21.0732 17.5874V17.8333C21.0732 17.8751 21.0759 17.9173 21.0813 17.9576C21.0759 17.998 21.0732 18.0392 21.0732 18.081V18.3266C21.0732 18.3684 21.0759 18.4104 21.0813 18.4507C21.0759 18.491 21.0732 18.5322 21.0732 18.5739V18.8199C21.0732 18.8618 21.0759 18.904 21.0813 18.9444C21.0759 18.9848 21.0732 19.0261 21.0732 19.0679V19.3139C21.0732 19.3558 21.0759 19.3979 21.0813 19.4383C21.0759 19.4787 21.0732 19.5199 21.0732 19.5618V19.6833C21.0732 19.7225 21.0729 19.7621 21.0725 19.8014C21.0721 19.8413 21.0741 19.8806 21.0786 19.9193C21.0724 19.9577 21.0686 19.997 21.0673 20.037C21.0647 20.1157 21.0613 20.1945 21.0571 20.2733C21.0549 20.3134 21.0554 20.3531 21.0583 20.3922C21.0504 20.4307 21.045 20.4701 21.042 20.5102C21.0362 20.5894 21.0296 20.6685 21.0223 20.7476C21.0186 20.7878 21.0175 20.8277 21.0189 20.8671C21.0096 20.9054 21.0026 20.9448 20.9981 20.985C20.9893 21.0645 20.9798 21.1438 20.9696 21.2229C20.9644 21.2633 20.9618 21.3034 20.9619 21.3431C20.9511 21.3813 20.9427 21.4207 20.9369 21.461C20.9252 21.5406 20.913 21.6199 20.9001 21.6989C20.8936 21.7392 20.8897 21.7793 20.8884 21.8191C20.8764 21.8571 20.8667 21.8963 20.8596 21.9365C20.8453 22.0162 20.8305 22.0955 20.8152 22.1744C20.8073 22.2148 20.8022 22.255 20.7997 22.2949C20.7865 22.3328 20.7756 22.3719 20.7671 22.4122C20.7504 22.4918 20.7333 22.5709 20.7156 22.6494C20.7066 22.6896 20.7003 22.7297 20.6967 22.7697C20.6824 22.8072 20.6704 22.8461 20.6608 22.8861C20.6418 22.9655 20.6224 23.0443 20.6027 23.1223C20.5925 23.1624 20.5852 23.2026 20.5805 23.2426C20.565 23.28 20.5519 23.3188 20.5412 23.3588C20.52 23.4383 20.4985 23.5169 20.4767 23.5946C20.4655 23.6346 20.457 23.6746 20.4513 23.7145C20.4349 23.7515 20.4208 23.79 20.4091 23.8298C20.3858 23.909 20.3623 23.9872 20.3387 24.0642C20.3265 24.1038 20.3171 24.1437 20.3104 24.1835C20.2931 24.2201 20.278 24.2583 20.2654 24.2978C20.2401 24.3769 20.2147 24.4545 20.1893 24.5307C20.1762 24.5701 20.1658 24.6098 20.1581 24.6495C20.14 24.6858 20.124 24.7236 20.1104 24.7629C20.0831 24.8419 20.0558 24.9191 20.0288 24.9943C20.0147 25.0335 20.0034 25.073 19.9948 25.1126C19.9758 25.1485 19.959 25.186 19.9444 25.225C19.9149 25.3043 19.8858 25.3809 19.8573 25.4548C19.8423 25.4936 19.8301 25.5328 19.8206 25.5721C19.8008 25.6075 19.783 25.6446 19.7676 25.6832C19.7358 25.7627 19.7051 25.8381 19.6757 25.9092C19.6689 25.9255 19.6627 25.9419 19.6569 25.9584C19.6381 25.9551 19.6192 25.9524 19.6005 25.9502C19.5664 25.9369 19.5312 25.9254 19.4949 25.9157C19.4243 25.897 19.3532 25.877 19.2819 25.8556C19.246 25.8449 19.2101 25.8364 19.1741 25.8299C19.1411 25.8145 19.1068 25.8008 19.0714 25.789C19.0023 25.7658 18.9331 25.7414 18.8638 25.7157C18.829 25.7028 18.7939 25.692 18.7587 25.6832C18.727 25.6658 18.6939 25.65 18.6596 25.6359C18.5926 25.6084 18.5257 25.5797 18.4591 25.5496C18.4255 25.5345 18.3915 25.5214 18.3572 25.5104C18.3271 25.491 18.2955 25.4731 18.2626 25.4568C18.1982 25.4249 18.1341 25.3918 18.0705 25.3575C18.0385 25.3401 18.0059 25.3248 17.9728 25.3114C17.9445 25.2901 17.9146 25.2701 17.8833 25.2516C17.822 25.2155 17.7613 25.1781 17.7012 25.1394C17.6709 25.1199 17.6399 25.1023 17.6083 25.0865C17.582 25.0633 17.5541 25.0413 17.5247 25.0207C17.4671 24.9802 17.4102 24.9386 17.354 24.8956C17.3257 24.8739 17.2965 24.8541 17.2667 24.836C17.2426 24.811 17.2169 24.787 17.1896 24.7642C17.1361 24.7196 17.0834 24.6738 17.0316 24.6266C17.0054 24.6028 16.9783 24.5808 16.9504 24.5604C16.9287 24.5336 16.9054 24.5077 16.8804 24.4828C16.8314 24.4342 16.7833 24.3842 16.7362 24.333C16.7125 24.3072 16.6876 24.283 16.6618 24.2604C16.6428 24.232 16.6221 24.2044 16.5996 24.1776C16.5555 24.1252 16.5125 24.0715 16.4704 24.0164C16.4491 23.9887 16.4266 23.9624 16.403 23.9376C16.3867 23.9077 16.3686 23.8783 16.3487 23.8497C16.3098 23.7936 16.2717 23.7362 16.2348 23.6774C16.2161 23.6477 16.1961 23.6195 16.1747 23.5926C16.1612 23.5612 16.1458 23.5302 16.1285 23.4997C16.0948 23.4402 16.062 23.3794 16.0302 23.3171C16.0143 23.2859 15.9969 23.2559 15.978 23.2272C15.9673 23.1946 15.9547 23.1623 15.9402 23.1304C15.9117 23.0679 15.8843 23.0041 15.8579 22.9389C15.8446 22.906 15.8296 22.8742 15.8131 22.8437C15.8052 22.8099 15.7953 22.7762 15.7833 22.7427C15.76 22.6773 15.7378 22.6106 15.7166 22.5424C15.706 22.5083 15.6936 22.4753 15.6796 22.4433C15.6744 22.4088 15.6672 22.3742 15.6579 22.3397C15.6487 22.3053 15.6397 22.2706 15.631 22.2355L15.6004 22.1102C15.5901 22.0676 15.577 22.0265 15.5614 21.9868C15.5576 21.9444 15.5509 21.9018 15.5411 21.8591C15.5218 21.7752 15.503 21.6913 15.4847 21.6075C15.4753 21.5647 15.4632 21.5233 15.4485 21.4833C15.4457 21.4409 15.4399 21.3982 15.431 21.3553C15.4136 21.2711 15.3967 21.1869 15.3803 21.1027C15.3719 21.0598 15.3607 21.0181 15.3469 20.9778C15.3451 20.9354 15.3403 20.8925 15.3324 20.8495C15.3169 20.765 15.3019 20.6805 15.2874 20.596C15.28 20.5529 15.2698 20.511 15.2569 20.4705C15.256 20.428 15.2522 20.3851 15.2453 20.342C15.2318 20.2572 15.2187 20.1724 15.2062 20.0876C15.1998 20.0444 15.1906 20.0023 15.1786 19.9615C15.1787 19.919 15.1759 19.8761 15.17 19.8328C15.1585 19.7478 15.1474 19.6627 15.1368 19.5777C15.1315 19.5344 15.1232 19.4921 15.1122 19.4511C15.1133 19.4086 15.1115 19.3656 15.1066 19.3223C15.0971 19.237 15.088 19.1518 15.0794 19.0666C15.0751 19.0232 15.0678 18.9807 15.0578 18.9395C15.0599 18.8971 15.0591 18.8541 15.0553 18.8106L15.0443 18.6825L15.0348 18.5637C15.0317 18.5234 15.0261 18.484 15.0181 18.4454C15.0205 18.4061 15.0205 18.3663 15.0178 18.326C15.0126 18.2467 15.0078 18.1674 15.0035 18.0881C15.0012 18.0478 14.9965 18.0082 14.9894 17.9695C14.9927 17.9303 14.9935 17.8904 14.9917 17.8501C14.9882 17.7707 14.9852 17.6913 14.9826 17.612C14.9813 17.5716 14.9774 17.5319 14.9711 17.4931C14.9753 17.454 14.977 17.4141 14.9761 17.3738C14.9744 17.2944 14.9731 17.215 14.9723 17.1356C14.9719 17.0952 14.9689 17.0555 14.9635 17.0165C14.9685 16.9774 14.9711 16.9377 14.9711 16.8973C14.9711 16.8179 14.9716 16.7385 14.9726 16.6591C14.973 16.6187 14.9709 16.5789 14.9664 16.5398C14.9722 16.5009 14.9757 16.4612 14.9766 16.4208C14.9784 16.3414 14.9807 16.2621 14.9834 16.1827C14.9847 16.1423 14.9835 16.1025 14.9798 16.0633C14.9866 16.0245 14.9909 15.9849 14.9927 15.9446C14.9963 15.8652 15.0003 15.7859 15.0047 15.7066C15.007 15.6663 15.0066 15.6264 15.0038 15.5871C15.0114 15.5485 15.0167 15.509 15.0194 15.4687C15.0247 15.3895 15.0304 15.3102 15.0366 15.231C15.0398 15.1907 15.0403 15.1508 15.0383 15.1115C15.0468 15.0731 15.0529 15.0336 15.0565 14.9934C15.0635 14.9143 15.071 14.8352 15.079 14.7561C15.083 14.7159 15.0844 14.676 15.0833 14.6366C15.0926 14.5984 15.0996 14.5591 15.104 14.5189C15.1128 14.44 15.122 14.361 15.1317 14.282C15.1366 14.2419 15.1388 14.2021 15.1386 14.1627C15.1487 14.1246 15.1566 14.0854 15.1619 14.0454C15.1724 13.9666 15.1833 13.8878 15.1947 13.809C15.2005 13.769 15.2036 13.7292 15.2042 13.6898C15.2152 13.6519 15.2238 13.613 15.23 13.573C15.2422 13.4944 15.2548 13.4159 15.2679 13.3373C15.2745 13.2974 15.2785 13.2577 15.28 13.2183C15.2917 13.1806 15.3012 13.1418 15.3083 13.102C15.3222 13.0237 15.3365 12.9453 15.3512 12.867C15.3587 12.8272 15.3635 12.7876 15.3658 12.7482C15.3783 12.7108 15.3887 12.6721 15.3966 12.6324C15.4121 12.5544 15.428 12.4763 15.4444 12.3983C15.4527 12.3586 15.4584 12.3191 15.4615 12.2797C15.4748 12.2426 15.486 12.2041 15.4947 12.1646C15.5118 12.0868 15.5294 12.0091 15.5474 11.9313C15.5566 11.8918 15.563 11.8523 15.567 11.8131C15.5811 11.7761 15.593 11.7379 15.6026 11.6985L15.631 11.5822L15.6616 11.4589C15.6719 11.417 15.6793 11.3752 15.6838 11.3335C15.6993 11.2945 15.7123 11.254 15.7227 11.2122L15.7838 10.9657C15.7942 10.9239 15.8015 10.8821 15.806 10.8404C15.8215 10.8015 15.8346 10.761 15.845 10.7192L15.9062 10.473C15.9166 10.4313 15.924 10.3895 15.9285 10.3479C15.944 10.309 15.9571 10.2686 15.9675 10.2269L16.029 9.98082C16.0394 9.93913 16.0469 9.8974 16.0514 9.85585C16.067 9.81699 16.0802 9.77665 16.0906 9.73498L16.1524 9.48947C16.1629 9.44782 16.1704 9.40614 16.1751 9.36464C16.1907 9.32583 16.2039 9.28555 16.2145 9.24393L16.2768 8.99854C16.2874 8.95699 16.295 8.91539 16.2997 8.87396C16.3155 8.83525 16.3287 8.79507 16.3394 8.75354L16.4022 8.50899C16.4129 8.46747 16.4207 8.42588 16.4255 8.38446C16.4414 8.3458 16.4548 8.30566 16.4656 8.26416L16.5293 8.01974C16.5401 7.97837 16.548 7.93693 16.553 7.89565C16.569 7.85715 16.5825 7.81717 16.5934 7.77583L16.6579 7.53248C16.6689 7.49114 16.677 7.44973 16.6822 7.40846C16.6983 7.37002 16.712 7.3301 16.7231 7.2888L16.7889 7.04567C16.8001 7.00453 16.8083 6.9633 16.8138 6.92218C16.83 6.88396 16.8439 6.84425 16.8553 6.80316C16.8776 6.72199 16.8999 6.64137 16.9222 6.56132C16.9336 6.52034 16.9421 6.47925 16.9478 6.43826C16.9643 6.40023 16.9784 6.36069 16.99 6.31977C17.0129 6.23867 17.0358 6.1582 17.0587 6.0784C17.0704 6.03758 17.0792 5.99662 17.0852 5.95575C17.1019 5.91792 17.1164 5.87857 17.1282 5.83781C17.1518 5.75714 17.1753 5.67721 17.1987 5.59806C17.2107 5.55753 17.2199 5.51684 17.2262 5.47621C17.2433 5.4387 17.258 5.39966 17.2702 5.35922C17.2944 5.27904 17.3186 5.19974 17.3428 5.12135C17.3552 5.08112 17.3648 5.04071 17.3716 5.00033C17.3889 4.96318 17.4041 4.92449 17.4167 4.88437C17.4419 4.80453 17.467 4.72575 17.4921 4.64805C17.505 4.60815 17.5151 4.56804 17.5224 4.52791C17.5402 4.49116 17.5559 4.45286 17.5691 4.4131C17.5953 4.33402 17.6215 4.25621 17.6476 4.17971C17.6611 4.14035 17.6717 4.10074 17.6797 4.06107C17.698 4.02495 17.7142 3.98727 17.728 3.94811C17.7556 3.87003 17.783 3.79353 17.8104 3.71863C17.8245 3.68003 17.8359 3.64113 17.8447 3.60211C17.8636 3.56685 17.8805 3.53002 17.8951 3.4917C17.9242 3.41509 17.9532 3.34048 17.9821 3.26791C17.997 3.23046 18.0094 3.19264 18.0191 3.15464C18.0387 3.12067 18.0563 3.08513 18.0719 3.04809C18.1031 2.97354 18.1341 2.90168 18.1648 2.83254C18.1807 2.79669 18.1942 2.7604 18.2053 2.72385C18.2258 2.69175 18.2444 2.65809 18.2612 2.62294C18.2776 2.58847 18.2939 2.55491 18.31 2.52226C18.3268 2.48837 18.3433 2.45551 18.3597 2.42363C18.3761 2.39157 18.3904 2.35903 18.4028 2.32615ZM13.3012 20.2198C13.2883 20.1756 13.2785 20.13 13.2721 20.083C13.2595 19.9908 13.2476 19.8987 13.2361 19.8064C13.2303 19.7594 13.228 19.7128 13.2292 19.6668C13.2174 19.6224 13.2086 19.5765 13.2033 19.5294C13.193 19.437 13.1831 19.3445 13.1738 19.252C13.1732 19.2457 13.1726 19.2393 13.1721 19.233C13.1253 19.1952 13.0735 19.1536 13.0174 19.1088C12.9862 19.0839 12.957 19.0574 12.9299 19.0296C12.8965 19.0094 12.8641 18.9869 12.8327 18.9622C12.7737 18.9157 12.7115 18.867 12.6464 18.8163C12.6148 18.7917 12.5851 18.7656 12.5576 18.7381C12.5239 18.7182 12.491 18.6961 12.4593 18.6717C12.3984 18.625 12.3356 18.5771 12.2712 18.5283C12.2394 18.5042 12.2095 18.4785 12.1817 18.4515C12.1478 18.4321 12.1148 18.4105 12.0828 18.3867C12.0208 18.3403 11.9576 18.2935 11.8934 18.2462C11.8612 18.2226 11.831 18.1973 11.8028 18.1707C11.7687 18.1519 11.7354 18.1308 11.7031 18.1074C11.6402 18.0619 11.5766 18.0163 11.5125 17.9707C11.4802 17.9477 11.4498 17.9231 11.4213 17.897C11.3871 17.8789 11.3537 17.8585 11.3212 17.8358C11.2574 17.7913 11.1934 17.7471 11.1292 17.7032C11.0966 17.681 11.066 17.6571 11.0371 17.6318C11.0029 17.6145 10.9693 17.5949 10.9366 17.573C10.8722 17.53 10.8078 17.4876 10.7436 17.4458C10.7109 17.4245 10.68 17.4017 10.6509 17.3773C10.6166 17.361 10.5829 17.3425 10.55 17.3217C10.4849 17.2806 10.4203 17.2404 10.3562 17.2014C10.3236 17.1815 10.2925 17.1599 10.2632 17.1369C10.2291 17.122 10.1955 17.1049 10.1626 17.0856C10.0973 17.0474 10.033 17.0106 9.96982 16.9754C9.93737 16.9573 9.9064 16.9376 9.87695 16.9165C9.84334 16.9035 9.81012 16.8884 9.77746 16.8713C9.74543 16.8545 9.71388 16.8383 9.68283 16.8226C9.64639 16.8042 9.60948 16.7858 9.57213 16.7673C9.53412 16.7485 9.49794 16.7276 9.46365 16.7047C9.42424 16.6919 9.38522 16.6764 9.34684 16.6581C9.27227 16.6226 9.19634 16.5872 9.11922 16.5518C9.08029 16.5339 9.04317 16.5138 9.00792 16.4916C8.96782 16.4797 8.92806 16.4651 8.88886 16.4477C8.81219 16.4136 8.73462 16.3797 8.65632 16.346C8.61671 16.3289 8.57887 16.3095 8.54288 16.2881C8.50228 16.277 8.46195 16.2632 8.42212 16.2466C8.34404 16.2139 8.26545 16.1816 8.18652 16.1495C8.14642 16.1332 8.10805 16.1146 8.07149 16.0938C8.03056 16.0835 7.98984 16.0705 7.94957 16.0546C7.87032 16.0234 7.79092 15.9925 7.71153 15.962C7.67109 15.9465 7.63232 15.9286 7.59534 15.9085C7.55419 15.8991 7.51321 15.8868 7.47262 15.8717C7.3924 15.8418 7.31238 15.8125 7.23272 15.7837C7.192 15.769 7.1529 15.7519 7.11554 15.7325C7.07426 15.7239 7.03308 15.7125 6.99224 15.6982C6.91133 15.6699 6.83101 15.6422 6.75147 15.6153C6.71064 15.6015 6.67138 15.5853 6.63377 15.5668C6.59252 15.5591 6.55131 15.5486 6.51036 15.5353C6.42868 15.5087 6.34812 15.4829 6.26887 15.4582C6.22811 15.4455 6.18883 15.4303 6.15113 15.4129C6.11013 15.4063 6.06911 15.3969 6.02826 15.3848C5.94615 15.3603 5.86593 15.3371 5.78787 15.3152C5.74749 15.3039 5.70845 15.2902 5.67087 15.2743C5.6305 15.269 5.59002 15.2612 5.54962 15.2507C5.46747 15.2293 5.38875 15.2097 5.31375 15.192C5.27472 15.1827 5.23683 15.1713 5.20019 15.1578C5.16173 15.1546 5.12305 15.1492 5.08432 15.1413C5.00403 15.1249 4.93157 15.1118 4.86707 15.1017C4.83431 15.0966 4.8022 15.0899 4.77081 15.0817C4.74135 15.0822 4.71161 15.0813 4.68165 15.0791C4.65392 15.0771 4.63447 15.0765 4.62235 15.0765C4.5718 15.0765 4.51984 15.0756 4.46791 15.0742C4.41988 15.0729 4.37278 15.0682 4.32683 15.0602C4.28188 15.0644 4.23608 15.0655 4.18967 15.0633C4.13703 15.0609 4.08108 15.0581 4.02457 15.0553C3.99285 15.0538 3.96096 15.0522 3.92938 15.0507C3.88655 15.0486 3.84451 15.0438 3.80344 15.0364C3.76223 15.04 3.7203 15.041 3.67785 15.0392C3.59686 15.0359 3.51479 15.0329 3.43207 15.0306C3.39116 15.0295 3.35092 15.0258 3.3115 15.0198C3.27217 15.0243 3.23212 15.0265 3.1915 15.0261C3.11265 15.0254 3.03428 15.0256 2.95686 15.0268C2.91805 15.0274 2.87973 15.0258 2.84205 15.0219C2.80512 15.028 2.76743 15.0321 2.7291 15.0339C2.65383 15.0375 2.58097 15.0424 2.51089 15.0486C2.47572 15.0518 2.44082 15.053 2.40631 15.0524C2.37367 15.0607 2.34027 15.0673 2.30618 15.0722C2.23887 15.0819 2.17738 15.093 2.12173 15.1053C2.09472 15.1112 2.06771 15.116 2.04078 15.1196C2.01769 15.1293 1.99404 15.1382 1.96986 15.1463C1.94879 15.1533 1.93057 15.1601 1.91496 15.1664L1.91497 15.1775C1.91504 15.2164 1.91273 15.2547 1.90816 15.2923C1.91322 15.3292 1.91613 15.3667 1.91676 15.4048C1.91794 15.4775 1.91987 15.549 1.92295 15.6204C1.92447 15.6556 1.92401 15.6905 1.92166 15.7249C1.92807 15.7584 1.93271 15.7926 1.93546 15.8273C1.94071 15.8936 1.94729 15.9607 1.95555 16.0291C1.95961 16.0628 1.96182 16.0963 1.96225 16.1295C1.97111 16.1616 1.97835 16.1944 1.98385 16.2279C1.99438 16.292 2.00659 16.3579 2.02075 16.4261C2.02775 16.4598 2.03283 16.4935 2.03606 16.5269C2.04777 16.5587 2.05787 16.5914 2.06623 16.6249C2.08228 16.6892 2.10014 16.7557 2.12003 16.8247C2.12987 16.8587 2.13766 16.8929 2.1435 16.927C2.15792 16.9588 2.17069 16.9917 2.18171 17.0256C2.20289 17.0908 2.22587 17.1581 2.2508 17.2278C2.26309 17.2621 2.27324 17.2966 2.28132 17.3313C2.29803 17.363 2.31309 17.3959 2.32635 17.43C2.35189 17.4958 2.37911 17.5635 2.40811 17.6332C2.42247 17.6677 2.43459 17.7026 2.44455 17.7376C2.46319 17.7692 2.48015 17.8022 2.49529 17.8365C2.52453 17.9028 2.55529 17.9707 2.58768 18.0405C2.60368 18.0749 2.61739 18.1098 2.62888 18.145C2.64899 18.1764 2.66745 18.2092 2.68408 18.2434C2.70045 18.2772 2.71719 18.3113 2.73428 18.3458C2.75601 18.3897 2.77723 18.434 2.79799 18.4787C2.8188 18.5234 2.83574 18.569 2.84896 18.615C2.87359 18.6555 2.89543 18.6984 2.91413 18.7434C2.94958 18.8288 2.98388 18.9157 3.01718 19.0039C3.03357 19.0473 3.04651 19.0911 3.05614 19.135C3.07686 19.1747 3.09496 19.2164 3.11016 19.2598C3.13926 19.343 3.16781 19.4274 3.19589 19.5129C3.20986 19.5553 3.22059 19.5981 3.22823 19.6408C3.24679 19.68 3.26284 19.7208 3.27612 19.7633C3.30168 19.845 3.32701 19.9278 3.3522 20.0115C3.36477 20.0532 3.37426 20.0952 3.38081 20.137C3.39812 20.1757 3.413 20.2159 3.4252 20.2576C3.44879 20.3382 3.47237 20.4197 3.49599 20.502C3.50782 20.5432 3.51667 20.5845 3.52268 20.6257C3.53933 20.6639 3.5536 20.7036 3.56528 20.7448L3.63358 20.9859C3.64507 21.0265 3.65366 21.0672 3.6595 21.1078C3.6758 21.1455 3.6898 21.1846 3.70128 21.2251L3.76895 21.4631C3.78043 21.5033 3.78907 21.5436 3.79501 21.5839C3.81132 21.6211 3.82538 21.6599 3.83696 21.7C3.85953 21.7781 3.8824 21.8567 3.90563 21.9358C3.91733 21.9756 3.92624 22.0156 3.93248 22.0556C3.94902 22.0925 3.96334 22.1309 3.97524 22.1706C3.99842 22.248 4.02198 22.3259 4.04595 22.4042C4.05799 22.4435 4.0673 22.483 4.07397 22.5225C4.09079 22.5588 4.10546 22.5967 4.11776 22.6359C4.14178 22.7124 4.16624 22.7894 4.19116 22.8667C4.20374 22.9057 4.21361 22.945 4.22086 22.9842C4.23821 23.0202 4.25344 23.0577 4.26634 23.0966C4.29156 23.1727 4.31726 23.249 4.34347 23.3257C4.35663 23.3642 4.36712 23.403 4.37505 23.4418C4.3929 23.4772 4.40869 23.5142 4.42221 23.5525C4.44867 23.6276 4.47564 23.7029 4.50316 23.7785C4.51707 23.8167 4.52832 23.8552 4.53701 23.8938C4.55559 23.9289 4.57214 23.9655 4.58645 24.0035C4.61442 24.0779 4.64293 24.1524 4.67203 24.2272C4.68668 24.2649 4.69872 24.3029 4.70822 24.3411C4.72744 24.3755 4.74469 24.4115 4.75978 24.449C4.78933 24.5224 4.81946 24.596 4.85019 24.6698C4.86575 24.7072 4.87868 24.745 4.8891 24.7829C4.90918 24.8169 4.92733 24.8526 4.94334 24.8897C4.97451 24.962 5.00628 25.0345 5.03868 25.1071C5.05509 25.1439 5.06892 25.1811 5.08025 25.2186C5.10109 25.252 5.12005 25.2869 5.13693 25.3235C5.17005 25.3952 5.20379 25.467 5.23819 25.5389C5.25548 25.5751 5.27024 25.6118 5.28253 25.6488C5.30413 25.6814 5.32392 25.7157 5.3417 25.7517C5.3766 25.8221 5.41213 25.8927 5.44833 25.9633C5.46667 25.9991 5.48247 26.0355 5.4958 26.0723C5.51839 26.1044 5.5392 26.1383 5.55804 26.1738C5.59475 26.243 5.63211 26.3122 5.67016 26.3815C5.68945 26.4167 5.70624 26.4525 5.72059 26.4888C5.74403 26.5202 5.76575 26.5533 5.78555 26.5882C5.82431 26.6565 5.86375 26.7247 5.90388 26.793C5.92412 26.8275 5.94191 26.8627 5.95728 26.8984C5.98153 26.929 6.00414 26.9614 6.02489 26.9956C6.06567 27.0627 6.10715 27.1298 6.14933 27.197C6.17058 27.2308 6.18939 27.2654 6.20581 27.3006C6.23095 27.3305 6.2545 27.3621 6.27626 27.3956C6.29776 27.4288 6.31945 27.4619 6.34131 27.495L6.40849 27.5961C6.43172 27.6309 6.45231 27.6666 6.4703 27.7031C6.4975 27.7335 6.52301 27.766 6.54661 27.8006C6.59222 27.8673 6.63862 27.9344 6.6858 28.0019C6.70979 28.0362 6.73115 28.0715 6.74993 28.1076C6.7778 28.1374 6.80403 28.1694 6.82839 28.2034C6.8755 28.2693 6.92334 28.3354 6.97191 28.4017C6.99655 28.4354 7.01861 28.4701 7.03812 28.5056C7.06652 28.5348 7.09334 28.566 7.11835 28.5994C7.16709 28.6645 7.21651 28.7297 7.26663 28.795C7.29193 28.828 7.3147 28.8621 7.33496 28.8971C7.3639 28.9255 7.39133 28.9561 7.417 28.9888C7.4673 29.0529 7.51826 29.117 7.56986 29.1812C7.59585 29.2136 7.61934 29.2471 7.64035 29.2815C7.66987 29.3092 7.69792 29.3391 7.72428 29.3711C7.77609 29.434 7.82853 29.497 7.8816 29.5599C7.90828 29.5915 7.93251 29.6244 7.9543 29.6582C7.9844 29.6852 8.01309 29.7143 8.04015 29.7456C8.09346 29.8073 8.14736 29.869 8.20185 29.9305C8.22925 29.9614 8.25424 29.9936 8.27682 30.0268C8.30751 30.053 8.33686 30.0814 8.36464 30.112C8.41942 30.1723 8.47476 30.2325 8.53068 30.2925C8.55881 30.3227 8.58455 30.3542 8.60794 30.3868C8.63924 30.4121 8.66927 30.4397 8.69778 30.4695C8.75401 30.5284 8.8108 30.587 8.86813 30.6454C8.897 30.6748 8.92353 30.7056 8.94774 30.7375C8.97965 30.762 9.01034 30.7887 9.0396 30.8177C9.09729 30.8749 9.15551 30.9319 9.21427 30.9886C9.24388 31.0172 9.2712 31.0471 9.29624 31.0784C9.32877 31.1019 9.36014 31.1278 9.39014 31.1559C9.44929 31.2114 9.50895 31.2666 9.56912 31.3215C9.59949 31.3491 9.62761 31.3783 9.6535 31.4087C9.68663 31.4313 9.71869 31.4563 9.74944 31.4835C9.81003 31.5371 9.87113 31.5904 9.93272 31.6434C9.96384 31.6701 9.99277 31.6984 10.0195 31.728C10.0532 31.7495 10.086 31.7735 10.1175 31.7997C10.1795 31.8514 10.2421 31.9027 10.3051 31.9536C10.3369 31.9793 10.3667 32.0066 10.3943 32.0353C10.4286 32.0558 10.462 32.0787 10.4943 32.1039C10.5578 32.1535 10.6217 32.2027 10.6861 32.2514C10.7188 32.276 10.7493 32.3023 10.7778 32.3301C10.8127 32.3494 10.8467 32.3711 10.8798 32.3952C10.9447 32.4426 11.01 32.4895 11.0759 32.5359C11.1092 32.5594 11.1406 32.5847 11.1699 32.6114C11.2054 32.6295 11.2401 32.65 11.2738 32.673C11.3401 32.718 11.4069 32.7626 11.4741 32.8065C11.5082 32.8288 11.5403 32.8529 11.5705 32.8786C11.6065 32.8954 11.6419 32.9146 11.6763 32.9363C11.744 32.9789 11.8122 33.0209 11.8807 33.0623C11.9155 33.0833 11.9485 33.1062 11.9795 33.1307C12.016 33.1462 12.052 33.1641 12.0872 33.1844C12.1562 33.2244 12.2256 33.2638 12.2955 33.3025C12.331 33.3222 12.3647 33.3437 12.3966 33.367C12.4336 33.3811 12.4701 33.3976 12.506 33.4166C12.5763 33.4538 12.647 33.4903 12.7181 33.5263C12.7543 33.5445 12.7888 33.5647 12.8215 33.5867C12.859 33.5993 12.8961 33.6143 12.9326 33.6319C13.0041 33.6662 13.076 33.6998 13.1483 33.7328C13.1851 33.7496 13.2204 33.7684 13.2539 33.789C13.2918 33.8001 13.3295 33.8136 13.3666 33.8296C13.4392 33.8609 13.5122 33.8915 13.5857 33.9214C13.6231 33.9366 13.659 33.9539 13.6933 33.973C13.7315 33.9825 13.7696 33.9944 13.8073 34.0089C13.881 34.0371 13.9552 34.0646 14.0297 34.0913C14.0676 34.1049 14.1042 34.1206 14.1392 34.1383C14.1777 34.1461 14.2161 34.1564 14.2543 34.1692C14.3291 34.1942 14.4044 34.2185 14.48 34.242C14.5184 34.2539 14.5554 34.268 14.5911 34.2841C14.6299 34.2903 14.6686 34.2989 14.7072 34.3099C14.7831 34.3317 14.8593 34.3527 14.9359 34.3729C14.9747 34.3831 15.0123 34.3955 15.0486 34.41C15.0874 34.4144 15.1265 34.4213 15.1654 34.4306C15.2422 34.4491 15.3194 34.4667 15.397 34.4835C15.4361 34.492 15.4741 34.5027 15.5109 34.5155C15.5499 34.5182 15.5891 34.5233 15.6283 34.5309C15.7058 34.5459 15.7838 34.5601 15.8621 34.5735C15.9015 34.5802 15.94 34.5892 15.9773 34.6003C16.0163 34.6013 16.0557 34.6047 16.0952 34.6105C16.1732 34.622 16.2515 34.6327 16.3303 34.6425C16.3701 34.6475 16.409 34.6548 16.447 34.6643C16.4861 34.6636 16.5257 34.6652 16.5656 34.6692C16.6438 34.6772 16.7224 34.6844 16.8014 34.6907C16.8416 34.694 16.881 34.6996 16.9195 34.7074C16.9588 34.7049 16.9986 34.7048 17.0389 34.7071C17.1171 34.7116 17.1957 34.7153 17.2748 34.7181C17.3152 34.7196 17.3549 34.7235 17.3937 34.7296C17.4329 34.7254 17.4727 34.7235 17.5131 34.7241C17.5917 34.7252 17.6706 34.7254 17.7499 34.7248C17.7902 34.7245 17.83 34.7267 17.869 34.7311C17.9078 34.7253 17.9475 34.7217 17.9878 34.7205C18.0669 34.7182 18.1464 34.7151 18.2264 34.7111C18.2665 34.7091 18.3062 34.7095 18.3452 34.7123C18.3837 34.7048 18.423 34.6996 18.4631 34.6967C18.5424 34.6911 18.6221 34.6846 18.7022 34.6773C18.7423 34.6736 18.7821 34.6724 18.8213 34.6736C18.8595 34.6645 18.8987 34.6576 18.9387 34.6531C19.0174 34.6443 19.0965 34.6346 19.176 34.6241C19.1977 34.6212 19.2193 34.6191 19.2408 34.6177C19.2407 34.6115 19.2406 34.6053 19.2406 34.5992V34.3679C19.2406 34.3288 19.2431 34.2902 19.2478 34.2523C19.2431 34.2144 19.2406 34.1758 19.2406 34.1367V33.9054C19.2406 33.8663 19.2431 33.8277 19.2478 33.7898C19.2431 33.7519 19.2406 33.7133 19.2406 33.6742V33.4429C19.2406 33.4038 19.2431 33.3652 19.2478 33.3273C19.2431 33.2894 19.2406 33.2508 19.2406 33.2117V33.1362L19.1469 33.0739C19.1117 33.0504 19.0786 33.0251 19.0476 32.9981C19.0106 32.9797 18.9745 32.9588 18.9393 32.9353L18.7328 32.7967C18.6977 32.7732 18.6647 32.7477 18.6339 32.7206C18.5971 32.7021 18.561 32.6811 18.526 32.6574L18.3194 32.5176C18.2845 32.4939 18.2516 32.4683 18.2208 32.441C18.184 32.4224 18.1481 32.4012 18.1131 32.3774L17.907 32.2367C17.8721 32.2128 17.8393 32.187 17.8087 32.1596C17.7719 32.1408 17.736 32.1194 17.7011 32.0954L17.4953 31.9536C17.4605 31.9296 17.4278 31.9037 17.3973 31.8762C17.3607 31.8573 17.3249 31.8358 17.2902 31.8117L17.0858 31.6695C17.0511 31.6454 17.0185 31.6193 16.9881 31.5917C16.9516 31.5725 16.9159 31.5509 16.8812 31.5266L16.6768 31.383C16.6421 31.3586 16.6096 31.3323 16.5793 31.3044C16.5427 31.2851 16.507 31.2632 16.4724 31.2387L16.2689 31.0941C16.2344 31.0695 16.202 31.0431 16.1719 31.0151C16.1355 30.9956 16.0999 30.9735 16.0655 30.9488C15.9979 30.9004 15.9301 30.8517 15.8623 30.8027C15.8278 30.7779 15.7956 30.7513 15.7656 30.723C15.7292 30.7032 15.6937 30.6809 15.6594 30.6559C15.5919 30.6069 15.5243 30.5577 15.4569 30.5084C15.4226 30.4834 15.3905 30.4564 15.3606 30.4279C15.3243 30.4079 15.2889 30.3852 15.2547 30.36C15.1872 30.3103 15.1199 30.2605 15.0529 30.2107C15.0187 30.1853 14.9868 30.1581 14.9571 30.1294C14.9209 30.109 14.8857 30.0861 14.8516 30.0605C14.7843 30.01 14.7172 29.9595 14.6506 29.9091C14.6165 29.8833 14.5847 29.8557 14.5551 29.8265C14.5189 29.8057 14.4837 29.7823 14.4498 29.7563C14.3825 29.7049 14.3157 29.6535 14.2495 29.6023C14.2157 29.5761 14.1841 29.5481 14.1548 29.5185C14.1188 29.4972 14.0838 29.4734 14.05 29.447C13.9831 29.3945 13.9168 29.3422 13.8514 29.2901C13.8175 29.2632 13.786 29.2345 13.7569 29.2043C13.7208 29.1823 13.6859 29.1577 13.6522 29.1305C13.585 29.0762 13.5188 29.0223 13.4537 28.9687C13.42 28.941 13.3888 28.9115 13.36 28.8805C13.3241 28.8577 13.2893 28.8322 13.2558 28.8041L13.1584 28.7217L13.0594 28.6369C13.0259 28.608 12.9948 28.5774 12.9664 28.5451C12.9305 28.5213 12.8958 28.4948 12.8626 28.4656C12.7978 28.4086 12.733 28.3511 12.6682 28.293C12.6354 28.2636 12.6052 28.2326 12.5776 28.2C12.5424 28.1757 12.5084 28.1487 12.476 28.1192C12.4125 28.0613 12.3491 28.0029 12.2858 27.9443C12.2537 27.9145 12.2242 27.8832 12.1972 27.8504C12.1626 27.8256 12.1292 27.7983 12.0974 27.7684C12.035 27.7097 11.9727 27.6507 11.9107 27.5916C11.8792 27.5616 11.8502 27.5299 11.8238 27.4969C11.7897 27.4718 11.7568 27.4441 11.7255 27.4139C11.6639 27.3545 11.6026 27.295 11.5416 27.2354C11.5106 27.2051 11.4821 27.1732 11.4561 27.14C11.4223 27.1145 11.3899 27.0865 11.359 27.0561C11.2981 26.9959 11.2376 26.9359 11.1776 26.8759C11.1469 26.8454 11.1188 26.8132 11.0933 26.7798C11.0598 26.7541 11.0277 26.7259 10.9972 26.6951C10.9369 26.6344 10.8771 26.5738 10.818 26.5136C10.7877 26.4828 10.7599 26.4505 10.7348 26.4169C10.7016 26.3909 10.6699 26.3625 10.6397 26.3315C10.5799 26.2701 10.5208 26.2091 10.4624 26.1487C10.4324 26.1177 10.405 26.0852 10.3802 26.0515C10.3473 26.0252 10.3158 25.9965 10.286 25.9654C10.2265 25.9032 10.1679 25.8419 10.1104 25.7813C10.0807 25.7501 10.0535 25.7174 10.029 25.6834C9.99632 25.6569 9.96509 25.628 9.93551 25.5966C9.87617 25.5337 9.81811 25.4719 9.76142 25.4113C9.73198 25.3799 9.70513 25.347 9.68085 25.3129C9.64844 25.2862 9.61744 25.257 9.58812 25.2255C9.52881 25.1616 9.47131 25.0995 9.41577 25.0392C9.3867 25.0077 9.36021 24.9747 9.33628 24.9406C9.30421 24.9138 9.27358 24.8845 9.24463 24.8529C9.18422 24.7869 9.12675 24.7238 9.07244 24.664C9.04366 24.6323 9.01746 24.5992 8.99383 24.565C8.96203 24.5379 8.93169 24.5085 8.90304 24.4767C8.83982 24.4065 8.7828 24.3429 8.73255 24.2866C8.70354 24.2541 8.67722 24.2202 8.65355 24.1851C8.62134 24.1573 8.59065 24.1269 8.56175 24.0942L8.49928 24.0232L8.48283 24.0044L8.47721 23.998L8.53773 23.9458C8.42846 23.6011 8.52648 23.2101 8.81976 22.9564C9.1192 22.6974 9.53672 22.6554 9.87365 22.818L9.93028 22.7702L9.93456 22.7751L9.94905 22.7917L10.0073 22.858C10.0349 22.8892 10.0601 22.9218 10.0828 22.9554C10.1136 22.9821 10.1431 23.011 10.171 23.0422C10.2194 23.0965 10.2746 23.158 10.3358 23.2261C10.3636 23.2569 10.3889 23.289 10.4119 23.3222C10.4427 23.3485 10.4722 23.377 10.5001 23.4077C10.5529 23.4658 10.6087 23.5271 10.6674 23.5912C10.6955 23.622 10.7212 23.654 10.7445 23.6872C10.7757 23.7133 10.8055 23.7417 10.8337 23.7723C10.8586 23.7993 10.8839 23.8267 10.9096 23.8545C10.9396 23.8869 10.9702 23.9199 11.0013 23.9534C11.0298 23.9841 11.0558 24.0161 11.0794 24.0492C11.1109 24.0752 11.1411 24.1035 11.1697 24.1341C11.2248 24.1929 11.2812 24.253 11.3389 24.3141C11.3676 24.3445 11.3939 24.3764 11.4177 24.4093C11.4494 24.435 11.4798 24.4631 11.5086 24.4934C11.5645 24.5522 11.6213 24.6117 11.679 24.672C11.7079 24.7021 11.7344 24.7337 11.7585 24.7664C11.7904 24.7919 11.821 24.8196 11.85 24.8497C11.9065 24.9082 11.9638 24.9672 12.0217 25.0266C12.0508 25.0565 12.0775 25.0878 12.1019 25.1203C12.1339 25.1455 12.1647 25.1729 12.194 25.2027C12.2511 25.2608 12.3088 25.3192 12.367 25.3778C12.3963 25.4074 12.4233 25.4384 12.4479 25.4706C12.4802 25.4955 12.5112 25.5226 12.5407 25.552C12.5985 25.6097 12.6566 25.6674 12.7151 25.7252C12.7447 25.7544 12.772 25.7851 12.7969 25.8169C12.8293 25.8414 12.8605 25.8681 12.8903 25.8972C12.9487 25.9542 13.0073 26.0112 13.0661 26.0679C13.096 26.0967 13.1235 26.127 13.1487 26.1585C13.1813 26.1825 13.2127 26.2087 13.2427 26.2373C13.3018 26.2936 13.3609 26.3496 13.4201 26.4053C13.4502 26.4336 13.4781 26.4634 13.5036 26.4944C13.5364 26.5179 13.5681 26.5437 13.5984 26.5717C13.6581 26.6271 13.7179 26.6821 13.7775 26.7364C13.8079 26.7642 13.836 26.7934 13.8619 26.8239C13.895 26.8467 13.9269 26.8718 13.9575 26.8992C14.018 26.9535 14.0783 27.007 14.1383 27.0599C14.169 27.0868 14.1975 27.1153 14.2238 27.1451C14.257 27.1671 14.2892 27.1914 14.3201 27.218L14.4108 27.2957L14.4997 27.3709C14.5304 27.3967 14.559 27.424 14.5856 27.4527C14.6188 27.4737 14.651 27.497 14.682 27.5226C14.7424 27.5723 14.8041 27.6226 14.8671 27.6735C14.8987 27.699 14.9283 27.7261 14.9557 27.7546C14.9896 27.7753 15.0226 27.7983 15.0545 27.8236C15.1163 27.8728 15.1791 27.9223 15.2428 27.9722C15.2749 27.9974 15.3049 28.0242 15.3328 28.0524C15.3672 28.0726 15.4006 28.0953 15.4329 28.1203C15.4961 28.1692 15.5601 28.2184 15.6246 28.2678C15.6573 28.2927 15.6878 28.3194 15.7162 28.3474C15.751 28.3674 15.7849 28.3899 15.8177 28.4147C15.8819 28.4632 15.9466 28.512 16.0117 28.5608C16.0446 28.5854 16.0755 28.6118 16.1042 28.6397C16.1392 28.6594 16.1734 28.6815 16.2064 28.7061C16.2714 28.7543 16.3367 28.8026 16.4022 28.8509C16.4354 28.8754 16.4666 28.9016 16.4957 28.9293C16.531 28.9488 16.5654 28.9708 16.5988 28.9952C16.6644 29.0431 16.7301 29.091 16.7959 29.1388C16.8294 29.1631 16.8608 29.1892 16.8901 29.2168C16.9256 29.2361 16.9603 29.2578 16.9938 29.282L17.1924 29.4247C17.2261 29.4489 17.2577 29.4747 17.2871 29.5022C17.3228 29.5213 17.3576 29.5428 17.3913 29.5668L17.5907 29.7084C17.6246 29.7324 17.6564 29.7582 17.6861 29.7856C17.722 29.8045 17.757 29.8259 17.791 29.8499L17.9916 29.9908C18.0256 30.0146 18.0575 30.0402 18.0874 30.0674C18.1233 30.0862 18.1583 30.1074 18.1924 30.1311L18.3933 30.2709C18.4274 30.2945 18.4595 30.32 18.4895 30.347C18.5255 30.3657 18.5607 30.3868 18.5949 30.4104L18.7973 30.5498C18.8316 30.5734 18.8639 30.5988 18.8941 30.6258C18.9302 30.6443 18.9656 30.6653 19 30.6888L19.2028 30.8273C19.2183 30.8379 19.2334 30.8488 19.2481 30.8601C19.2432 30.8213 19.2406 30.7817 19.2406 30.7416V30.4893C19.2406 30.4465 19.2435 30.4044 19.2491 30.3632C19.2435 30.3219 19.2406 30.2798 19.2406 30.237V29.9848C19.2406 29.942 19.2435 29.8999 19.2491 29.8586C19.2435 29.8174 19.2406 29.7753 19.2406 29.7325V29.4802C19.2406 29.4375 19.2435 29.3953 19.2491 29.3541C19.2435 29.3128 19.2406 29.2707 19.2406 29.228V28.9757C19.2406 28.9329 19.2435 28.8908 19.2491 28.8496C19.2435 28.8083 19.2406 28.7662 19.2406 28.7234V28.4712C19.2406 28.4284 19.2435 28.3863 19.2491 28.345C19.2435 28.3038 19.2406 28.2617 19.2406 28.2189V27.9666C19.2406 27.9238 19.2435 27.8817 19.2491 27.8405C19.2472 27.8262 19.2456 27.8119 19.2443 27.7974C19.2071 27.7877 19.171 27.7759 19.1361 27.7623C19.0898 27.757 19.0433 27.7482 18.9969 27.736C18.9069 27.7121 18.8161 27.6865 18.7248 27.6592C18.6788 27.6454 18.6346 27.6285 18.5924 27.6089C18.5465 27.6006 18.5006 27.5889 18.455 27.5737C18.3662 27.544 18.2771 27.5126 18.1877 27.4793C18.1425 27.4625 18.0993 27.4428 18.0584 27.4203C18.0129 27.409 17.9677 27.3942 17.923 27.3759C17.8359 27.3402 17.7486 27.3027 17.6614 27.2633C17.6172 27.2434 17.5753 27.2206 17.5358 27.1952C17.491 27.1807 17.4466 27.1628 17.4031 27.1413C17.3181 27.0993 17.2333 27.0554 17.1487 27.0097C17.1058 26.9865 17.0654 26.9605 17.0276 26.9322C16.9836 26.9143 16.9405 26.8931 16.8984 26.8683C16.8162 26.8197 16.7344 26.7693 16.653 26.7169C16.6118 26.6904 16.5733 26.6612 16.5376 26.6298C16.4948 26.6085 16.4532 26.5838 16.413 26.5555C16.3343 26.5003 16.2563 26.4432 16.179 26.384C16.1398 26.354 16.1036 26.3216 16.0704 26.2872C16.0293 26.2623 15.9896 26.2341 15.9517 26.2025C15.8775 26.1406 15.8041 26.0767 15.7318 26.0109C15.6951 25.9775 15.6616 25.9419 15.6314 25.9045C15.5924 25.8761 15.5551 25.8444 15.5199 25.8094C15.4511 25.7411 15.3834 25.6707 15.3169 25.5984C15.2832 25.5618 15.2531 25.5234 15.2263 25.4835C15.19 25.4517 15.1556 25.4167 15.1237 25.3787C15.0614 25.3045 15.0003 25.2284 14.9406 25.1504C14.9104 25.1109 14.8839 25.0698 14.8609 25.0276C14.8276 24.9926 14.7966 24.9547 14.7682 24.9139C14.713 24.8345 14.6592 24.7532 14.6069 24.67C14.5804 24.628 14.5577 24.5847 14.5387 24.5406C14.5088 24.5028 14.4813 24.4623 14.4569 24.4192C14.4093 24.3353 14.3632 24.2498 14.3187 24.1626C14.2964 24.1187 14.2779 24.074 14.263 24.0287C14.2368 23.9888 14.2133 23.9465 14.193 23.9018C14.1534 23.8148 14.1153 23.7263 14.0789 23.6363C14.0605 23.5909 14.046 23.5449 14.0351 23.4987C14.0125 23.4568 13.9928 23.4128 13.9764 23.3667C13.9445 23.2773 13.9142 23.1864 13.8855 23.0941C13.8712 23.048 13.8606 23.0017 13.8536 22.9554C13.8348 22.9125 13.819 22.8677 13.8065 22.8211C13.7942 22.7751 13.7822 22.7287 13.7706 22.682L13.7375 22.5467C13.7264 22.5008 13.7189 22.4548 13.7149 22.4091C13.698 22.3663 13.6842 22.3218 13.6736 22.2757C13.6527 22.1851 13.6324 22.0945 13.6126 22.0039C13.6025 21.9576 13.596 21.9115 13.593 21.8657C13.5771 21.8225 13.5642 21.7777 13.5546 21.7314C13.5358 21.6403 13.5175 21.5492 13.4997 21.4581C13.4907 21.4117 13.4852 21.3654 13.4833 21.3195C13.4683 21.276 13.4565 21.2308 13.4479 21.1843C13.4312 21.0928 13.4149 21.0013 13.3992 20.9098C13.3912 20.8632 13.3869 20.8167 13.3859 20.7708C13.372 20.7269 13.3611 20.6815 13.3537 20.6348C13.339 20.5429 13.3249 20.451 13.3113 20.3592C13.3044 20.3123 13.3011 20.2658 13.3012 20.2198Z" fill="white"/>
</svg>
