<svg width="65" height="75" viewBox="0 0 65 75" fill="none" xmlns="http://www.w3.org/2000/svg">
<path d="M5.872 71.08C5.04 71.08 4.288 70.888 3.616 70.504C2.95467 70.12 2.42667 69.5973 2.032 68.936C1.648 68.264 1.45067 67.512 1.44 66.68V59.128C1.44 58.936 1.49333 58.7867 1.6 58.68C1.71733 58.5627 1.872 58.504 2.064 58.504C2.24533 58.504 2.38933 58.5627 2.496 58.68C2.61333 58.7867 2.672 58.936 2.672 59.128V63.832C3.024 63.3307 3.488 62.9307 4.064 62.632C4.65067 62.3227 5.30133 62.168 6.016 62.168C6.83733 62.168 7.57333 62.3653 8.224 62.76C8.87467 63.144 9.38667 63.672 9.76 64.344C10.144 65.016 10.336 65.7733 10.336 66.616C10.336 67.4693 10.1387 68.232 9.744 68.904C9.36 69.576 8.832 70.1093 8.16 70.504C7.488 70.888 6.72533 71.08 5.872 71.08ZM5.872 69.96C6.49067 69.96 7.04533 69.816 7.536 69.528C8.02667 69.2293 8.41067 68.8293 8.688 68.328C8.976 67.8267 9.12 67.256 9.12 66.616C9.12 65.9867 8.976 65.4213 8.688 64.92C8.41067 64.408 8.02667 64.008 7.536 63.72C7.04533 63.432 6.49067 63.288 5.872 63.288C5.264 63.288 4.71467 63.432 4.224 63.72C3.73333 64.008 3.34933 64.408 3.072 64.92C2.79467 65.4213 2.656 65.9867 2.656 66.616C2.656 67.256 2.79467 67.8267 3.072 68.328C3.34933 68.8293 3.73333 69.2293 4.224 69.528C4.71467 69.816 5.264 69.96 5.872 69.96ZM13.2645 65.608C13.2965 64.9467 13.4672 64.3547 13.7765 63.832C14.0965 63.3093 14.5072 62.8987 15.0085 62.6C15.5205 62.3013 16.0858 62.152 16.7045 62.152C17.1952 62.152 17.5738 62.2213 17.8405 62.36C18.1072 62.4987 18.2085 62.7013 18.1445 62.968C18.1018 63.128 18.0272 63.2347 17.9205 63.288C17.8245 63.3413 17.7018 63.3627 17.5525 63.352C17.4138 63.3413 17.2538 63.3307 17.0725 63.32C16.4752 63.2667 15.9418 63.3307 15.4725 63.512C15.0138 63.6827 14.6458 63.9493 14.3685 64.312C14.1018 64.6747 13.9685 65.1067 13.9685 65.608H13.2645ZM13.3605 71C13.1685 71 13.0192 70.9467 12.9125 70.84C12.8058 70.7333 12.7525 70.584 12.7525 70.392V62.856C12.7525 62.664 12.8058 62.5147 12.9125 62.408C13.0192 62.3013 13.1685 62.248 13.3605 62.248C13.5525 62.248 13.7018 62.3013 13.8085 62.408C13.9152 62.5147 13.9685 62.664 13.9685 62.856V70.392C13.9685 70.584 13.9152 70.7333 13.8085 70.84C13.7018 70.9467 13.5525 71 13.3605 71ZM23.424 71.08C22.5707 71.08 21.808 70.888 21.136 70.504C20.464 70.12 19.936 69.592 19.552 68.92C19.168 68.248 18.976 67.4853 18.976 66.632C18.976 65.768 19.168 65 19.552 64.328C19.936 63.656 20.464 63.128 21.136 62.744C21.808 62.36 22.5707 62.168 23.424 62.168C24.2773 62.168 25.0347 62.36 25.696 62.744C26.368 63.128 26.896 63.656 27.28 64.328C27.664 65 27.8613 65.768 27.872 66.632C27.872 67.4853 27.6747 68.248 27.28 68.92C26.896 69.592 26.368 70.12 25.696 70.504C25.0347 70.888 24.2773 71.08 23.424 71.08ZM23.424 69.96C24.0427 69.96 24.5973 69.816 25.088 69.528C25.5787 69.24 25.9627 68.8453 26.24 68.344C26.5173 67.8427 26.656 67.272 26.656 66.632C26.656 65.992 26.5173 65.4213 26.24 64.92C25.9627 64.408 25.5787 64.008 25.088 63.72C24.5973 63.432 24.0427 63.288 23.424 63.288C22.8053 63.288 22.2507 63.432 21.76 63.72C21.2693 64.008 20.88 64.408 20.592 64.92C20.3147 65.4213 20.176 65.992 20.176 66.632C20.176 67.272 20.3147 67.8427 20.592 68.344C20.88 68.8453 21.2693 69.24 21.76 69.528C22.2507 69.816 22.8053 69.96 23.424 69.96ZM33.6921 71C33.1268 71 32.6201 70.8667 32.1721 70.6C31.7348 70.3333 31.3881 69.9707 31.1321 69.512C30.8761 69.0427 30.7481 68.5093 30.7481 67.912V60.088C30.7481 59.9067 30.8015 59.7573 30.9081 59.64C31.0255 59.5227 31.1748 59.464 31.3561 59.464C31.5375 59.464 31.6868 59.5227 31.8041 59.64C31.9215 59.7573 31.9801 59.9067 31.9801 60.088V67.912C31.9801 68.456 32.1401 68.904 32.4601 69.256C32.7801 69.5973 33.1908 69.768 33.6921 69.768H34.1241C34.2948 69.768 34.4335 69.8267 34.5401 69.944C34.6468 70.0613 34.7001 70.2107 34.7001 70.392C34.7001 70.5733 34.6361 70.7227 34.5081 70.84C34.3801 70.9467 34.2201 71 34.0281 71H33.6921ZM29.7081 63.64C29.5481 63.64 29.4148 63.592 29.3081 63.496C29.2015 63.3893 29.1481 63.2613 29.1481 63.112C29.1481 62.952 29.2015 62.824 29.3081 62.728C29.4148 62.6213 29.5481 62.568 29.7081 62.568H33.7881C33.9481 62.568 34.0815 62.6213 34.1881 62.728C34.2948 62.824 34.3481 62.952 34.3481 63.112C34.3481 63.2613 34.2948 63.3893 34.1881 63.496C34.0815 63.592 33.9481 63.64 33.7881 63.64H29.7081ZM40.5616 71.08C39.7403 71.08 39.0043 70.888 38.3536 70.504C37.703 70.1093 37.1856 69.576 36.8016 68.904C36.4283 68.232 36.2416 67.4747 36.2416 66.632C36.2416 65.7787 36.4336 65.016 36.8176 64.344C37.2123 63.672 37.7456 63.144 38.4176 62.76C39.0896 62.3653 39.847 62.168 40.6896 62.168C41.5323 62.168 42.2843 62.3653 42.9456 62.76C43.6176 63.144 44.1456 63.672 44.5296 64.344C44.9243 65.016 45.127 65.7787 45.1376 66.632L44.6416 67.016C44.6416 67.784 44.4603 68.4773 44.0976 69.096C43.7456 69.704 43.2603 70.1893 42.6416 70.552C42.0336 70.904 41.3403 71.08 40.5616 71.08ZM40.6896 69.96C41.3083 69.96 41.8576 69.816 42.3376 69.528C42.8283 69.24 43.2123 68.8453 43.4896 68.344C43.7776 67.832 43.9216 67.2613 43.9216 66.632C43.9216 65.992 43.7776 65.4213 43.4896 64.92C43.2123 64.4187 42.8283 64.024 42.3376 63.736C41.8576 63.4373 41.3083 63.288 40.6896 63.288C40.0816 63.288 39.5323 63.4373 39.0416 63.736C38.551 64.024 38.1616 64.4187 37.8736 64.92C37.5856 65.4213 37.4416 65.992 37.4416 66.632C37.4416 67.2613 37.5856 67.832 37.8736 68.344C38.1616 68.8453 38.551 69.24 39.0416 69.528C39.5323 69.816 40.0816 69.96 40.6896 69.96ZM44.5136 71C44.3323 71 44.183 70.9467 44.0656 70.84C43.9483 70.7227 43.8896 70.5733 43.8896 70.392V67.656L44.1936 66.392L45.1376 66.632V70.392C45.1376 70.5733 45.079 70.7227 44.9616 70.84C44.8443 70.9467 44.695 71 44.5136 71ZM47.8218 71.256C47.5658 71.256 47.3471 71.1653 47.1658 70.984C46.9844 70.8027 46.8938 70.584 46.8938 70.328C46.8938 70.0613 46.9844 69.8373 47.1658 69.656C47.3578 69.4747 47.5764 69.384 47.8218 69.384C48.0778 69.384 48.2964 69.48 48.4778 69.672C48.6591 69.8533 48.7498 70.072 48.7498 70.328C48.7498 70.5733 48.6591 70.792 48.4778 70.984C48.3071 71.1653 48.0884 71.256 47.8218 71.256ZM54.8429 71.08C54.0215 71.08 53.2855 70.888 52.6349 70.504C51.9842 70.1093 51.4669 69.576 51.0829 68.904C50.7095 68.232 50.5229 67.4747 50.5229 66.632C50.5229 65.7787 50.7149 65.016 51.0989 64.344C51.4935 63.672 52.0269 63.144 52.6989 62.76C53.3709 62.3653 54.1282 62.168 54.9709 62.168C55.8135 62.168 56.5655 62.3653 57.2269 62.76C57.8989 63.144 58.4269 63.672 58.8109 64.344C59.2055 65.016 59.4082 65.7787 59.4189 66.632L58.9229 67.016C58.9229 67.784 58.7415 68.4773 58.3789 69.096C58.0269 69.704 57.5415 70.1893 56.9229 70.552C56.3149 70.904 55.6215 71.08 54.8429 71.08ZM54.9709 69.96C55.5895 69.96 56.1389 69.816 56.6189 69.528C57.1095 69.24 57.4935 68.8453 57.7709 68.344C58.0589 67.832 58.2029 67.2613 58.2029 66.632C58.2029 65.992 58.0589 65.4213 57.7709 64.92C57.4935 64.4187 57.1095 64.024 56.6189 63.736C56.1389 63.4373 55.5895 63.288 54.9709 63.288C54.3629 63.288 53.8135 63.4373 53.3229 63.736C52.8322 64.024 52.4429 64.4187 52.1549 64.92C51.8669 65.4213 51.7229 65.992 51.7229 66.632C51.7229 67.2613 51.8669 67.832 52.1549 68.344C52.4429 68.8453 52.8322 69.24 53.3229 69.528C53.8135 69.816 54.3629 69.96 54.9709 69.96ZM58.7949 71C58.6135 71 58.4642 70.9467 58.3469 70.84C58.2295 70.7227 58.1709 70.5733 58.1709 70.392V67.656L58.4749 66.392L59.4189 66.632V70.392C59.4189 70.5733 59.3602 70.7227 59.2429 70.84C59.1255 70.9467 58.9762 71 58.7949 71ZM62.695 71C62.503 71 62.3483 70.9467 62.231 70.84C62.1243 70.7227 62.071 70.568 62.071 70.376V62.872C62.071 62.68 62.1243 62.5307 62.231 62.424C62.3483 62.3067 62.503 62.248 62.695 62.248C62.8763 62.248 63.0203 62.3067 63.127 62.424C63.2443 62.5307 63.303 62.68 63.303 62.872V70.376C63.303 70.568 63.2443 70.7227 63.127 70.84C63.0203 70.9467 62.8763 71 62.695 71ZM62.679 60.584C62.4443 60.584 62.2417 60.4987 62.071 60.328C61.9003 60.1573 61.815 59.9493 61.815 59.704C61.815 59.4373 61.9003 59.2293 62.071 59.08C62.2523 58.92 62.4603 58.84 62.695 58.84C62.919 58.84 63.1163 58.92 63.287 59.08C63.4683 59.2293 63.559 59.4373 63.559 59.704C63.559 59.9493 63.4737 60.1573 63.303 60.328C63.1323 60.4987 62.9243 60.584 62.679 60.584Z" fill="#298D6F"/>
<path fill-rule="evenodd" clip-rule="evenodd" d="M36.5703 0.0111921C36.661 -0.00272604 36.7551 -0.00396018 36.8507 0.00916182C37.0141 0.0316149 37.1697 0.0757177 37.3162 0.134163C37.381 0.159984 37.4413 0.191986 37.4968 0.229197C37.5566 0.25011 37.6152 0.277226 37.6717 0.310757C37.7225 0.340917 37.7727 0.372788 37.8223 0.406176L37.9301 0.478717C37.9667 0.503352 38.001 0.530046 38.033 0.558533C38.0716 0.577567 38.1093 0.599395 38.1459 0.624066L38.362 0.769864C38.3988 0.794654 38.4332 0.821514 38.4652 0.850177C38.5039 0.869365 38.5417 0.891366 38.5784 0.91623L38.7949 1.06328C38.8317 1.08831 38.8661 1.11541 38.8981 1.14431C38.9369 1.16374 38.9748 1.186 39.0115 1.21113C39.0837 1.26057 39.1559 1.31015 39.228 1.35989C39.2648 1.38523 39.2992 1.41264 39.3311 1.44186C39.3699 1.4616 39.4078 1.4842 39.4445 1.50968C39.5166 1.55981 39.5887 1.61012 39.6607 1.66061C39.6974 1.68634 39.7317 1.71414 39.7635 1.74374C39.8023 1.76389 39.8401 1.7869 39.8767 1.81282C39.9486 1.8638 40.0205 1.915 40.0923 1.96642C40.1289 1.99262 40.163 2.02089 40.1946 2.05095C40.2333 2.07159 40.271 2.0951 40.3074 2.12153C40.3791 2.17352 40.4507 2.22575 40.5221 2.27826C40.5584 2.30501 40.5923 2.33381 40.6237 2.36439C40.6623 2.38561 40.6998 2.40971 40.736 2.43673C40.8072 2.48988 40.8783 2.54331 40.9492 2.59706C40.9853 2.62444 41.0189 2.65386 41.0499 2.68503C41.0883 2.7069 41.1256 2.73167 41.1615 2.75936C41.2321 2.81384 41.3026 2.86865 41.3728 2.92379C41.4086 2.95189 41.4418 2.98201 41.4724 3.01384C41.5106 3.03647 41.5476 3.06199 41.5831 3.09044C41.653 3.14639 41.7227 3.20271 41.7922 3.25941C41.8276 3.2883 41.8603 3.31917 41.8903 3.35172C41.9282 3.37519 41.9648 3.40154 41.9999 3.43082C42.0689 3.48839 42.1377 3.54637 42.2061 3.60478C42.241 3.63453 42.2732 3.66623 42.3026 3.69956C42.34 3.72394 42.3762 3.75121 42.4107 3.78139C42.4787 3.84073 42.5463 3.90052 42.6136 3.96077C42.6479 3.99147 42.6794 4.02406 42.7082 4.05823C42.7451 4.08361 42.7807 4.11187 42.8146 4.14302C42.8813 4.20426 42.9477 4.26598 43.0136 4.32821C43.0472 4.35991 43.0779 4.39344 43.1058 4.42849C43.1422 4.45494 43.1772 4.48425 43.2104 4.51643C43.2755 4.57968 43.3404 4.64345 43.4047 4.70776C43.4375 4.74051 43.4674 4.77504 43.4943 4.81101C43.5301 4.83859 43.5643 4.86901 43.5966 4.90228C43.6601 4.96763 43.7232 5.03355 43.7858 5.10005C43.8177 5.1339 43.8465 5.16945 43.8724 5.20636C43.9074 5.23513 43.9407 5.26671 43.972 5.30109C44.0336 5.36861 44.0947 5.43673 44.1553 5.50545C44.1861 5.54044 44.2139 5.57703 44.2386 5.61489C44.2727 5.64489 44.305 5.67766 44.3353 5.71318C44.3946 5.78292 44.4535 5.85329 44.5118 5.92429C44.5415 5.96043 44.5681 5.99807 44.5915 6.03689C44.6246 6.06815 44.6558 6.10213 44.6849 6.13881C44.7419 6.21079 44.7983 6.28342 44.8541 6.35672C44.8825 6.394 44.9077 6.43268 44.9297 6.47243C44.9617 6.50494 44.9918 6.54014 45.0195 6.57795C45.0738 6.65209 45.1275 6.72691 45.1806 6.80241C45.2076 6.8408 45.2313 6.88047 45.2518 6.9211C45.2826 6.95486 45.3113 6.99123 45.3375 7.03014C45.3633 7.06839 45.389 7.10681 45.4145 7.14541C45.4395 7.18332 45.4644 7.22162 45.4892 7.26028C45.5146 7.29979 45.5365 7.34044 45.5552 7.38191C45.5842 7.41702 45.611 7.45463 45.6353 7.49464C45.6822 7.57198 45.7286 7.65068 45.7745 7.73066C45.7974 7.77053 45.8171 7.81134 45.8335 7.8528C45.8603 7.88856 45.8849 7.92661 45.9069 7.96688C45.9497 8.04524 45.9921 8.12474 46.034 8.20532C46.0552 8.24597 46.0731 8.28742 46.0878 8.32938C46.1131 8.36605 46.136 8.40492 46.1564 8.44589C46.1958 8.52528 46.2348 8.60563 46.2734 8.68691C46.2928 8.72783 46.309 8.76942 46.322 8.8114C46.3457 8.84855 46.367 8.88777 46.3857 8.92897C46.4223 9.00951 46.4584 9.0909 46.4941 9.17308C46.5121 9.21449 46.5268 9.25646 46.5384 9.29872C46.5608 9.33651 46.5808 9.37628 46.5981 9.41794C46.6318 9.49907 46.6651 9.58092 46.698 9.66346C46.7146 9.70533 46.728 9.74765 46.7383 9.79017C46.7595 9.82855 46.7782 9.86884 46.7942 9.91093C46.8254 9.99294 46.8562 10.0756 46.8865 10.1588C46.9018 10.2009 46.9139 10.2434 46.9229 10.286C46.9429 10.3248 46.9604 10.3654 46.9751 10.4077C47.004 10.4907 47.0324 10.5743 47.0603 10.6583C47.0744 10.7008 47.0853 10.7434 47.093 10.7862C47.1119 10.8254 47.1281 10.8664 47.1416 10.909C47.1681 10.9925 47.1941 11.0766 47.2196 11.161C47.2325 11.2039 47.2422 11.247 47.2488 11.2899C47.2666 11.3297 47.2818 11.3712 47.2941 11.4143C47.3183 11.4984 47.3419 11.583 47.365 11.6679C47.3767 11.7111 47.3853 11.7543 47.3907 11.7975C47.4073 11.8377 47.4214 11.8796 47.4325 11.9229C47.4544 12.0078 47.4757 12.093 47.4965 12.1785C47.507 12.222 47.5144 12.2654 47.5186 12.3087C47.5341 12.3493 47.547 12.3916 47.557 12.4352C47.5765 12.5208 47.5955 12.6067 47.6139 12.6928C47.6233 12.7365 47.6294 12.7802 47.6324 12.8236C47.6468 12.8646 47.6585 12.9072 47.6673 12.9511C47.6844 13.0373 47.701 13.1237 47.717 13.2104C47.7251 13.2545 47.73 13.2983 47.7318 13.3418C47.7451 13.3834 47.7555 13.4263 47.763 13.4705C47.7778 13.5573 47.7919 13.6443 47.8053 13.7315C47.8122 13.7758 47.8158 13.8199 47.8163 13.8635C47.8283 13.9055 47.8376 13.9488 47.8438 13.9932C47.8559 14.0807 47.8675 14.1683 47.8783 14.2559C47.8838 14.3005 47.8861 14.3448 47.8852 14.3885C47.896 14.4309 47.904 14.4746 47.9088 14.5193C47.9183 14.6073 47.9271 14.6955 47.9351 14.7836C47.9392 14.8285 47.9401 14.873 47.9379 14.9168C47.9473 14.9596 47.9538 15.0037 47.9572 15.0487C47.9639 15.1372 47.9698 15.2258 47.9749 15.3143C47.9775 15.3595 47.9768 15.4042 47.9731 15.448C47.9811 15.4914 47.9862 15.5358 47.988 15.5811C47.9916 15.6701 47.9944 15.7592 47.9964 15.8482C47.9974 15.8936 47.9952 15.9384 47.9898 15.9822C47.9963 16.026 47.9997 16.0707 47.9999 16.1162C48.0002 16.2059 47.9997 16.2954 47.9983 16.3849C47.9976 16.4305 47.9936 16.4753 47.9865 16.519C47.9913 16.5631 47.993 16.6081 47.9914 16.6537C47.9881 16.7439 47.984 16.834 47.9789 16.9239C47.9763 16.9697 47.9704 17.0146 47.9614 17.0583C47.9644 17.1028 47.9642 17.1481 47.9606 17.1939C47.9535 17.2843 47.9454 17.3745 47.9362 17.4645C47.9316 17.5105 47.9236 17.5555 47.9126 17.5991C47.9135 17.6441 47.9112 17.6897 47.9055 17.7357C47.8941 17.8262 47.8816 17.9165 47.8681 18.0064C47.8611 18.0525 47.8509 18.0974 47.8376 18.1407C47.8363 18.186 47.8317 18.2318 47.8236 18.2778C47.8074 18.3686 47.7902 18.459 47.7717 18.549C47.7622 18.5949 47.7495 18.6394 47.7339 18.6823C47.7301 18.7277 47.7229 18.7734 47.7121 18.8192C47.6908 18.9099 47.6681 19.0001 47.6442 19.0899C47.6319 19.1357 47.6164 19.1799 47.598 19.2223C47.5915 19.2679 47.5814 19.3137 47.5677 19.3592C47.5407 19.449 47.5123 19.5383 47.4824 19.627C47.467 19.6725 47.4485 19.7162 47.427 19.7577C47.4174 19.8035 47.4042 19.849 47.3872 19.8941C47.3706 19.9384 47.3536 19.9824 47.3362 20.0263C47.3194 20.0688 47.3023 20.1112 47.285 20.1535C47.2674 20.1965 47.2469 20.2376 47.2239 20.2766C47.2122 20.3201 47.1971 20.3634 47.1786 20.406C47.1423 20.4897 47.1051 20.573 47.0671 20.6558C47.0477 20.698 47.0256 20.738 47.0011 20.7759C46.9876 20.8188 46.9708 20.8613 46.9506 20.903C46.911 20.9849 46.8706 21.0664 46.8293 21.1475C46.8084 21.1887 46.7848 21.2277 46.7588 21.2645C46.7436 21.3067 46.7252 21.3484 46.7035 21.3892C46.6607 21.4693 46.6173 21.549 46.5731 21.6282C46.5506 21.6685 46.5256 21.7066 46.4983 21.7423C46.4815 21.7838 46.4616 21.8246 46.4384 21.8645C46.3927 21.9428 46.3464 22.0207 46.2994 22.098C46.2755 22.1374 46.2491 22.1745 46.2206 22.2091C46.2024 22.2499 46.181 22.2899 46.1564 22.3289C46.108 22.4054 46.0589 22.4814 46.0093 22.5569C45.984 22.5954 45.9564 22.6314 45.9267 22.665C45.907 22.705 45.8843 22.7442 45.8583 22.7822C45.8073 22.857 45.7557 22.9312 45.7035 23.0049C45.6769 23.0424 45.648 23.0774 45.6172 23.1099C45.5962 23.1492 45.5721 23.1875 45.5449 23.2246C45.4914 23.2975 45.4373 23.3698 45.3827 23.4415C45.3548 23.4781 45.3248 23.5122 45.2929 23.5436C45.2705 23.5822 45.2452 23.6197 45.2167 23.6559C45.1607 23.7269 45.1042 23.7974 45.0472 23.8672C45.0182 23.9028 44.9871 23.9358 44.9542 23.9661C44.9306 24.0039 44.9039 24.0405 44.8743 24.0756C44.8158 24.1449 44.7569 24.2135 44.6976 24.2815C44.6673 24.3161 44.635 24.3481 44.6011 24.3773C44.5762 24.4143 44.5483 24.4501 44.5175 24.4842C44.4567 24.5515 44.3956 24.618 44.3341 24.6838C44.3027 24.7175 44.2693 24.7484 44.2343 24.7765C44.2081 24.8128 44.179 24.8476 44.1469 24.8808C44.0837 24.9462 44.0201 25.0108 43.9562 25.0747C43.9236 25.1073 43.8891 25.1371 43.8532 25.164C43.8257 25.1993 43.7954 25.2332 43.7622 25.2652C43.6967 25.3285 43.6308 25.3909 43.5647 25.4525C43.5308 25.4841 43.4952 25.5127 43.4581 25.5385C43.4293 25.573 43.3976 25.6059 43.3631 25.6369C43.295 25.6981 43.2266 25.7584 43.158 25.8178C43.1229 25.8482 43.0862 25.8756 43.0482 25.9C43.018 25.9334 42.9851 25.9652 42.9494 25.9949C42.8788 26.0537 42.808 26.1116 42.737 26.1684C42.7005 26.1976 42.6624 26.2237 42.6232 26.2468C42.5915 26.2793 42.5571 26.31 42.5199 26.3385C42.4464 26.395 42.3727 26.4503 42.2989 26.5045C42.261 26.5323 42.2218 26.557 42.1814 26.5785C42.1482 26.6098 42.1123 26.6391 42.0738 26.6661C41.9973 26.7197 41.9208 26.7721 41.8443 26.8231C41.8049 26.8494 41.7642 26.8724 41.7225 26.8922C41.6876 26.9222 41.6501 26.95 41.6099 26.9754C41.5299 27.026 41.4498 27.0752 41.3697 27.123C41.3284 27.1476 41.286 27.1688 41.2428 27.1866C41.2058 27.2152 41.1662 27.2413 41.1241 27.2649C41.0402 27.3118 40.9564 27.357 40.8726 27.4006C40.8292 27.4231 40.7849 27.4421 40.74 27.4575C40.7007 27.4842 40.6588 27.5083 40.6146 27.5295C40.5261 27.5718 40.4377 27.6123 40.3494 27.6507C40.3035 27.6707 40.2569 27.6869 40.2099 27.6993C40.1677 27.7237 40.1231 27.7451 40.0762 27.7634C39.982 27.8 39.8879 27.8342 39.7939 27.866C39.7448 27.8826 39.6952 27.895 39.6456 27.9035C39.5998 27.9247 39.5516 27.9426 39.5013 27.9568C39.4516 27.9708 39.4018 27.9841 39.3521 27.9967C39.2877 28.0129 39.2218 28.0225 39.1555 28.0253V28.2189C39.1555 28.2617 39.1526 28.3038 39.147 28.345C39.1526 28.3863 39.1555 28.4284 39.1555 28.4712V28.7234C39.1555 28.7662 39.1526 28.8083 39.147 28.8496C39.1526 28.8908 39.1555 28.9329 39.1555 28.9757V29.228C39.1555 29.2707 39.1526 29.3128 39.147 29.3541C39.1526 29.3954 39.1555 29.4375 39.1555 29.4802V29.7325C39.1555 29.7753 39.1526 29.8174 39.147 29.8586C39.1526 29.8999 39.1555 29.942 39.1555 29.9848V30.237C39.1555 30.2798 39.1526 30.3219 39.147 30.3632C39.1526 30.4044 39.1555 30.4465 39.1555 30.4893V30.7416C39.1555 30.7843 39.1526 30.8264 39.147 30.8677C39.1526 30.909 39.1555 30.9511 39.1555 30.9938V31.2461C39.1555 31.2889 39.1526 31.331 39.147 31.3722C39.1526 31.4135 39.1555 31.4556 39.1555 31.4984V31.7506C39.1555 31.7934 39.1526 31.8355 39.147 31.8768C39.1526 31.918 39.1555 31.9601 39.1555 32.0029V32.2552C39.1555 32.2979 39.1526 32.34 39.147 32.3813C39.1526 32.4226 39.1555 32.4647 39.1555 32.5074V32.7492C39.1555 32.7883 39.1531 32.8269 39.1484 32.8648C39.1531 32.9027 39.1555 32.9413 39.1555 32.9804V33.2117C39.1555 33.2508 39.1531 33.2894 39.1484 33.3273C39.1531 33.3652 39.1555 33.4038 39.1555 33.4429V33.6742C39.1555 33.7133 39.1531 33.7519 39.1484 33.7898C39.1531 33.8277 39.1555 33.8663 39.1555 33.9054V34.1367C39.1555 34.1758 39.1531 34.2144 39.1484 34.2523C39.1531 34.2902 39.1555 34.3288 39.1555 34.3679V34.5992C39.1555 34.6383 39.1531 34.6769 39.1484 34.7148C39.1531 34.7527 39.1555 34.7913 39.1555 34.8304V35.0616C39.1555 35.1008 39.1531 35.1394 39.1484 35.1773C39.1531 35.2152 39.1555 35.2538 39.1555 35.2929V35.5338C39.1555 35.5762 39.1527 35.618 39.1471 35.659C39.1527 35.7 39.1555 35.7418 39.1555 35.7843V36.0348C39.1555 36.0773 39.1527 36.1191 39.1471 36.1601C39.1527 36.201 39.1555 36.2429 39.1555 36.2853V36.5358C39.1555 36.5783 39.1527 36.6201 39.1471 36.6611C39.1527 36.7021 39.1555 36.7439 39.1555 36.7864V37.0369C39.1555 37.0793 39.1527 37.1211 39.1471 37.1621C39.1527 37.2031 39.1555 37.2449 39.1555 37.2874V37.5379C39.1555 37.5804 39.1527 37.6222 39.1471 37.6631C39.1527 37.7041 39.1555 37.7459 39.1555 37.7884V38.0389C39.1555 38.0814 39.1527 38.1232 39.1471 38.1642C39.1527 38.2052 39.1555 38.247 39.1555 38.2894V38.54C39.1555 38.5824 39.1527 38.6242 39.1471 38.6652C39.1527 38.7062 39.1555 38.748 39.1555 38.7905V39.041C39.1555 39.0835 39.1527 39.1253 39.1471 39.1662C39.1527 39.2072 39.1555 39.249 39.1555 39.2915V39.542C39.1555 39.5845 39.1527 39.6263 39.1471 39.6673C39.1527 39.7082 39.1555 39.7501 39.1555 39.7925V40.043C39.1555 40.0855 39.1527 40.1273 39.1471 40.1683C39.1527 40.2093 39.1555 40.2511 39.1555 40.2936V40.5441C39.1555 40.5865 39.1527 40.6283 39.1471 40.6693C39.1527 40.7103 39.1555 40.7521 39.1555 40.7946V41.0451C39.1555 41.0876 39.1527 41.1294 39.1471 41.1704C39.1527 41.2113 39.1555 41.2532 39.1555 41.2956V41.5461C39.1555 41.5886 39.1527 41.6304 39.1471 41.6714C39.1527 41.7124 39.1555 41.7542 39.1555 41.7967V42.0472C39.1555 42.0896 39.1527 42.1314 39.1471 42.1724C39.1527 42.2134 39.1555 42.2552 39.1555 42.2977V42.5482C39.1555 42.5907 39.1527 42.6325 39.1471 42.6735C39.1527 42.7144 39.1555 42.7562 39.1555 42.7987V43.0492C39.1555 43.0917 39.1527 43.1335 39.1471 43.1745C39.1527 43.2155 39.1555 43.2573 39.1555 43.2997V43.5503C39.1555 43.5927 39.1527 43.6345 39.1471 43.6755C39.1527 43.7165 39.1555 43.7583 39.1555 43.8008V44.0513C39.1555 44.0938 39.1527 44.1356 39.1471 44.1765C39.1527 44.2175 39.1555 44.2593 39.1555 44.3018V44.5523C39.1555 44.5948 39.1527 44.6366 39.1471 44.6776C39.1527 44.7186 39.1555 44.7604 39.1555 44.8028V45.0534C39.1555 45.0958 39.1527 45.1376 39.1471 45.1786C39.1527 45.2196 39.1555 45.2614 39.1555 45.3039V45.5544C39.1555 45.5969 39.1527 45.6387 39.1471 45.6796C39.1527 45.7206 39.1555 45.7624 39.1555 45.8049V46.0554C39.1555 46.0979 39.1527 46.1397 39.1471 46.1807C39.1527 46.2216 39.1555 46.2635 39.1555 46.3059V46.5564C39.1555 46.5989 39.1527 46.6407 39.1471 46.6817C39.1527 46.7227 39.1555 46.7645 39.1555 46.807V47.0575C39.1555 47.0999 39.1527 47.1417 39.1471 47.1827C39.1527 47.2237 39.1555 47.2655 39.1555 47.308V47.4332H39.0764C38.929 47.7668 38.5912 48 38.1981 48C37.805 48 37.4672 47.7668 37.3198 47.4332H37.2406V47.308C37.2406 47.2655 37.2435 47.2237 37.249 47.1827C37.2435 47.1417 37.2406 47.0999 37.2406 47.0575V46.807C37.2406 46.7645 37.2435 46.7227 37.249 46.6817C37.2435 46.6407 37.2406 46.5989 37.2406 46.5564V46.3059C37.2406 46.2635 37.2435 46.2216 37.249 46.1807C37.2435 46.1397 37.2406 46.0979 37.2406 46.0554V45.8049C37.2406 45.7624 37.2435 45.7206 37.249 45.6796C37.2435 45.6387 37.2406 45.5969 37.2406 45.5544V45.3039C37.2406 45.2614 37.2435 45.2196 37.249 45.1786C37.2435 45.1376 37.2406 45.0958 37.2406 45.0534V44.8028C37.2406 44.7604 37.2435 44.7186 37.249 44.6776C37.2435 44.6366 37.2406 44.5948 37.2406 44.5523V44.3018C37.2406 44.2593 37.2435 44.2175 37.249 44.1765C37.2435 44.1356 37.2406 44.0938 37.2406 44.0513V43.8008C37.2406 43.7583 37.2435 43.7165 37.249 43.6755C37.2435 43.6345 37.2406 43.5927 37.2406 43.5503V43.2997C37.2406 43.2573 37.2435 43.2155 37.249 43.1745C37.2435 43.1335 37.2406 43.0917 37.2406 43.0492V42.7987C37.2406 42.7562 37.2435 42.7144 37.249 42.6735C37.2435 42.6325 37.2406 42.5907 37.2406 42.5482V42.2977C37.2406 42.2552 37.2435 42.2134 37.249 42.1724C37.2435 42.1314 37.2406 42.0896 37.2406 42.0472V41.7967C37.2406 41.7542 37.2435 41.7124 37.249 41.6714C37.2435 41.6304 37.2406 41.5886 37.2406 41.5461V41.2956C37.2406 41.2532 37.2435 41.2113 37.249 41.1704C37.2435 41.1294 37.2406 41.0876 37.2406 41.0451V40.7946C37.2406 40.7521 37.2435 40.7103 37.249 40.6693C37.2435 40.6283 37.2406 40.5865 37.2406 40.5441V40.2936C37.2406 40.2511 37.2435 40.2093 37.249 40.1683C37.2435 40.1273 37.2406 40.0855 37.2406 40.043V39.7925C37.2406 39.7501 37.2435 39.7082 37.249 39.6673C37.2435 39.6263 37.2406 39.5845 37.2406 39.542V39.2915C37.2406 39.249 37.2435 39.2072 37.249 39.1662C37.2435 39.1253 37.2406 39.0835 37.2406 39.041V38.7905C37.2406 38.748 37.2435 38.7062 37.249 38.6652C37.2435 38.6242 37.2406 38.5824 37.2406 38.54V38.2894C37.2406 38.247 37.2435 38.2052 37.249 38.1642C37.2435 38.1232 37.2406 38.0814 37.2406 38.0389V37.7884C37.2406 37.7459 37.2435 37.7041 37.249 37.6631C37.2435 37.6222 37.2406 37.5804 37.2406 37.5379V37.2874C37.2406 37.2449 37.2435 37.2031 37.249 37.1621C37.2435 37.1211 37.2406 37.0793 37.2406 37.0369V36.7864C37.2406 36.7439 37.2435 36.7021 37.249 36.6611C37.2435 36.6201 37.2406 36.5783 37.2406 36.5358V36.5163C37.2123 36.5196 37.1839 36.5229 37.1556 36.5261C37.1089 36.5313 37.0626 36.5332 37.0169 36.5318C36.9725 36.5423 36.9268 36.5499 36.88 36.5542C36.7866 36.5628 36.6935 36.5703 36.6008 36.5769C36.5538 36.5802 36.5074 36.5802 36.4617 36.5769C36.4168 36.5857 36.3707 36.5913 36.3237 36.5937C36.2301 36.5984 36.1368 36.6021 36.0439 36.6047C35.9965 36.6061 35.9498 36.6041 35.9041 36.5988C35.8586 36.6057 35.812 36.6095 35.7645 36.6098C35.6713 36.6105 35.5784 36.6102 35.4859 36.6089C35.4382 36.6083 35.3914 36.6042 35.3457 36.5969C35.2997 36.6019 35.2527 36.6036 35.2051 36.6019C35.1119 36.5986 35.0191 36.5942 34.9267 36.5889C34.8791 36.5862 34.8325 36.58 34.7871 36.5708C34.7409 36.5737 34.6939 36.5734 34.6463 36.5696C34.553 36.5621 34.4601 36.5537 34.3677 36.5442C34.3204 36.5394 34.2743 36.5312 34.2295 36.52C34.1833 36.5209 34.1365 36.5185 34.0894 36.5126C33.9962 36.501 33.9036 36.4883 33.8114 36.4747C33.7645 36.4678 33.7189 36.4577 33.6748 36.4445C33.6288 36.4433 33.5823 36.4389 33.5355 36.4309C33.4429 36.4151 33.3507 36.3983 33.259 36.3806C33.2125 36.3716 33.1674 36.3594 33.124 36.3443C33.0781 36.3411 33.0318 36.3346 32.9855 36.3245C32.8938 36.3047 32.8026 36.2838 32.7119 36.2621C32.6658 36.251 32.6213 36.2368 32.5785 36.2198C32.5327 36.2145 32.4868 36.2059 32.4409 36.1939C32.3505 36.17 32.2606 36.1453 32.1712 36.1196C32.1256 36.1065 32.0817 36.0904 32.0398 36.0715C31.9943 36.0643 31.9487 36.0537 31.9035 36.0396C31.8144 36.0119 31.7259 35.9834 31.638 35.9539C31.5931 35.9389 31.55 35.9209 31.509 35.9002C31.4638 35.891 31.4188 35.8785 31.3742 35.8625C31.2867 35.8311 31.1998 35.7989 31.1134 35.7658C31.0692 35.7489 31.027 35.7291 30.9869 35.7068C30.9423 35.6957 30.8979 35.6813 30.8541 35.6635C30.7683 35.6285 30.683 35.5928 30.5983 35.5563C30.5549 35.5376 30.5137 35.5161 30.4746 35.4921C30.4306 35.4792 30.3869 35.4631 30.3439 35.4435C30.2598 35.4051 30.1762 35.366 30.0932 35.3261C30.0507 35.3058 30.0105 35.2827 29.9726 35.2573C29.9292 35.2427 29.8864 35.2248 29.8444 35.2036C29.762 35.162 29.6802 35.1197 29.599 35.0767C29.5575 35.0548 29.5184 35.0303 29.4816 35.0035C29.439 34.9873 29.397 34.9678 29.356 34.9451C29.2755 34.9005 29.1955 34.8552 29.1162 34.8092C29.0757 34.7858 29.0377 34.7599 29.0021 34.7318C28.9602 34.7141 28.9192 34.6931 28.8792 34.669C28.8006 34.6215 28.7225 34.5734 28.6451 34.5247C28.6057 34.4999 28.5687 34.4727 28.5343 34.4435C28.4933 34.4243 28.4531 34.4019 28.4141 34.3765C28.3375 34.3263 28.2614 34.2756 28.186 34.2243C28.1476 34.1982 28.1117 34.1698 28.0784 34.1395C28.0382 34.119 27.999 34.0953 27.961 34.0686C27.8863 34.0159 27.8123 33.9628 27.7388 33.9091C27.7014 33.8818 27.6667 33.8524 27.6345 33.821C27.5951 33.7992 27.5568 33.7744 27.5199 33.7465C27.4472 33.6915 27.3751 33.6361 27.3036 33.5802C27.2673 33.5518 27.2336 33.5213 27.2026 33.4891C27.164 33.4661 27.1267 33.4401 27.0908 33.4112C27.02 33.354 26.9499 33.2965 26.8804 33.2385C26.845 33.2091 26.8124 33.1777 26.7825 33.1446C26.7448 33.1205 26.7084 33.0935 26.6735 33.0635C26.6047 33.0044 26.5365 32.9449 26.4689 32.885C26.4346 32.8546 26.403 32.8224 26.3742 32.7885C26.3373 32.7634 26.3018 32.7354 26.268 32.7045C26.201 32.6435 26.1347 32.5821 26.069 32.5205C26.0357 32.4892 26.0052 32.4562 25.9774 32.4216C25.9414 32.3955 25.9068 32.3666 25.8739 32.3349C25.8088 32.2721 25.7444 32.209 25.6806 32.1458C25.6482 32.1137 25.6187 32.0799 25.592 32.0446C25.5568 32.0176 25.5231 31.9879 25.4912 31.9554C25.4279 31.8909 25.3653 31.8263 25.3034 31.7615C25.2719 31.7286 25.2434 31.6942 25.2177 31.6583C25.1833 31.6305 25.1505 31.5999 25.1195 31.5667C25.058 31.5007 24.9972 31.4346 24.9371 31.3684C24.9066 31.3348 24.879 31.2997 24.8543 31.2633C24.8206 31.2346 24.7886 31.2033 24.7586 31.1694C24.6989 31.1019 24.6399 31.0345 24.5816 30.967C24.5519 30.9327 24.5252 30.897 24.5015 30.86C24.4686 30.8306 24.4374 30.7986 24.4082 30.764C24.3503 30.6952 24.2931 30.6265 24.2365 30.5579C24.2078 30.5229 24.182 30.4866 24.1591 30.4491C24.127 30.419 24.0966 30.3862 24.0682 30.351C24.012 30.281 23.9566 30.2112 23.9019 30.1415C23.8739 30.1059 23.849 30.069 23.827 30.031C23.7955 30.0001 23.7659 29.9667 23.7384 29.9308C23.6839 29.8598 23.6302 29.789 23.5773 29.7184C23.5502 29.6822 23.5261 29.6447 23.5049 29.6061C23.4741 29.5745 23.4452 29.5405 23.4185 29.5039C23.3658 29.432 23.314 29.3604 23.2629 29.2891C23.2365 29.2522 23.2132 29.214 23.1929 29.175C23.1627 29.1427 23.1345 29.1079 23.1085 29.0708C23.0574 28.9977 23.0072 28.9251 22.9579 28.8529C22.9323 28.8155 22.9099 28.777 22.8904 28.7376C22.861 28.7047 22.8336 28.6694 22.8085 28.6318L22.7358 28.5224C22.7113 28.4853 22.687 28.4482 22.6629 28.4111C22.6385 28.3735 22.6172 28.3349 22.5988 28.2955C22.5707 28.2621 22.5446 28.2265 22.5208 28.1886C22.4736 28.1134 22.4272 28.0383 22.3815 27.9632C22.3583 27.925 22.3381 27.8858 22.321 27.8459C22.2939 27.8117 22.2689 27.7754 22.2463 27.7368C22.2014 27.6605 22.1574 27.5843 22.1141 27.5081C22.092 27.4692 22.073 27.4294 22.057 27.3889C22.031 27.354 22.007 27.3169 21.9855 27.2776C21.9431 27.2004 21.9015 27.1233 21.8606 27.0463C21.8397 27.0068 21.8218 26.9664 21.807 26.9256C21.7819 26.89 21.7591 26.8522 21.7387 26.8124C21.6985 26.7339 21.659 26.6556 21.6203 26.5775C21.6006 26.5377 21.584 26.4971 21.5704 26.4562C21.5465 26.4201 21.5249 26.3819 21.5057 26.3419C21.4676 26.2623 21.4304 26.1829 21.3938 26.1038C21.3751 26.0634 21.3596 26.0225 21.3472 25.9811C21.3242 25.9444 21.3036 25.9057 21.2855 25.8652C21.2498 25.7852 21.2148 25.7055 21.1806 25.626C21.163 25.5852 21.1486 25.5439 21.1371 25.5023C21.1151 25.465 21.0955 25.4258 21.0784 25.3848C21.0447 25.304 21.0118 25.2235 20.9795 25.1432C20.963 25.1023 20.9497 25.0609 20.9393 25.0193C20.9184 24.9818 20.8998 24.9425 20.8838 24.9014C20.8521 24.82 20.8211 24.7389 20.7908 24.6582C20.7752 24.617 20.7628 24.5753 20.7534 24.5335C20.7333 24.4956 20.7156 24.4559 20.7005 24.4145C20.6708 24.3328 20.6417 24.2515 20.6132 24.1707C20.5986 24.1294 20.5872 24.0878 20.5787 24.0461C20.5595 24.008 20.5427 23.9683 20.5286 23.9269C20.5005 23.8446 20.473 23.7629 20.446 23.6818C20.4323 23.6403 20.4216 23.5985 20.4139 23.5568C20.3954 23.5184 20.3794 23.4784 20.366 23.4369C20.3395 23.3547 20.3136 23.2732 20.2882 23.1923C20.2752 23.1509 20.2653 23.1094 20.2582 23.0678C20.2405 23.0295 20.2252 22.9896 20.2125 22.9482C20.1873 22.8659 20.1627 22.7844 20.1385 22.7035C20.1261 22.6621 20.1167 22.6206 20.1102 22.579C20.093 22.5406 20.0782 22.5007 20.0661 22.4593C20.042 22.3772 20.0183 22.2961 19.9951 22.2158C19.9833 22.1746 19.9743 22.1334 19.9683 22.0922C19.9516 22.054 19.9372 22.0143 19.9255 21.9732L19.8568 21.7317C19.8453 21.691 19.8366 21.6501 19.8308 21.6093C19.8144 21.5715 19.8004 21.5322 19.7889 21.4915L19.7211 21.2523C19.7096 21.2119 19.701 21.1715 19.6952 21.1311C19.6789 21.0938 19.6648 21.0549 19.6533 21.0147C19.6304 20.9348 19.6077 20.8564 19.5852 20.7795C19.5736 20.74 19.5648 20.7003 19.5586 20.6607C19.5422 20.6242 19.528 20.5863 19.5162 20.547C19.4927 20.4688 19.4693 20.3925 19.446 20.318C19.434 20.2797 19.4247 20.2412 19.4178 20.2028C19.4011 20.1676 19.3865 20.1311 19.374 20.0932C19.3492 20.0176 19.3244 19.9445 19.2997 19.8737C19.287 19.8374 19.2766 19.8009 19.2686 19.7642C19.2514 19.7312 19.2359 19.6968 19.2224 19.6611C19.1954 19.5897 19.1685 19.5214 19.1415 19.4564C19.1277 19.4231 19.1159 19.3894 19.1062 19.3556C19.0881 19.3259 19.0716 19.2949 19.0566 19.2627C19.0421 19.2314 19.0275 19.2012 19.0131 19.1719C18.9938 19.133 18.9748 19.0944 18.9563 19.0561C18.9373 19.017 18.9213 18.9772 18.9082 18.9371C18.8852 18.9013 18.8644 18.8637 18.8461 18.8241C18.8088 18.7439 18.7731 18.665 18.7389 18.5875C18.7211 18.5471 18.7064 18.5061 18.6946 18.4648C18.6727 18.4277 18.6531 18.3886 18.6361 18.3477C18.6015 18.2646 18.5688 18.1832 18.5377 18.1032C18.5214 18.0613 18.5084 18.019 18.4985 17.9765C18.478 17.9376 18.46 17.8969 18.4448 17.8545C18.4138 17.7678 18.3848 17.683 18.3578 17.5997C18.3436 17.556 18.3328 17.5119 18.3253 17.4679C18.3067 17.427 18.2909 17.3843 18.278 17.3399C18.252 17.2495 18.2282 17.1611 18.2066 17.0745C18.1952 17.0289 18.1874 16.9832 18.183 16.9378C18.1672 16.8947 18.1543 16.85 18.1447 16.8038C18.1252 16.7099 18.1082 16.6183 18.0935 16.5289C18.0858 16.4819 18.0818 16.4352 18.0812 16.3891C18.0689 16.3446 18.0597 16.2986 18.054 16.2514C18.0425 16.1561 18.0335 16.0637 18.0264 15.9738C18.0227 15.9273 18.0225 15.8814 18.0256 15.8362C18.0171 15.792 18.0118 15.7467 18.0098 15.7005C18.0058 15.6091 18.0035 15.5206 18.0021 15.435C18.0014 15.3916 18.0037 15.3488 18.0088 15.3069C18.0031 15.2657 18.0002 15.2237 18.0001 15.181L18 15.059C18 14.9701 18.0064 14.8807 18.02 14.7915C18.0352 14.6924 18.0655 14.5992 18.1083 14.5139C18.127 14.4181 18.1612 14.3235 18.212 14.2335C18.3118 14.0568 18.4385 13.9097 18.577 13.789C18.6417 13.7326 18.712 13.6865 18.7858 13.6503C18.8434 13.5996 18.9082 13.555 18.9798 13.518C19.1044 13.4535 19.2316 13.4021 19.3563 13.3606C19.4155 13.3409 19.4752 13.3272 19.5348 13.3192C19.5883 13.2967 19.6446 13.2787 19.7034 13.2658C19.8117 13.2419 19.9206 13.2226 20.0285 13.2071C20.0813 13.1995 20.1337 13.1962 20.1854 13.1971C20.2346 13.1847 20.2855 13.176 20.3378 13.1713C20.4376 13.1624 20.5373 13.1558 20.6359 13.1511C20.6853 13.1487 20.734 13.1501 20.7818 13.1549C20.8287 13.1472 20.8768 13.1428 20.9258 13.142C21.0214 13.1405 21.116 13.1403 21.2088 13.1411C21.256 13.1415 21.3024 13.1453 21.3478 13.1522C21.3931 13.1471 21.4393 13.145 21.4862 13.1463C21.5795 13.1489 21.6705 13.1522 21.758 13.1558C21.8033 13.1577 21.8477 13.1626 21.891 13.1704C21.9345 13.1666 21.9788 13.1657 22.0236 13.1679C22.0581 13.1696 22.0911 13.1712 22.1232 13.1728C22.178 13.1755 22.2298 13.178 22.2807 13.1804C22.3221 13.1824 22.3627 13.1869 22.4025 13.1937C22.4411 13.1901 22.4805 13.1888 22.5203 13.1899C22.5602 13.1909 22.594 13.1914 22.6223 13.1914C22.6908 13.1914 22.759 13.1945 22.8256 13.1994C22.8857 13.2039 22.944 13.2137 23.0002 13.2283C23.0553 13.2274 23.1113 13.2312 23.1676 13.24C23.2659 13.2554 23.3678 13.274 23.4723 13.2953C23.5217 13.3054 23.5694 13.319 23.6152 13.3359C23.6633 13.3398 23.7118 13.3474 23.7603 13.3589C23.8512 13.3803 23.9445 13.4036 24.0399 13.4284C24.0865 13.4406 24.1313 13.4559 24.1743 13.4741C24.2204 13.4801 24.2667 13.4895 24.3128 13.5024C24.4011 13.5272 24.491 13.5532 24.5823 13.5803C24.6275 13.5938 24.671 13.6103 24.7126 13.6294C24.7578 13.6368 24.803 13.6474 24.848 13.6614C24.935 13.6886 25.0231 13.7167 25.112 13.7457C25.1565 13.7602 25.1992 13.7776 25.24 13.7976C25.2847 13.806 25.3294 13.8176 25.3737 13.8326C25.4597 13.8617 25.5465 13.8915 25.6337 13.922C25.6777 13.9374 25.7198 13.9557 25.76 13.9765C25.8044 13.9858 25.8487 13.9982 25.8925 14.0141C25.9781 14.045 26.0641 14.0766 26.1502 14.1086C26.1938 14.1249 26.2355 14.1439 26.2751 14.1654C26.3193 14.1756 26.3632 14.1889 26.4066 14.2055C26.4918 14.2382 26.5771 14.2714 26.6622 14.305C26.7055 14.3221 26.7468 14.3419 26.7861 14.3642C26.83 14.3752 26.8737 14.3894 26.9169 14.4069C27.0018 14.4414 27.0865 14.4763 27.1707 14.5116C27.2138 14.5296 27.2548 14.5503 27.2937 14.5735C27.3376 14.5854 27.3811 14.6006 27.424 14.619C27.5088 14.6556 27.5931 14.6925 27.6767 14.7296C27.7196 14.7486 27.7603 14.7704 27.7988 14.7946C27.8426 14.8076 27.886 14.8238 27.9287 14.8434C28.0134 14.8823 28.0972 14.9215 28.1799 14.9608C28.2228 14.9812 28.2633 15.0043 28.3016 15.0298C28.3455 15.0441 28.3889 15.0617 28.4315 15.0828C28.4735 15.1036 28.5152 15.1244 28.5566 15.1452C28.5966 15.1655 28.6368 15.1861 28.6769 15.2072C28.7174 15.2284 28.7557 15.252 28.7917 15.2778C28.8329 15.2938 28.8735 15.3128 28.9131 15.3349C28.989 15.3772 29.0652 15.4208 29.1414 15.4654C29.1796 15.4878 29.2155 15.5123 29.2493 15.5387C29.2886 15.556 29.3272 15.576 29.3647 15.599C29.4378 15.6435 29.5109 15.6889 29.5838 15.735C29.6206 15.7582 29.6551 15.7834 29.6875 15.8105C29.7256 15.8286 29.763 15.8495 29.7993 15.8731C29.8703 15.9193 29.9411 15.966 30.0116 16.0131C30.0472 16.0369 30.0808 16.0627 30.1121 16.0902C30.1494 16.1091 30.1859 16.1306 30.2212 16.1547C30.2909 16.2023 30.3601 16.2502 30.4286 16.298C30.4636 16.3224 30.4963 16.3486 30.5269 16.3765C30.5635 16.396 30.5993 16.418 30.634 16.4427C30.7026 16.4915 30.7704 16.5402 30.8373 16.5886C30.8717 16.6135 30.9039 16.6402 30.9338 16.6685C30.97 16.6885 31.0053 16.711 31.0395 16.7361C31.0453 16.7404 31.051 16.7446 31.0568 16.7488C31.057 16.7117 31.0574 16.6746 31.0578 16.6375C31.0583 16.5936 31.0618 16.5504 31.0682 16.5082C31.0633 16.4658 31.0612 16.4226 31.0622 16.3787C31.0642 16.2925 31.0666 16.2062 31.0695 16.12C31.071 16.0761 31.0755 16.0331 31.0828 15.991C31.0789 15.9485 31.0777 15.9052 31.0797 15.8614C31.0836 15.7752 31.0879 15.689 31.0927 15.6029C31.0952 15.5591 31.1007 15.5161 31.1089 15.4742C31.1058 15.4316 31.1057 15.3884 31.1086 15.3446C31.1144 15.2585 31.1206 15.1725 31.1274 15.0865C31.1308 15.0427 31.1372 14.9999 31.1463 14.9582C31.1442 14.9156 31.145 14.8723 31.1489 14.8286C31.1566 14.7428 31.1647 14.6569 31.1733 14.571C31.1777 14.5274 31.185 14.4847 31.1951 14.4432C31.1939 14.4006 31.1957 14.3574 31.2005 14.3138C31.21 14.2281 31.22 14.1425 31.2305 14.0568C31.2358 14.0133 31.2441 13.9708 31.255 13.9295C31.2548 13.8869 31.2575 13.8437 31.2633 13.8002C31.2746 13.7148 31.2865 13.6294 31.2988 13.544C31.3051 13.5006 31.3142 13.4584 31.3261 13.4173C31.3268 13.3747 31.3304 13.3316 31.3371 13.2883C31.3503 13.2032 31.364 13.1181 31.3781 13.033C31.3853 12.9898 31.3954 12.9477 31.4081 12.907C31.4097 12.8644 31.4142 12.8214 31.4218 12.7782C31.4369 12.6935 31.4523 12.6087 31.4683 12.524C31.4764 12.4809 31.4873 12.4391 31.5009 12.3986C31.5034 12.3561 31.5088 12.3132 31.5173 12.2702C31.5341 12.1858 31.5514 12.1014 31.5691 12.0171C31.5781 11.9742 31.5899 11.9326 31.6043 11.8925C31.6077 11.85 31.614 11.8073 31.6234 11.7645C31.642 11.6805 31.6609 11.5965 31.6804 11.5125C31.6902 11.4699 31.7029 11.4286 31.7181 11.3887C31.7224 11.3464 31.7296 11.3038 31.7399 11.2612L31.7706 11.1358L31.8012 11.0124C31.8116 10.9705 31.8246 10.93 31.8401 10.891C31.8446 10.8493 31.852 10.8074 31.8623 10.7655L31.9235 10.5186C31.9339 10.4767 31.947 10.4361 31.9626 10.3971C31.9671 10.3553 31.9745 10.3134 31.9849 10.2715L32.0463 10.0244C32.0567 9.9825 32.0699 9.94194 32.0855 9.90287C32.09 9.86112 32.0974 9.81918 32.1079 9.77727L32.1697 9.52989C32.1802 9.48795 32.1934 9.44736 32.2091 9.40826C32.2137 9.36646 32.2212 9.32448 32.2317 9.28254L32.2939 9.03528C32.3045 8.9933 32.3178 8.95268 32.3336 8.91357C32.3383 8.87173 32.3459 8.82971 32.3565 8.78774L32.4194 8.5401C32.4301 8.49813 32.4435 8.45752 32.4594 8.41842C32.4642 8.37657 32.4719 8.33455 32.4826 8.29258L32.5462 8.04524C32.557 8.00319 32.5706 7.96252 32.5866 7.92337C32.5916 7.88144 32.5994 7.83933 32.6103 7.7973L32.6749 7.54947C32.6859 7.50746 32.6996 7.46685 32.7158 7.42777C32.7209 7.38586 32.729 7.3438 32.74 7.30181L32.8056 7.05435C32.8169 7.01226 32.8308 6.97158 32.8472 6.93245C32.8525 6.89042 32.8608 6.84825 32.8721 6.80617L32.9392 6.55813C32.9506 6.51608 32.9648 6.47547 32.9814 6.43642C32.9869 6.39441 32.9954 6.35228 33.007 6.31025C33.0298 6.22721 33.0527 6.14464 33.0756 6.06256C33.0873 6.0205 33.1017 5.97989 33.1186 5.94087C33.1245 5.89881 33.1333 5.85664 33.1451 5.81461C33.1687 5.73126 33.1923 5.64846 33.2158 5.56624C33.2279 5.52412 33.2427 5.48348 33.26 5.44446C33.2662 5.4023 33.2753 5.36006 33.2876 5.31798C33.3119 5.23461 33.3362 5.15188 33.3606 5.06982C33.373 5.02773 33.3882 4.98715 33.4059 4.94821C33.4125 4.90603 33.4221 4.86379 33.4348 4.82174C33.46 4.73831 33.4853 4.65561 33.5105 4.5737C33.5235 4.53158 33.5392 4.49101 33.5574 4.45212C33.5645 4.40985 33.5747 4.36755 33.5879 4.32548C33.6144 4.24165 33.6408 4.1587 33.6673 4.07666C33.681 4.03442 33.6974 3.99378 33.7163 3.95489C33.724 3.91241 33.7348 3.86996 33.7488 3.82778C33.7767 3.74373 33.8046 3.66071 33.8326 3.57877C33.8471 3.53647 33.8643 3.49584 33.884 3.45701C33.8926 3.41437 33.9042 3.37181 33.9191 3.32958C33.9489 3.24518 33.9788 3.16201 34.0087 3.08013C34.0242 3.0377 34.0425 2.99705 34.0633 2.95828C34.073 2.91539 34.0858 2.87265 34.1019 2.83033C34.1342 2.7454 34.1667 2.66196 34.1993 2.58009C34.2162 2.53748 34.236 2.49676 34.2583 2.45807C34.2694 2.41481 34.2838 2.3718 34.3016 2.32933C34.3377 2.24332 34.374 2.15913 34.4105 2.07692C34.4297 2.03365 34.4519 1.99253 34.4766 1.95366C34.49 1.90946 34.5069 1.86568 34.5274 1.82265C34.5478 1.77992 34.5682 1.73776 34.5888 1.69619C34.6088 1.65582 34.629 1.61565 34.6494 1.57579C34.6708 1.53398 34.6949 1.49442 34.7214 1.45721C34.7378 1.41379 34.7576 1.37101 34.7809 1.32922C34.8295 1.24239 34.8804 1.15615 34.934 1.07206C34.9636 1.02564 34.9966 0.982637 35.0325 0.943162C35.0581 0.894073 35.0884 0.846517 35.1235 0.801092C35.1989 0.703555 35.2834 0.60626 35.3786 0.514674C35.4343 0.461004 35.495 0.415391 35.5592 0.377819C35.6154 0.32147 35.6798 0.271214 35.752 0.228828C35.9081 0.137113 36.0844 0.0650262 36.2799 0.0256101C36.3781 0.00583654 36.4757 0.00160117 36.5703 0.0111921ZM36.4028 2.32615C36.4228 2.29815 36.4414 2.2688 36.4585 2.23814C36.4928 2.17681 36.5252 2.1223 36.556 2.07401C36.5711 2.05033 36.585 2.02624 36.5977 2.00181C36.6148 1.98299 36.6313 1.96335 36.6471 1.9429C36.6546 1.93321 36.6617 1.92436 36.6684 1.91627C36.6732 1.91924 36.678 1.92216 36.6829 1.92506C36.7005 1.93551 36.7201 1.94784 36.7416 1.96232L36.8493 2.03479C36.8857 2.05934 36.9233 2.08108 36.9618 2.10004C36.9936 2.12841 37.0278 2.15501 37.0642 2.17957L37.2787 2.32424C37.315 2.34875 37.3524 2.37047 37.3906 2.38944C37.4223 2.41777 37.4563 2.44435 37.4925 2.4689L37.7057 2.61368C37.7417 2.63823 37.7789 2.66 37.8169 2.67906C37.8484 2.70742 37.8821 2.73404 37.9181 2.75866C37.9887 2.80705 38.0592 2.85548 38.1296 2.90397C38.1654 2.92863 38.2022 2.95055 38.24 2.96976C38.2711 2.9982 38.3045 3.02494 38.3402 3.04971C38.4102 3.09838 38.4801 3.14713 38.5497 3.19597C38.5851 3.22081 38.6217 3.24293 38.6591 3.26239C38.6899 3.29098 38.7229 3.31789 38.7582 3.34288C38.8275 3.39199 38.8966 3.4412 38.9654 3.49054C39.0005 3.51562 39.0366 3.53803 39.0737 3.55781C39.104 3.5866 39.1366 3.61376 39.1714 3.63903C39.2399 3.68871 39.3081 3.73851 39.3761 3.78847C39.4106 3.81388 39.4463 3.83664 39.483 3.8568C39.5128 3.88586 39.5449 3.91332 39.5792 3.93895C39.6467 3.98931 39.7139 4.03984 39.7808 4.09056C39.8148 4.11634 39.85 4.13953 39.8862 4.16015C39.9154 4.18952 39.9469 4.21735 39.9807 4.2434C40.0471 4.29459 40.1132 4.34598 40.1789 4.39759C40.2123 4.42383 40.247 4.44751 40.2827 4.46866C40.3112 4.49841 40.3421 4.52667 40.3753 4.55319C40.4404 4.60533 40.5052 4.65769 40.5696 4.7103C40.6024 4.73705 40.6364 4.76128 40.6715 4.78303C40.6993 4.8132 40.7295 4.84193 40.7619 4.86899C40.8257 4.92219 40.8891 4.97564 40.9521 5.02936C40.9841 5.05667 41.0174 5.08152 41.0518 5.10393C41.0789 5.13456 41.1082 5.16383 41.1399 5.19148C41.2022 5.24584 41.264 5.30049 41.3254 5.35545C41.3566 5.38338 41.3891 5.40891 41.4228 5.43204C41.449 5.46318 41.4775 5.49301 41.5083 5.52132C41.5689 5.57694 41.629 5.63288 41.6886 5.68916C41.719 5.71776 41.7507 5.74401 41.7836 5.76792C41.8088 5.7996 41.8363 5.83005 41.8662 5.85904C41.9249 5.91601 41.9832 5.97333 42.041 6.03102C42.0703 6.06033 42.1011 6.08735 42.1332 6.11208C42.1573 6.14433 42.1838 6.17543 42.2127 6.20515C42.2694 6.26355 42.3257 6.32233 42.3814 6.38151C42.4097 6.41156 42.4395 6.43939 42.4707 6.46499C42.4937 6.49783 42.5191 6.5296 42.5469 6.56009C42.6014 6.61995 42.6555 6.68023 42.709 6.74095C42.7362 6.77178 42.7649 6.80045 42.7951 6.82695C42.8169 6.8604 42.8411 6.89286 42.8677 6.92413C42.92 6.98552 42.9717 7.04737 43.0229 7.10967C43.0489 7.1413 43.0765 7.17084 43.1056 7.19827C43.1262 7.23234 43.1491 7.26552 43.1745 7.29759C43.2243 7.36056 43.2736 7.42399 43.3224 7.48793C43.3471 7.52036 43.3735 7.55079 43.4014 7.57917C43.4206 7.61385 43.4423 7.64774 43.4664 7.68062C43.5136 7.74511 43.5603 7.81011 43.6064 7.87564C43.6298 7.90888 43.6549 7.94018 43.6817 7.96951C43.6995 8.0048 43.7197 8.03938 43.7424 8.07306C43.7647 8.10618 43.7869 8.13943 43.809 8.17282C43.8293 8.20359 43.8496 8.23482 43.87 8.26652C43.8908 8.29904 43.9134 8.32988 43.9374 8.35899C43.9529 8.39339 43.9707 8.42725 43.9908 8.46039C44.0299 8.52492 44.0689 8.59105 44.1078 8.65875C44.1272 8.69257 44.1485 8.72476 44.1713 8.75526C44.1854 8.79065 44.2017 8.82558 44.2205 8.85988C44.2572 8.92698 44.2936 8.9954 44.3299 9.06508C44.3482 9.10027 44.3685 9.13385 44.3905 9.16575C44.4033 9.20226 44.4185 9.2384 44.4361 9.27398C44.4705 9.34318 44.5047 9.41348 44.5385 9.48483C44.5556 9.52077 44.5746 9.55516 44.5955 9.58792C44.607 9.62494 44.621 9.66167 44.6374 9.69793C44.6697 9.76904 44.7017 9.84107 44.7333 9.91398C44.7493 9.95073 44.7673 9.98596 44.7873 10.0196C44.7976 10.0572 44.8104 10.0946 44.8258 10.1317C44.8558 10.2039 44.8855 10.277 44.9149 10.3507C44.9297 10.3881 44.9468 10.4241 44.9658 10.4585C44.975 10.4966 44.9867 10.5346 45.001 10.5722C45.029 10.6457 45.0566 10.7199 45.0838 10.7947C45.0976 10.8325 45.1136 10.8689 45.1316 10.9039C45.1397 10.9422 45.1503 10.9805 45.1635 11.0185C45.1895 11.0932 45.2151 11.1685 45.2403 11.2442C45.253 11.2825 45.2679 11.3193 45.2849 11.3547C45.2919 11.3933 45.3014 11.4319 45.3136 11.4703C45.3375 11.5457 45.361 11.6215 45.384 11.6978C45.3957 11.7365 45.4096 11.7739 45.4257 11.8099C45.4317 11.8488 45.4401 11.8877 45.4513 11.9265C45.4731 12.0026 45.4944 12.0789 45.5153 12.1557C45.5259 12.1946 45.5389 12.2324 45.554 12.2688C45.5589 12.3078 45.5663 12.347 45.5764 12.3861C45.5961 12.4628 45.6154 12.5398 45.6341 12.617C45.6436 12.6562 45.6555 12.6942 45.6696 12.731C45.6734 12.77 45.6797 12.8093 45.6887 12.8487C45.7064 12.9259 45.7235 13.0034 45.7401 13.0811C45.7485 13.1204 45.7593 13.1587 45.7723 13.1958C45.775 13.2349 45.7803 13.2743 45.7881 13.3138C45.8036 13.3914 45.8185 13.4692 45.8329 13.5471C45.8402 13.5867 45.8499 13.6252 45.8618 13.6626C45.8635 13.7017 45.8676 13.7412 45.8743 13.7808C45.8875 13.8588 45.9001 13.9368 45.9122 14.0149C45.9183 14.0545 45.9269 14.0932 45.9377 14.1308C45.9381 14.1699 45.9411 14.2094 45.9466 14.2491C45.9575 14.3273 45.9678 14.4055 45.9774 14.4837C45.9823 14.5234 45.9897 14.5622 45.9993 14.6C45.9986 14.639 46.0003 14.6785 46.0046 14.7182C46.013 14.7965 46.0208 14.8747 46.028 14.9529C46.0316 14.9926 46.0377 15.0315 46.0461 15.0695C46.0441 15.1083 46.0445 15.1477 46.0475 15.1875C46.0534 15.2657 46.0586 15.3438 46.0631 15.4217C46.0654 15.4614 46.0702 15.5004 46.0772 15.5385C46.074 15.5771 46.073 15.6163 46.0746 15.656C46.0778 15.7341 46.0802 15.812 46.082 15.8896C46.0829 15.9291 46.0862 15.9681 46.0919 16.0062C46.0872 16.0445 46.0849 16.0834 46.085 16.1229C46.0853 16.2008 46.0848 16.2784 46.0836 16.3557C46.083 16.3949 46.0848 16.4336 46.089 16.4717C46.0829 16.5095 46.0791 16.548 46.0777 16.5872C46.0749 16.6647 46.0713 16.7418 46.067 16.8186C46.0648 16.8575 46.065 16.8961 46.0675 16.9341C46.0599 16.9713 46.0545 17.0095 46.0514 17.0483C46.0454 17.125 46.0385 17.2012 46.0308 17.2769C46.0269 17.3155 46.0254 17.3538 46.0262 17.3916C46.017 17.4283 46.0099 17.4659 46.005 17.5044C45.9955 17.58 45.9852 17.6551 45.9739 17.7296C45.9682 17.7676 45.9649 17.8054 45.9638 17.8429C45.9528 17.8788 45.9439 17.9157 45.9372 17.9535C45.924 18.028 45.9099 18.1018 45.8948 18.175C45.8872 18.2122 45.8819 18.2493 45.8788 18.2862C45.8661 18.321 45.8553 18.3568 45.8466 18.3937C45.8295 18.4667 45.8113 18.539 45.7922 18.6105C45.7825 18.6468 45.7751 18.6832 45.7699 18.7194C45.7553 18.7531 45.7425 18.7879 45.7317 18.8238C45.7104 18.8945 45.6881 18.9644 45.6649 19.0334C45.653 19.0686 45.6434 19.1041 45.6359 19.1396C45.6193 19.1718 45.6043 19.2053 45.5913 19.2401C45.5785 19.274 45.5655 19.3078 45.5522 19.3413C45.5379 19.3775 45.5233 19.4136 45.5086 19.4497C45.4936 19.4864 45.4811 19.5235 45.471 19.5608C45.4513 19.5942 45.4334 19.6291 45.4176 19.6655C45.3865 19.7372 45.3546 19.8086 45.322 19.8798C45.3054 19.916 45.2913 19.9527 45.2796 19.9897C45.2584 20.0224 45.2391 20.0567 45.2217 20.0926C45.1875 20.1632 45.1526 20.2336 45.117 20.3038C45.0988 20.3394 45.0832 20.3757 45.07 20.4123C45.0475 20.4442 45.0267 20.4779 45.0079 20.5132C44.9708 20.5827 44.933 20.652 44.8946 20.7209C44.8751 20.7559 44.858 20.7917 44.8434 20.8279C44.8196 20.8591 44.7975 20.892 44.7772 20.9267C44.7374 20.9951 44.697 21.0631 44.6559 21.1307C44.635 21.1651 44.6166 21.2003 44.6006 21.2361C44.5756 21.2664 44.5522 21.2987 44.5307 21.3327C44.4883 21.3998 44.4453 21.4664 44.4017 21.5327C44.3796 21.5664 44.3599 21.601 44.3426 21.6363C44.3165 21.6658 44.2919 21.6972 44.2691 21.7306C44.2242 21.7963 44.1788 21.8616 44.1329 21.9264C44.1095 21.9594 44.0886 21.9934 44.0701 22.0281C44.0429 22.0567 44.0172 22.0874 43.9933 22.12C43.9461 22.1842 43.8984 22.248 43.8502 22.3112C43.8257 22.3435 43.8035 22.3768 43.7838 22.4109C43.7556 22.4387 43.7288 22.4685 43.7037 22.5003C43.6543 22.5631 43.6044 22.6253 43.5542 22.6869C43.5286 22.7183 43.5053 22.7508 43.4844 22.7842C43.4553 22.811 43.4276 22.8399 43.4015 22.8709C43.3498 22.9321 43.2978 22.9927 43.2454 23.0527C43.2188 23.0832 43.1944 23.115 43.1724 23.1477C43.1424 23.1735 43.1137 23.2015 43.0865 23.2316C43.0329 23.291 42.979 23.3496 42.9248 23.4077C42.8971 23.4373 42.8717 23.4682 42.8485 23.5002C42.8177 23.525 42.788 23.552 42.7598 23.5812C42.7041 23.6388 42.6482 23.6957 42.592 23.7518C42.5634 23.7804 42.537 23.8104 42.5128 23.8415C42.4812 23.8652 42.4507 23.8911 42.4216 23.9192C42.3641 23.9747 42.3064 24.0294 42.2486 24.0833C42.2189 24.1109 42.1915 24.1399 42.1663 24.1701C42.1338 24.1927 42.1024 24.2175 42.0723 24.2445C42.0129 24.2979 41.9533 24.3505 41.8936 24.4021C41.8632 24.4284 41.8349 24.4563 41.8087 24.4854C41.7756 24.5066 41.7435 24.5301 41.7126 24.5558C41.6514 24.6068 41.5902 24.6567 41.5291 24.7057C41.4977 24.7308 41.4684 24.7574 41.4411 24.7854C41.4073 24.8053 41.3744 24.8275 41.3425 24.8519C41.2795 24.9003 41.2166 24.9476 41.1538 24.9937C41.1217 25.0173 41.0915 25.0425 41.0633 25.069C41.029 25.0873 40.9955 25.1079 40.9629 25.1307C40.8984 25.1759 40.834 25.2199 40.77 25.2627C40.7372 25.2845 40.7062 25.3081 40.6771 25.3331C40.6424 25.3496 40.6083 25.3683 40.575 25.3893C40.5088 25.4312 40.443 25.4717 40.3776 25.5107C40.3441 25.5306 40.3123 25.5523 40.2822 25.5755C40.2471 25.59 40.2125 25.6067 40.1785 25.6257C40.1111 25.6634 40.0443 25.6994 39.9782 25.7338C39.9443 25.7514 39.9119 25.7708 39.8811 25.7917C39.8459 25.8038 39.8111 25.818 39.7768 25.8344C39.7685 25.8384 39.7603 25.8423 39.7521 25.8462C39.7634 25.8127 39.7727 25.7791 39.78 25.7454C39.8007 25.7064 39.8188 25.6654 39.8341 25.6228C39.8635 25.5409 39.8932 25.457 39.923 25.3709C39.9378 25.3282 39.9493 25.2851 39.9576 25.2419C39.9773 25.2025 39.9945 25.1612 40.0088 25.1182C40.0364 25.0353 40.0641 24.9507 40.0917 24.8645C40.1055 24.8214 40.116 24.778 40.1233 24.7346C40.1421 24.6947 40.1583 24.653 40.1716 24.6097C40.1974 24.5257 40.2231 24.4403 40.2486 24.3537C40.2614 24.3101 40.2708 24.2664 40.2771 24.2227C40.295 24.1823 40.3102 24.1401 40.3225 24.0964C40.3464 24.0113 40.37 23.9251 40.3933 23.8378C40.405 23.7938 40.4134 23.7497 40.4186 23.7057C40.4355 23.6647 40.4496 23.6221 40.4608 23.5779C40.4825 23.492 40.5039 23.4053 40.5248 23.3177C40.5354 23.2734 40.5426 23.2291 40.5467 23.185C40.5624 23.1436 40.5755 23.1006 40.5854 23.0561C40.6049 22.9692 40.624 22.8815 40.6425 22.7931C40.6519 22.7483 40.6579 22.7036 40.6607 22.6593C40.6754 22.6172 40.6872 22.5737 40.6959 22.5287C40.713 22.4408 40.7296 22.3523 40.7455 22.2632C40.7535 22.2181 40.7582 22.1732 40.7596 22.1287C40.7731 22.0862 40.7836 22.0422 40.7909 21.9969C40.8054 21.9082 40.8192 21.8189 40.8323 21.7292C40.8389 21.6836 40.8421 21.6383 40.8421 21.5935C40.8542 21.5504 40.8634 21.5058 40.8693 21.4601C40.8808 21.3704 40.8916 21.2803 40.9017 21.1898C40.9068 21.1439 40.9084 21.0983 40.9068 21.0535C40.9175 21.0097 40.925 20.9647 40.9293 20.9187C40.9377 20.8282 40.9452 20.7373 40.9519 20.6462C40.9553 20.5998 40.9553 20.5539 40.952 20.5089C40.961 20.4645 40.9668 20.419 40.9693 20.3725C40.9742 20.2812 40.9782 20.1896 40.9812 20.0978C40.9827 20.051 40.9808 20.005 40.9756 19.9598C40.9828 19.9149 40.9868 19.8689 40.9873 19.8221C40.9878 19.776 40.9881 19.73 40.9881 19.6838V19.5622C40.9881 19.5204 40.9853 19.4787 40.9799 19.4383C40.9853 19.3979 40.9881 19.3567 40.9881 19.3149V19.0689C40.9881 19.0271 40.9853 18.9848 40.9799 18.9444C40.9853 18.904 40.9881 18.8628 40.9881 18.8209V18.5749C40.9881 18.5331 40.9853 18.491 40.98 18.4507C40.9853 18.4104 40.9881 18.3693 40.9881 18.3276V18.082C40.9881 18.0402 40.9853 17.998 40.9799 17.9576C40.9853 17.9173 40.9881 17.8761 40.9881 17.8343V17.5884C40.9881 17.5465 40.9853 17.5044 40.9799 17.464C40.9853 17.4236 40.9881 17.3824 40.9881 17.3406V17.0949C40.9881 17.0531 40.9853 17.0109 40.9799 16.9705C40.9853 16.9302 40.9881 16.889 40.9881 16.8472V16.6013C40.9881 16.5595 40.9853 16.5174 40.9799 16.477C40.9853 16.4366 40.9881 16.3955 40.9881 16.3537V16.1081C40.9881 16.0663 40.9853 16.0241 40.9799 15.9837C40.9853 15.9434 40.9881 15.9022 40.9881 15.8603V15.6143C40.9881 15.5725 40.9853 15.5303 40.9799 15.4899C40.9853 15.4495 40.9881 15.4083 40.9881 15.3665V15.1207C40.9881 15.0789 40.9853 15.0368 40.9799 14.9964C40.9853 14.9561 40.9881 14.9149 40.9881 14.8731V14.6276C40.9881 14.5859 40.9853 14.5438 40.98 14.5035C40.9853 14.4632 40.9881 14.422 40.9881 14.3803V14.1348C40.9881 14.093 40.9853 14.0508 40.9799 14.0105C40.9853 13.9701 40.9881 13.9289 40.9881 13.8871V13.641C40.9881 13.599 40.9853 13.5568 40.9799 13.5163C40.9853 13.4758 40.9881 13.4345 40.9881 13.3926V13.1461C40.9881 13.1045 40.9853 13.0626 40.98 13.0224C40.9853 12.9823 40.9881 12.9413 40.9881 12.8997V12.6523C40.9881 12.6108 40.9853 12.5691 40.98 12.529C40.9853 12.4889 40.9881 12.448 40.9881 12.4065V12.2852L40.9126 12.284C40.7671 11.946 40.427 11.709 40.0306 11.709C39.6343 11.709 39.2941 11.9461 39.1487 12.284H39.0732V12.4056C39.0732 12.4471 39.0759 12.4889 39.0812 12.529C39.0759 12.5691 39.0732 12.61 39.0732 12.6515V12.8986C39.0732 12.9402 39.0759 12.9823 39.0812 13.0224C39.0759 13.0626 39.0732 13.1036 39.0732 13.1452V13.3916C39.0732 13.4335 39.0759 13.4758 39.0813 13.5163C39.0759 13.5568 39.0732 13.5981 39.0732 13.64V13.8861C39.0732 13.9279 39.0759 13.9701 39.0813 14.0105C39.0759 14.0508 39.0732 14.092 39.0732 14.1338V14.3793C39.0732 14.4211 39.0759 14.4632 39.0813 14.5035C39.0759 14.5438 39.0732 14.5849 39.0732 14.6267V14.8722C39.0732 14.914 39.0759 14.9561 39.0813 14.9964C39.0759 15.0368 39.0732 15.0779 39.0732 15.1197V15.3655C39.0732 15.4073 39.0759 15.4495 39.0813 15.4899C39.0759 15.5303 39.0732 15.5715 39.0732 15.6134V15.8594C39.0732 15.9012 39.0759 15.9434 39.0813 15.9837C39.0759 16.0241 39.0732 16.0653 39.0732 16.1072V16.3527C39.0732 16.3945 39.0759 16.4366 39.0813 16.477C39.0759 16.5174 39.0732 16.5586 39.0732 16.6004V16.8462C39.0732 16.888 39.0759 16.9302 39.0813 16.9705C39.0759 17.0109 39.0732 17.0521 39.0732 17.0939V17.3396C39.0732 17.3814 39.0759 17.4236 39.0813 17.464C39.0759 17.5044 39.0732 17.5456 39.0732 17.5874V17.8333C39.0732 17.8751 39.0759 17.9173 39.0813 17.9576C39.0759 17.998 39.0732 18.0392 39.0732 18.081V18.3266C39.0732 18.3684 39.0759 18.4104 39.0813 18.4507C39.0759 18.491 39.0732 18.5322 39.0732 18.5739V18.8199C39.0732 18.8618 39.0759 18.904 39.0813 18.9444C39.0759 18.9848 39.0732 19.0261 39.0732 19.0679V19.3139C39.0732 19.3558 39.0759 19.3979 39.0813 19.4383C39.0759 19.4787 39.0732 19.5199 39.0732 19.5618V19.6833C39.0732 19.7225 39.0729 19.7621 39.0725 19.8014C39.0721 19.8413 39.0741 19.8806 39.0786 19.9193C39.0724 19.9577 39.0686 19.997 39.0673 20.037C39.0647 20.1157 39.0613 20.1945 39.0571 20.2733C39.0549 20.3134 39.0554 20.3531 39.0583 20.3922C39.0504 20.4307 39.045 20.4701 39.042 20.5102C39.0362 20.5894 39.0296 20.6685 39.0223 20.7476C39.0186 20.7878 39.0175 20.8277 39.0189 20.8671C39.0096 20.9054 39.0026 20.9448 38.9981 20.985C38.9893 21.0645 38.9798 21.1438 38.9696 21.2229C38.9644 21.2633 38.9618 21.3034 38.9619 21.3431C38.9511 21.3813 38.9427 21.4207 38.9369 21.461C38.9252 21.5406 38.913 21.6199 38.9001 21.6989C38.8936 21.7392 38.8897 21.7793 38.8884 21.8191C38.8764 21.8571 38.8667 21.8963 38.8596 21.9365C38.8453 22.0162 38.8305 22.0955 38.8152 22.1744C38.8073 22.2148 38.8022 22.255 38.7997 22.2949C38.7865 22.3328 38.7756 22.3719 38.7671 22.4122C38.7504 22.4918 38.7333 22.5709 38.7156 22.6494C38.7066 22.6896 38.7003 22.7297 38.6967 22.7697C38.6824 22.8072 38.6704 22.8461 38.6608 22.8861C38.6418 22.9655 38.6224 23.0443 38.6027 23.1223C38.5925 23.1624 38.5852 23.2026 38.5805 23.2426C38.565 23.28 38.5519 23.3188 38.5412 23.3588C38.52 23.4383 38.4985 23.5169 38.4767 23.5946C38.4655 23.6346 38.457 23.6746 38.4513 23.7145C38.4349 23.7515 38.4208 23.79 38.4091 23.8298C38.3858 23.909 38.3623 23.9872 38.3387 24.0642C38.3265 24.1038 38.3171 24.1437 38.3104 24.1835C38.2931 24.2201 38.278 24.2583 38.2654 24.2978C38.2401 24.3769 38.2147 24.4545 38.1893 24.5307C38.1762 24.5701 38.1658 24.6098 38.1581 24.6495C38.14 24.6858 38.124 24.7236 38.1104 24.7629C38.0831 24.8419 38.0558 24.9191 38.0288 24.9943C38.0147 25.0335 38.0034 25.073 37.9948 25.1126C37.9758 25.1485 37.959 25.186 37.9444 25.225C37.9149 25.3043 37.8858 25.3809 37.8573 25.4548C37.8423 25.4936 37.8301 25.5328 37.8206 25.5721C37.8008 25.6075 37.783 25.6446 37.7676 25.6832C37.7358 25.7627 37.7051 25.8381 37.6757 25.9092C37.6689 25.9255 37.6627 25.9419 37.6569 25.9584C37.6381 25.9551 37.6192 25.9524 37.6005 25.9502C37.5664 25.9369 37.5312 25.9254 37.4949 25.9157C37.4243 25.897 37.3532 25.877 37.2819 25.8556C37.246 25.8449 37.2101 25.8364 37.1741 25.8299C37.1411 25.8145 37.1068 25.8008 37.0714 25.789C37.0023 25.7658 36.9331 25.7414 36.8638 25.7157C36.829 25.7028 36.7939 25.692 36.7587 25.6832C36.727 25.6658 36.6939 25.65 36.6596 25.6359C36.5926 25.6084 36.5257 25.5797 36.4591 25.5496C36.4255 25.5345 36.3915 25.5214 36.3572 25.5104C36.3271 25.491 36.2955 25.4731 36.2626 25.4568C36.1982 25.4249 36.1341 25.3918 36.0705 25.3575C36.0385 25.3401 36.0059 25.3248 35.9728 25.3114C35.9445 25.2901 35.9146 25.2701 35.8833 25.2516C35.822 25.2155 35.7613 25.1781 35.7012 25.1394C35.6709 25.1199 35.6399 25.1023 35.6083 25.0865C35.582 25.0633 35.5541 25.0413 35.5247 25.0207C35.4671 24.9802 35.4102 24.9386 35.354 24.8956C35.3257 24.8739 35.2965 24.8541 35.2667 24.836C35.2426 24.811 35.2169 24.787 35.1896 24.7642C35.1361 24.7196 35.0834 24.6738 35.0316 24.6266C35.0054 24.6028 34.9783 24.5808 34.9504 24.5604C34.9287 24.5336 34.9054 24.5077 34.8804 24.4828C34.8314 24.4342 34.7833 24.3842 34.7362 24.333C34.7125 24.3072 34.6876 24.283 34.6618 24.2604C34.6428 24.232 34.6221 24.2044 34.5996 24.1776C34.5555 24.1252 34.5125 24.0715 34.4704 24.0164C34.4491 23.9887 34.4266 23.9624 34.403 23.9376C34.3867 23.9077 34.3686 23.8783 34.3487 23.8497C34.3098 23.7936 34.2717 23.7362 34.2348 23.6774C34.2161 23.6477 34.1961 23.6195 34.1747 23.5926C34.1612 23.5612 34.1458 23.5302 34.1285 23.4997C34.0948 23.4402 34.062 23.3794 34.0302 23.3171C34.0143 23.2859 33.9969 23.2559 33.978 23.2272C33.9673 23.1946 33.9547 23.1623 33.9402 23.1304C33.9117 23.0679 33.8843 23.0041 33.8579 22.9389C33.8446 22.906 33.8296 22.8742 33.8131 22.8437C33.8052 22.8099 33.7953 22.7762 33.7833 22.7427C33.76 22.6773 33.7378 22.6106 33.7166 22.5424C33.706 22.5083 33.6936 22.4753 33.6796 22.4433C33.6744 22.4088 33.6672 22.3742 33.6579 22.3397C33.6487 22.3053 33.6397 22.2706 33.631 22.2355L33.6004 22.1102C33.5901 22.0676 33.577 22.0265 33.5614 21.9868C33.5576 21.9444 33.5509 21.9018 33.5411 21.8591C33.5218 21.7752 33.503 21.6913 33.4847 21.6075C33.4753 21.5647 33.4632 21.5233 33.4485 21.4833C33.4457 21.4409 33.4399 21.3982 33.431 21.3553C33.4136 21.2711 33.3967 21.1869 33.3803 21.1027C33.3719 21.0598 33.3607 21.0181 33.3469 20.9778C33.3451 20.9354 33.3403 20.8925 33.3324 20.8495C33.3169 20.765 33.3019 20.6805 33.2874 20.596C33.28 20.5529 33.2698 20.511 33.2569 20.4705C33.256 20.428 33.2522 20.3851 33.2453 20.342C33.2318 20.2572 33.2187 20.1724 33.2062 20.0876C33.1998 20.0444 33.1906 20.0023 33.1786 19.9615C33.1787 19.919 33.1759 19.8761 33.17 19.8328C33.1585 19.7478 33.1474 19.6627 33.1368 19.5777C33.1315 19.5344 33.1232 19.4921 33.1122 19.4511C33.1133 19.4086 33.1115 19.3656 33.1066 19.3223C33.0971 19.237 33.088 19.1518 33.0794 19.0666C33.0751 19.0232 33.0678 18.9807 33.0578 18.9395C33.0599 18.8971 33.0591 18.8541 33.0553 18.8106L33.0443 18.6825L33.0348 18.5637C33.0317 18.5234 33.0261 18.484 33.0181 18.4454C33.0205 18.4061 33.0205 18.3663 33.0178 18.326C33.0126 18.2467 33.0078 18.1674 33.0035 18.0881C33.0012 18.0478 32.9965 18.0082 32.9894 17.9695C32.9926 17.9303 32.9935 17.8904 32.9917 17.8501C32.9882 17.7707 32.9852 17.6913 32.9826 17.612C32.9813 17.5716 32.9774 17.5319 32.9711 17.4931C32.9753 17.454 32.977 17.4141 32.9761 17.3738C32.9744 17.2944 32.9731 17.215 32.9723 17.1356C32.9719 17.0952 32.9689 17.0555 32.9635 17.0165C32.9685 16.9775 32.9711 16.9377 32.9711 16.8973C32.9711 16.8179 32.9716 16.7385 32.9726 16.6591C32.973 16.6187 32.9709 16.5789 32.9664 16.5398C32.9722 16.5009 32.9757 16.4612 32.9766 16.4208C32.9784 16.3414 32.9807 16.2621 32.9834 16.1827C32.9847 16.1423 32.9835 16.1025 32.9798 16.0633C32.9866 16.0245 32.9909 15.9849 32.9927 15.9446C32.9963 15.8652 33.0003 15.7859 33.0047 15.7066C33.007 15.6663 33.0066 15.6264 33.0038 15.5871C33.0114 15.5485 33.0167 15.509 33.0194 15.4687C33.0247 15.3895 33.0304 15.3102 33.0366 15.231C33.0398 15.1907 33.0403 15.1508 33.0383 15.1115C33.0468 15.0731 33.0529 15.0336 33.0565 14.9934C33.0635 14.9143 33.071 14.8352 33.079 14.7561C33.083 14.7159 33.0844 14.676 33.0833 14.6366C33.0926 14.5984 33.0996 14.5591 33.104 14.5189C33.1128 14.44 33.122 14.361 33.1317 14.282C33.1366 14.2419 33.1388 14.2021 33.1386 14.1627C33.1487 14.1246 33.1566 14.0854 33.1619 14.0454C33.1724 13.9666 33.1833 13.8878 33.1947 13.809C33.2005 13.769 33.2036 13.7292 33.2042 13.6898C33.2152 13.6519 33.2238 13.613 33.23 13.573C33.2422 13.4944 33.2548 13.4159 33.2679 13.3373C33.2745 13.2974 33.2785 13.2577 33.28 13.2183C33.2917 13.1806 33.3012 13.1418 33.3083 13.102C33.3222 13.0237 33.3365 12.9453 33.3512 12.867C33.3587 12.8272 33.3635 12.7876 33.3658 12.7482C33.3783 12.7108 33.3887 12.6721 33.3966 12.6324C33.4121 12.5544 33.428 12.4763 33.4444 12.3983C33.4527 12.3586 33.4584 12.3191 33.4615 12.2797C33.4748 12.2426 33.486 12.2041 33.4947 12.1646C33.5118 12.0868 33.5294 12.0091 33.5474 11.9313C33.5566 11.8918 33.563 11.8523 33.567 11.8131C33.5811 11.7761 33.593 11.7379 33.6026 11.6985L33.631 11.5822L33.6616 11.4589C33.6719 11.417 33.6793 11.3752 33.6838 11.3335C33.6993 11.2945 33.7123 11.254 33.7227 11.2122L33.7838 10.9657C33.7942 10.9239 33.8015 10.8821 33.806 10.8404C33.8215 10.8015 33.8346 10.761 33.845 10.7192L33.9062 10.473C33.9166 10.4313 33.924 10.3895 33.9285 10.3479C33.944 10.309 33.9571 10.2686 33.9675 10.2269L34.029 9.98082C34.0394 9.93913 34.0469 9.8974 34.0514 9.85585C34.067 9.81699 34.0802 9.77665 34.0906 9.73498L34.1524 9.48947C34.1629 9.44782 34.1704 9.40614 34.1751 9.36464C34.1907 9.32583 34.2039 9.28555 34.2145 9.24393L34.2768 8.99854C34.2874 8.95699 34.295 8.91539 34.2997 8.87396C34.3155 8.83525 34.3287 8.79507 34.3394 8.75354L34.4022 8.50899C34.4129 8.46747 34.4207 8.42588 34.4255 8.38446C34.4414 8.3458 34.4548 8.30566 34.4656 8.26416L34.5293 8.01974C34.5401 7.97837 34.548 7.93693 34.553 7.89565C34.569 7.85715 34.5825 7.81717 34.5934 7.77583L34.6579 7.53248C34.6689 7.49114 34.677 7.44973 34.6822 7.40846C34.6983 7.37002 34.712 7.3301 34.7231 7.2888L34.7889 7.04567C34.8001 7.00453 34.8083 6.9633 34.8138 6.92218C34.83 6.88396 34.8439 6.84425 34.8553 6.80316C34.8776 6.72199 34.8999 6.64137 34.9222 6.56132C34.9336 6.52034 34.9421 6.47925 34.9478 6.43826C34.9643 6.40023 34.9784 6.36069 34.99 6.31977C35.0129 6.23867 35.0358 6.1582 35.0587 6.0784C35.0704 6.03758 35.0792 5.99663 35.0852 5.95575C35.1019 5.91792 35.1164 5.87857 35.1282 5.83781C35.1518 5.75714 35.1753 5.67721 35.1987 5.59806C35.2107 5.55753 35.2199 5.51684 35.2262 5.47621C35.2433 5.4387 35.258 5.39966 35.2702 5.35922C35.2944 5.27904 35.3186 5.19974 35.3428 5.12135C35.3552 5.08112 35.3648 5.04071 35.3716 5.00033C35.3889 4.96318 35.4041 4.92449 35.4167 4.88437C35.4419 4.80453 35.467 4.72575 35.4921 4.64805C35.505 4.60815 35.5151 4.56804 35.5224 4.52791C35.5402 4.49116 35.5559 4.45286 35.5691 4.4131C35.5953 4.33402 35.6215 4.25621 35.6476 4.17971C35.6611 4.14035 35.6717 4.10074 35.6797 4.06107C35.698 4.02495 35.7142 3.98727 35.728 3.94811C35.7556 3.87003 35.783 3.79353 35.8104 3.71863C35.8245 3.68003 35.8359 3.64113 35.8447 3.60211C35.8636 3.56685 35.8805 3.53002 35.8951 3.4917C35.9242 3.41509 35.9532 3.34048 35.9821 3.26791C35.997 3.23046 36.0094 3.19264 36.0191 3.15464C36.0387 3.12067 36.0563 3.08513 36.0719 3.04809C36.1031 2.97354 36.1341 2.90168 36.1648 2.83254C36.1807 2.79669 36.1942 2.7604 36.2053 2.72385C36.2258 2.69175 36.2444 2.65809 36.2612 2.62294C36.2776 2.58847 36.2939 2.55491 36.31 2.52226C36.3268 2.48837 36.3433 2.45551 36.3597 2.42363C36.3761 2.39157 36.3904 2.35903 36.4028 2.32615ZM31.3012 20.2198C31.2883 20.1756 31.2785 20.13 31.2721 20.083C31.2595 19.9908 31.2476 19.8987 31.2361 19.8064C31.2303 19.7594 31.228 19.7128 31.2292 19.6668C31.2174 19.6224 31.2086 19.5765 31.2033 19.5294C31.193 19.437 31.1831 19.3445 31.1738 19.252C31.1732 19.2457 31.1726 19.2393 31.1721 19.233C31.1253 19.1952 31.0735 19.1536 31.0174 19.1088C30.9862 19.0839 30.957 19.0574 30.9299 19.0296C30.8965 19.0094 30.8641 18.9869 30.8327 18.9622C30.7737 18.9157 30.7115 18.867 30.6464 18.8163C30.6148 18.7917 30.5851 18.7656 30.5576 18.7381C30.5239 18.7182 30.491 18.6961 30.4593 18.6717C30.3984 18.625 30.3356 18.5771 30.2712 18.5283C30.2394 18.5042 30.2095 18.4785 30.1817 18.4515C30.1478 18.4321 30.1148 18.4105 30.0828 18.3867C30.0208 18.3403 29.9576 18.2935 29.8934 18.2462C29.8612 18.2226 29.831 18.1973 29.8028 18.1707C29.7687 18.1519 29.7354 18.1308 29.7031 18.1074C29.6402 18.0619 29.5766 18.0163 29.5125 17.9707C29.4802 17.9477 29.4498 17.9231 29.4213 17.897C29.3871 17.8789 29.3537 17.8585 29.3212 17.8358C29.2574 17.7913 29.1934 17.7471 29.1292 17.7032C29.0966 17.681 29.066 17.6571 29.0371 17.6318C29.0029 17.6145 28.9693 17.5949 28.9366 17.573C28.8722 17.53 28.8078 17.4876 28.7436 17.4458C28.7109 17.4245 28.68 17.4017 28.6509 17.3773C28.6166 17.361 28.5829 17.3425 28.55 17.3217C28.4849 17.2806 28.4203 17.2404 28.3562 17.2014C28.3236 17.1815 28.2925 17.1599 28.2632 17.1369C28.2291 17.122 28.1955 17.1049 28.1626 17.0856C28.0973 17.0474 28.033 17.0106 27.9698 16.9754C27.9374 16.9573 27.9064 16.9376 27.877 16.9165C27.8433 16.9035 27.8101 16.8884 27.7775 16.8713C27.7454 16.8545 27.7139 16.8383 27.6828 16.8226C27.6464 16.8042 27.6095 16.7858 27.5721 16.7673C27.5341 16.7485 27.4979 16.7276 27.4637 16.7047C27.4242 16.6919 27.3852 16.6764 27.3468 16.6581C27.2723 16.6226 27.1963 16.5872 27.1192 16.5518C27.0803 16.5339 27.0432 16.5138 27.0079 16.4916C26.9678 16.4797 26.9281 16.4651 26.8889 16.4477C26.8122 16.4136 26.7346 16.3797 26.6563 16.346C26.6167 16.3289 26.5789 16.3095 26.5429 16.2881C26.5023 16.277 26.4619 16.2632 26.4221 16.2466C26.344 16.2139 26.2655 16.1816 26.1865 16.1495C26.1464 16.1332 26.108 16.1146 26.0715 16.0938C26.0306 16.0835 25.9898 16.0705 25.9496 16.0546C25.8703 16.0234 25.7909 15.9925 25.7115 15.962C25.6711 15.9465 25.6323 15.9286 25.5953 15.9085C25.5542 15.8991 25.5132 15.8868 25.4726 15.8717C25.3924 15.8418 25.3124 15.8125 25.2327 15.7837C25.192 15.769 25.1529 15.7519 25.1155 15.7325C25.0743 15.7239 25.0331 15.7125 24.9922 15.6982C24.9113 15.6699 24.831 15.6422 24.7515 15.6153C24.7106 15.6015 24.6714 15.5853 24.6338 15.5668C24.5925 15.5591 24.5513 15.5486 24.5104 15.5353C24.4287 15.5087 24.3481 15.4829 24.2689 15.4582C24.2281 15.4455 24.1888 15.4303 24.1511 15.4129C24.1101 15.4063 24.0691 15.3969 24.0283 15.3848C23.9461 15.3603 23.8659 15.3371 23.7879 15.3152C23.7475 15.3039 23.7084 15.2902 23.6709 15.2743C23.6305 15.269 23.59 15.2612 23.5496 15.2507C23.4675 15.2293 23.3888 15.2097 23.3137 15.192C23.2747 15.1827 23.2368 15.1713 23.2002 15.1578C23.1617 15.1546 23.1231 15.1492 23.0843 15.1413C23.004 15.1249 22.9316 15.1118 22.8671 15.1017C22.8343 15.0966 22.8022 15.0899 22.7708 15.0817C22.7414 15.0822 22.7116 15.0813 22.6816 15.0791C22.6539 15.0771 22.6345 15.0765 22.6223 15.0765C22.5718 15.0765 22.5198 15.0756 22.4679 15.0742C22.4199 15.0729 22.3728 15.0682 22.3268 15.0602C22.2819 15.0644 22.2361 15.0655 22.1897 15.0633C22.137 15.0609 22.0811 15.0581 22.0246 15.0553C21.9929 15.0538 21.961 15.0522 21.9294 15.0507C21.8865 15.0486 21.8445 15.0438 21.8034 15.0364C21.7622 15.04 21.7203 15.041 21.6778 15.0392C21.5969 15.0359 21.5148 15.0329 21.4321 15.0306C21.3912 15.0295 21.3509 15.0258 21.3115 15.0198C21.2722 15.0243 21.2321 15.0265 21.1915 15.0261C21.1126 15.0254 21.0343 15.0256 20.9569 15.0268C20.918 15.0274 20.8797 15.0258 20.8421 15.0219C20.8051 15.028 20.7674 15.0321 20.7291 15.0339C20.6538 15.0375 20.581 15.0424 20.5109 15.0486C20.4757 15.0518 20.4408 15.053 20.4063 15.0524C20.3737 15.0607 20.3403 15.0673 20.3062 15.0722C20.2389 15.0819 20.1774 15.093 20.1217 15.1053C20.0947 15.1112 20.0677 15.116 20.0408 15.1196C20.0177 15.1293 19.994 15.1382 19.9699 15.1463C19.9488 15.1533 19.9306 15.1601 19.915 15.1664L19.915 15.1775C19.915 15.2164 19.9127 15.2547 19.9082 15.2923C19.9132 15.3292 19.9161 15.3667 19.9168 15.4048C19.9179 15.4775 19.9199 15.549 19.9229 15.6204C19.9245 15.6556 19.924 15.6905 19.9217 15.7249C19.9281 15.7584 19.9327 15.7926 19.9355 15.8273C19.9407 15.8936 19.9473 15.9607 19.9555 16.0291C19.9596 16.0628 19.9618 16.0963 19.9622 16.1295C19.9711 16.1616 19.9783 16.1944 19.9839 16.2279C19.9944 16.292 20.0066 16.3579 20.0207 16.4261C20.0277 16.4598 20.0328 16.4934 20.0361 16.5269C20.0478 16.5587 20.0579 16.5914 20.0662 16.6249C20.0823 16.6892 20.1001 16.7557 20.12 16.8247C20.1299 16.8587 20.1377 16.8929 20.1435 16.927C20.1579 16.9588 20.1707 16.9917 20.1817 17.0256C20.2029 17.0908 20.2259 17.1581 20.2508 17.2278C20.2631 17.2621 20.2732 17.2966 20.2813 17.3313C20.298 17.363 20.3131 17.3959 20.3263 17.43C20.3519 17.4958 20.3791 17.5635 20.4081 17.6332C20.4225 17.6677 20.4346 17.7026 20.4446 17.7376C20.4632 17.7692 20.4802 17.8022 20.4953 17.8365C20.5245 17.9028 20.5553 17.9707 20.5877 18.0405C20.6037 18.0749 20.6174 18.1098 20.6289 18.145C20.649 18.1764 20.6675 18.2092 20.6841 18.2434C20.7005 18.2772 20.7172 18.3113 20.7343 18.3458C20.756 18.3897 20.7772 18.434 20.798 18.4787C20.8188 18.5234 20.8357 18.569 20.849 18.615C20.8736 18.6555 20.8954 18.6984 20.9141 18.7434C20.9496 18.8288 20.9839 18.9157 21.0172 19.0039C21.0336 19.0473 21.0465 19.0911 21.0561 19.135C21.0769 19.1747 21.095 19.2164 21.1102 19.2598C21.1393 19.343 21.1678 19.4274 21.1959 19.5129C21.2099 19.5553 21.2206 19.5981 21.2282 19.6408C21.2468 19.68 21.2628 19.7208 21.2761 19.7633C21.3017 19.845 21.327 19.9278 21.3522 20.0115C21.3648 20.0532 21.3743 20.0952 21.3808 20.137C21.3981 20.1757 21.413 20.2159 21.4252 20.2576C21.4488 20.3382 21.4724 20.4197 21.496 20.502C21.5078 20.5432 21.5167 20.5845 21.5227 20.6257C21.5393 20.6639 21.5536 20.7036 21.5653 20.7448L21.6336 20.9859C21.6451 21.0265 21.6537 21.0672 21.6595 21.1078C21.6758 21.1455 21.6898 21.1846 21.7013 21.2251L21.769 21.4631C21.7804 21.5033 21.7891 21.5436 21.795 21.5839C21.8113 21.6211 21.8254 21.6599 21.837 21.7C21.8595 21.7781 21.8824 21.8567 21.9056 21.9358C21.9173 21.9756 21.9262 22.0156 21.9325 22.0556C21.949 22.0925 21.9633 22.1309 21.9752 22.1706C21.9984 22.248 22.022 22.3259 22.046 22.4042C22.058 22.4435 22.0673 22.483 22.074 22.5225C22.0908 22.5588 22.1055 22.5967 22.1178 22.6359C22.1418 22.7124 22.1662 22.7894 22.1912 22.8667C22.2037 22.9057 22.2136 22.945 22.2209 22.9842C22.2382 23.0202 22.2534 23.0577 22.2663 23.0966C22.2916 23.1727 22.3173 23.249 22.3435 23.3257C22.3566 23.3642 22.3671 23.403 22.375 23.4418C22.3929 23.4772 22.4087 23.5142 22.4222 23.5525C22.4487 23.6276 22.4756 23.7029 22.5032 23.7785C22.5171 23.8167 22.5283 23.8552 22.537 23.8938C22.5556 23.9289 22.5721 23.9655 22.5865 24.0035C22.6144 24.0779 22.6429 24.1524 22.672 24.2272C22.6867 24.2649 22.6987 24.3029 22.7082 24.3411C22.7274 24.3755 22.7447 24.4115 22.7598 24.449C22.7893 24.5224 22.8195 24.596 22.8502 24.6698C22.8657 24.7072 22.8787 24.745 22.8891 24.7829C22.9092 24.8169 22.9273 24.8526 22.9433 24.8897C22.9745 24.962 23.0063 25.0345 23.0387 25.1071C23.0551 25.1439 23.0689 25.1811 23.0803 25.2186C23.1011 25.252 23.12 25.2869 23.1369 25.3235C23.17 25.3952 23.2038 25.467 23.2382 25.5389C23.2555 25.5751 23.2702 25.6118 23.2825 25.6488C23.3041 25.6814 23.3239 25.7157 23.3417 25.7517C23.3766 25.8221 23.4121 25.8927 23.4483 25.9633C23.4667 25.9991 23.4825 26.0355 23.4958 26.0723C23.5184 26.1044 23.5392 26.1383 23.558 26.1738C23.5948 26.243 23.6321 26.3122 23.6702 26.3815C23.6895 26.4167 23.7062 26.4525 23.7206 26.4888C23.744 26.5202 23.7657 26.5533 23.7856 26.5882C23.8243 26.6564 23.8637 26.7247 23.9039 26.793C23.9241 26.8275 23.9419 26.8627 23.9573 26.8984C23.9815 26.929 24.0041 26.9614 24.0249 26.9956C24.0657 27.0627 24.1071 27.1298 24.1493 27.197C24.1706 27.2308 24.1894 27.2654 24.2058 27.3006C24.231 27.3305 24.2545 27.3621 24.2763 27.3956C24.2978 27.4288 24.3194 27.4619 24.3413 27.495L24.4085 27.5961C24.4317 27.6309 24.4523 27.6666 24.4703 27.7031C24.4975 27.7335 24.523 27.766 24.5466 27.8006C24.5922 27.8673 24.6386 27.9344 24.6858 28.0019C24.7098 28.0362 24.7311 28.0715 24.7499 28.1076C24.7778 28.1374 24.804 28.1694 24.8284 28.2034C24.8755 28.2693 24.9233 28.3354 24.9719 28.4017C24.9965 28.4354 25.0186 28.4701 25.0381 28.5056C25.0665 28.5348 25.0933 28.566 25.1183 28.5994C25.1671 28.6645 25.2165 28.7297 25.2666 28.795C25.2919 28.828 25.3147 28.8621 25.335 28.8971C25.3639 28.9255 25.3913 28.9561 25.417 28.9888C25.4673 29.0529 25.5183 29.117 25.5699 29.1812C25.5958 29.2136 25.6193 29.2471 25.6404 29.2815C25.6699 29.3092 25.6979 29.3391 25.7243 29.3711C25.7761 29.434 25.8285 29.497 25.8816 29.5599C25.9083 29.5915 25.9325 29.6244 25.9543 29.6582C25.9844 29.6852 26.0131 29.7143 26.0402 29.7456C26.0935 29.8073 26.1474 29.869 26.2019 29.9305C26.2293 29.9614 26.2542 29.9936 26.2768 30.0268C26.3075 30.053 26.3369 30.0814 26.3646 30.112C26.4194 30.1723 26.4748 30.2325 26.5307 30.2925C26.5588 30.3227 26.5846 30.3542 26.6079 30.3868C26.6392 30.4121 26.6693 30.4397 26.6978 30.4695C26.754 30.5284 26.8108 30.587 26.8681 30.6454C26.897 30.6748 26.9235 30.7056 26.9477 30.7375C26.9796 30.762 27.0103 30.7887 27.0396 30.8177C27.0973 30.8749 27.1555 30.9319 27.2143 30.9886C27.2439 31.0172 27.2712 31.0471 27.2962 31.0784C27.3288 31.1019 27.3601 31.1278 27.3901 31.1559C27.4493 31.2114 27.5089 31.2666 27.5691 31.3215C27.5995 31.3491 27.6276 31.3783 27.6535 31.4087C27.6866 31.4313 27.7187 31.4563 27.7494 31.4835C27.81 31.5371 27.8711 31.5904 27.9327 31.6434C27.9638 31.6701 27.9928 31.6984 28.0195 31.728C28.0532 31.7495 28.086 31.7735 28.1175 31.7997C28.1795 31.8514 28.2421 31.9027 28.3051 31.9536C28.3369 31.9793 28.3667 32.0066 28.3943 32.0353C28.4286 32.0558 28.462 32.0787 28.4943 32.1039C28.5578 32.1535 28.6217 32.2027 28.6861 32.2514C28.7188 32.276 28.7493 32.3023 28.7778 32.3301C28.8127 32.3494 28.8467 32.3711 28.8798 32.3952C28.9447 32.4426 29.01 32.4895 29.0759 32.5359C29.1092 32.5594 29.1406 32.5847 29.1699 32.6114C29.2054 32.6295 29.2401 32.65 29.2738 32.673C29.3401 32.718 29.4069 32.7626 29.4741 32.8065C29.5082 32.8288 29.5403 32.8529 29.5705 32.8786C29.6065 32.8954 29.6419 32.9146 29.6763 32.9363C29.744 32.9789 29.8122 33.0209 29.8807 33.0623C29.9155 33.0833 29.9485 33.1062 29.9795 33.1307C30.016 33.1462 30.052 33.1641 30.0872 33.1844C30.1562 33.2244 30.2256 33.2638 30.2955 33.3025C30.331 33.3222 30.3647 33.3437 30.3966 33.367C30.4336 33.3811 30.4701 33.3976 30.506 33.4166C30.5763 33.4538 30.647 33.4903 30.7181 33.5263C30.7543 33.5445 30.7888 33.5647 30.8215 33.5867C30.859 33.5993 30.8961 33.6143 30.9326 33.6319C31.0041 33.6662 31.076 33.6998 31.1483 33.7328C31.1851 33.7496 31.2204 33.7684 31.2539 33.789C31.2918 33.8001 31.3295 33.8136 31.3666 33.8296C31.4392 33.8609 31.5122 33.8915 31.5857 33.9214C31.6231 33.9366 31.659 33.9539 31.6933 33.973C31.7315 33.9825 31.7696 33.9944 31.8073 34.0089C31.881 34.0371 31.9552 34.0646 32.0297 34.0913C32.0676 34.1049 32.1042 34.1206 32.1392 34.1383C32.1777 34.1461 32.2161 34.1564 32.2543 34.1692C32.3291 34.1942 32.4044 34.2185 32.48 34.242C32.5184 34.2539 32.5554 34.268 32.5911 34.2841C32.6299 34.2903 32.6686 34.2989 32.7072 34.3099C32.7831 34.3317 32.8593 34.3527 32.9359 34.3729C32.9747 34.3831 33.0123 34.3955 33.0486 34.41C33.0874 34.4144 33.1265 34.4213 33.1654 34.4306C33.2422 34.4491 33.3194 34.4667 33.397 34.4835C33.4361 34.492 33.4741 34.5027 33.5109 34.5155C33.5499 34.5182 33.589 34.5233 33.6283 34.5309C33.7058 34.5459 33.7838 34.5601 33.8621 34.5735C33.9015 34.5802 33.94 34.5892 33.9773 34.6003C34.0163 34.6013 34.0557 34.6047 34.0952 34.6105C34.1732 34.622 34.2515 34.6327 34.3303 34.6425C34.3701 34.6475 34.409 34.6548 34.447 34.6643C34.4861 34.6636 34.5257 34.6652 34.5656 34.6692C34.6438 34.6772 34.7224 34.6844 34.8014 34.6907C34.8416 34.694 34.881 34.6996 34.9195 34.7074C34.9588 34.7049 34.9986 34.7048 35.0389 34.7071C35.1171 34.7116 35.1957 34.7153 35.2748 34.7181C35.3152 34.7196 35.3549 34.7235 35.3937 34.7296C35.4329 34.7254 35.4727 34.7235 35.5131 34.7241C35.5917 34.7252 35.6706 34.7254 35.7499 34.7248C35.7902 34.7245 35.83 34.7267 35.869 34.7311C35.9078 34.7253 35.9475 34.7217 35.9878 34.7205C36.0669 34.7182 36.1464 34.7151 36.2264 34.7111C36.2665 34.7091 36.3062 34.7095 36.3452 34.7123C36.3837 34.7048 36.423 34.6996 36.4631 34.6967C36.5424 34.6911 36.6221 34.6846 36.7022 34.6773C36.7423 34.6736 36.782 34.6724 36.8213 34.6736C36.8595 34.6645 36.8987 34.6576 36.9387 34.6531C37.0174 34.6443 37.0965 34.6346 37.176 34.6241C37.1977 34.6212 37.2193 34.6191 37.2408 34.6177C37.2407 34.6115 37.2406 34.6053 37.2406 34.5992V34.3679C37.2406 34.3288 37.2431 34.2902 37.2478 34.2523C37.2431 34.2144 37.2406 34.1758 37.2406 34.1367V33.9054C37.2406 33.8663 37.2431 33.8277 37.2478 33.7898C37.2431 33.7519 37.2406 33.7133 37.2406 33.6742V33.4429C37.2406 33.4038 37.2431 33.3652 37.2478 33.3273C37.2431 33.2894 37.2406 33.2508 37.2406 33.2117V33.1362L37.1469 33.0739C37.1117 33.0504 37.0786 33.0251 37.0476 32.9981C37.0106 32.9797 36.9745 32.9588 36.9393 32.9353L36.7328 32.7967C36.6977 32.7732 36.6647 32.7477 36.6339 32.7206C36.5971 32.7021 36.561 32.6811 36.526 32.6574L36.3194 32.5176C36.2845 32.4939 36.2516 32.4683 36.2208 32.441C36.184 32.4224 36.1481 32.4012 36.1131 32.3774L35.907 32.2367C35.8721 32.2128 35.8393 32.187 35.8087 32.1596C35.7719 32.1408 35.736 32.1194 35.7011 32.0954L35.4953 31.9536C35.4605 31.9296 35.4278 31.9037 35.3973 31.8762C35.3607 31.8573 35.3249 31.8358 35.2902 31.8117L35.0858 31.6695C35.0511 31.6454 35.0185 31.6193 34.9881 31.5917C34.9516 31.5725 34.9159 31.5509 34.8812 31.5266L34.6768 31.383C34.6421 31.3586 34.6096 31.3323 34.5793 31.3044C34.5427 31.2851 34.507 31.2632 34.4724 31.2387L34.2689 31.0941C34.2344 31.0695 34.202 31.0431 34.1719 31.0151C34.1355 30.9956 34.0999 30.9735 34.0655 30.9488C33.9979 30.9004 33.9301 30.8517 33.8623 30.8027C33.8278 30.7779 33.7956 30.7513 33.7656 30.723C33.7292 30.7032 33.6937 30.6809 33.6594 30.6559C33.5919 30.6069 33.5243 30.5577 33.4569 30.5084C33.4226 30.4834 33.3905 30.4564 33.3606 30.4279C33.3243 30.4079 33.2889 30.3852 33.2547 30.36C33.1872 30.3103 33.1199 30.2605 33.0529 30.2107C33.0187 30.1853 32.9868 30.1581 32.9571 30.1294C32.9209 30.109 32.8857 30.086 32.8516 30.0605C32.7843 30.01 32.7172 29.9595 32.6506 29.9091C32.6165 29.8833 32.5847 29.8557 32.5551 29.8265C32.5189 29.8057 32.4837 29.7823 32.4498 29.7563C32.3825 29.7049 32.3157 29.6535 32.2495 29.6023C32.2157 29.5761 32.1841 29.5481 32.1548 29.5185C32.1188 29.4972 32.0838 29.4734 32.05 29.447C31.9831 29.3945 31.9168 29.3422 31.8514 29.2901C31.8175 29.2632 31.786 29.2345 31.7569 29.2043C31.7208 29.1823 31.6859 29.1577 31.6522 29.1305C31.585 29.0762 31.5188 29.0223 31.4537 28.9687C31.42 28.941 31.3888 28.9115 31.36 28.8805C31.3241 28.8577 31.2893 28.8322 31.2558 28.8041L31.1584 28.7217L31.0594 28.6369C31.0259 28.608 30.9948 28.5774 30.9664 28.5451C30.9305 28.5213 30.8958 28.4948 30.8626 28.4656C30.7978 28.4086 30.733 28.3511 30.6682 28.293C30.6354 28.2636 30.6052 28.2326 30.5776 28.2C30.5424 28.1757 30.5084 28.1487 30.476 28.1192C30.4125 28.0613 30.3491 28.0029 30.2858 27.9443C30.2537 27.9145 30.2242 27.8832 30.1972 27.8504C30.1626 27.8256 30.1292 27.7983 30.0974 27.7684C30.035 27.7097 29.9727 27.6507 29.9107 27.5916C29.8792 27.5616 29.8502 27.5299 29.8238 27.4969C29.7897 27.4718 29.7568 27.4441 29.7255 27.4139C29.6639 27.3545 29.6026 27.295 29.5416 27.2354C29.5106 27.2051 29.4821 27.1732 29.4561 27.14C29.4223 27.1145 29.3899 27.0865 29.359 27.0561C29.2981 26.9959 29.2376 26.9359 29.1776 26.8759C29.1469 26.8454 29.1188 26.8132 29.0933 26.7798C29.0598 26.7541 29.0277 26.7259 28.9972 26.6951C28.9369 26.6344 28.8771 26.5738 28.818 26.5136C28.7877 26.4828 28.7599 26.4505 28.7348 26.4169C28.7016 26.3909 28.6699 26.3625 28.6397 26.3315C28.5799 26.2701 28.5207 26.2091 28.4624 26.1487C28.4324 26.1177 28.405 26.0852 28.3802 26.0515C28.3473 26.0252 28.3158 25.9965 28.286 25.9654C28.2265 25.9032 28.1679 25.8419 28.1104 25.7813C28.0806 25.7501 28.0535 25.7173 28.029 25.6834C27.9963 25.6569 27.9651 25.628 27.9355 25.5966C27.8762 25.5337 27.8181 25.4719 27.7614 25.4113C27.732 25.3799 27.7051 25.347 27.6809 25.3129C27.6484 25.2862 27.6174 25.257 27.5881 25.2255C27.5288 25.1616 27.4713 25.0995 27.4158 25.0392C27.3867 25.0077 27.3602 24.9747 27.3363 24.9406C27.3042 24.9138 27.2736 24.8845 27.2446 24.8529C27.1842 24.7869 27.1267 24.7238 27.0724 24.664C27.0437 24.6323 27.0175 24.5992 26.9938 24.565C26.962 24.5379 26.9317 24.5085 26.903 24.4767C26.8398 24.4065 26.7828 24.3429 26.7326 24.2866C26.7035 24.2541 26.6772 24.2202 26.6536 24.1851C26.6213 24.1573 26.5906 24.1269 26.5618 24.0942L26.4993 24.0232L26.4828 24.0044L26.4772 23.998L26.5377 23.9458C26.4285 23.6011 26.5265 23.2101 26.8198 22.9564C27.1192 22.6974 27.5367 22.6554 27.8737 22.818L27.9303 22.7702L27.9346 22.7751L27.949 22.7917L28.0073 22.858C28.0349 22.8892 28.0601 22.9218 28.0828 22.9554C28.1136 22.9821 28.1431 23.011 28.171 23.0422C28.2194 23.0965 28.2746 23.158 28.3358 23.2261C28.3636 23.2569 28.3889 23.289 28.4119 23.3222C28.4427 23.3485 28.4722 23.377 28.5001 23.4077C28.5529 23.4658 28.6087 23.5271 28.6674 23.5912C28.6955 23.622 28.7212 23.654 28.7445 23.6872C28.7757 23.7133 28.8055 23.7417 28.8337 23.7723C28.8586 23.7993 28.8839 23.8267 28.9096 23.8545C28.9396 23.8869 28.9702 23.9199 29.0013 23.9534C29.0298 23.9841 29.0558 24.0161 29.0794 24.0492C29.1109 24.0752 29.1411 24.1035 29.1697 24.1341C29.2248 24.1929 29.2812 24.253 29.3389 24.3141C29.3676 24.3445 29.3939 24.3764 29.4177 24.4093C29.4494 24.435 29.4798 24.4631 29.5086 24.4934C29.5645 24.5522 29.6213 24.6117 29.679 24.672C29.7079 24.7021 29.7344 24.7337 29.7585 24.7664C29.7904 24.7919 29.821 24.8196 29.85 24.8497C29.9065 24.9082 29.9638 24.9672 30.0217 25.0266C30.0508 25.0565 30.0775 25.0878 30.1019 25.1203C30.1339 25.1455 30.1647 25.1729 30.194 25.2027C30.2511 25.2608 30.3088 25.3192 30.367 25.3778C30.3963 25.4074 30.4233 25.4384 30.4479 25.4706C30.4802 25.4955 30.5112 25.5226 30.5407 25.552C30.5985 25.6097 30.6566 25.6674 30.7151 25.7252C30.7447 25.7544 30.772 25.7851 30.7969 25.8169C30.8293 25.8414 30.8605 25.8681 30.8903 25.8972C30.9487 25.9542 31.0073 26.0112 31.0661 26.0679C31.096 26.0967 31.1235 26.127 31.1487 26.1585C31.1813 26.1825 31.2127 26.2087 31.2427 26.2373C31.3018 26.2936 31.3609 26.3496 31.4201 26.4053C31.4502 26.4336 31.4781 26.4634 31.5036 26.4945C31.5364 26.5179 31.5681 26.5437 31.5984 26.5717C31.6581 26.6271 31.7179 26.6821 31.7775 26.7364C31.8079 26.7642 31.836 26.7934 31.8619 26.8239C31.895 26.8467 31.9269 26.8718 31.9575 26.8992C32.018 26.9535 32.0783 27.007 32.1383 27.0599C32.169 27.0868 32.1975 27.1153 32.2238 27.1451C32.257 27.1671 32.2892 27.1914 32.3201 27.218L32.4108 27.2957L32.4997 27.3709C32.5304 27.3967 32.559 27.424 32.5856 27.4527C32.6188 27.4737 32.651 27.497 32.682 27.5226C32.7424 27.5723 32.8041 27.6226 32.8671 27.6735C32.8987 27.699 32.9283 27.7261 32.9557 27.7546C32.9896 27.7753 33.0226 27.7983 33.0545 27.8236C33.1163 27.8728 33.1791 27.9223 33.2428 27.9722C33.2749 27.9974 33.3049 28.0242 33.3328 28.0524C33.3672 28.0726 33.4006 28.0953 33.4329 28.1203C33.4961 28.1692 33.5601 28.2184 33.6246 28.2678C33.6573 28.2927 33.6878 28.3194 33.7162 28.3474C33.751 28.3674 33.7849 28.3899 33.8177 28.4147C33.8819 28.4632 33.9466 28.512 34.0117 28.5608C34.0446 28.5854 34.0755 28.6118 34.1042 28.6396C34.1392 28.6594 34.1734 28.6815 34.2064 28.7061C34.2714 28.7543 34.3367 28.8026 34.4022 28.8509C34.4354 28.8754 34.4666 28.9016 34.4957 28.9293C34.531 28.9488 34.5654 28.9708 34.5988 28.9952C34.6644 29.0431 34.7301 29.091 34.7959 29.1388C34.8294 29.1631 34.8608 29.1892 34.8901 29.2168C34.9256 29.2361 34.9603 29.2578 34.9938 29.282L35.1924 29.4247C35.2261 29.4489 35.2577 29.4747 35.2871 29.5022C35.3228 29.5213 35.3576 29.5428 35.3913 29.5668L35.5907 29.7084C35.6246 29.7324 35.6564 29.7582 35.6861 29.7856C35.722 29.8045 35.757 29.8259 35.791 29.8499L35.9916 29.9908C36.0256 30.0146 36.0575 30.0402 36.0874 30.0674C36.1233 30.0862 36.1583 30.1074 36.1924 30.1311L36.3933 30.2709C36.4274 30.2945 36.4595 30.32 36.4895 30.347C36.5255 30.3657 36.5607 30.3868 36.5949 30.4104L36.7973 30.5498C36.8316 30.5734 36.8639 30.5988 36.8941 30.6258C36.9302 30.6443 36.9656 30.6653 37 30.6888L37.2028 30.8273C37.2183 30.8379 37.2334 30.8488 37.2481 30.8601C37.2432 30.8213 37.2406 30.7817 37.2406 30.7416V30.4893C37.2406 30.4465 37.2435 30.4044 37.2491 30.3632C37.2435 30.3219 37.2406 30.2798 37.2406 30.237V29.9848C37.2406 29.942 37.2435 29.8999 37.2491 29.8586C37.2435 29.8174 37.2406 29.7753 37.2406 29.7325V29.4802C37.2406 29.4375 37.2435 29.3954 37.2491 29.3541C37.2435 29.3128 37.2406 29.2707 37.2406 29.228V28.9757C37.2406 28.9329 37.2435 28.8908 37.2491 28.8496C37.2435 28.8083 37.2406 28.7662 37.2406 28.7234V28.4712C37.2406 28.4284 37.2435 28.3863 37.2491 28.345C37.2435 28.3038 37.2406 28.2617 37.2406 28.2189V27.9666C37.2406 27.9238 37.2435 27.8817 37.2491 27.8405C37.2472 27.8262 37.2456 27.8119 37.2443 27.7974C37.2071 27.7877 37.171 27.7759 37.1361 27.7623C37.0898 27.757 37.0433 27.7482 36.9969 27.736C36.9069 27.7121 36.8161 27.6865 36.7248 27.6592C36.6788 27.6454 36.6346 27.6285 36.5924 27.6089C36.5465 27.6006 36.5006 27.5889 36.455 27.5737C36.3662 27.544 36.2771 27.5125 36.1877 27.4793C36.1425 27.4625 36.0993 27.4428 36.0584 27.4203C36.0129 27.409 35.9677 27.3942 35.923 27.3759C35.8359 27.3402 35.7486 27.3027 35.6614 27.2633C35.6172 27.2434 35.5753 27.2206 35.5358 27.1952C35.491 27.1807 35.4466 27.1628 35.4031 27.1413C35.3181 27.0993 35.2333 27.0554 35.1487 27.0097C35.1058 26.9865 35.0654 26.9605 35.0276 26.9322C34.9836 26.9143 34.9405 26.8931 34.8984 26.8683C34.8162 26.8197 34.7344 26.7693 34.653 26.7169C34.6118 26.6904 34.5733 26.6612 34.5376 26.6298C34.4948 26.6085 34.4532 26.5838 34.413 26.5555C34.3343 26.5003 34.2563 26.4432 34.179 26.384C34.1398 26.354 34.1036 26.3216 34.0704 26.2872C34.0293 26.2623 33.9896 26.2341 33.9517 26.2025C33.8775 26.1406 33.8041 26.0767 33.7318 26.0109C33.6951 25.9775 33.6616 25.9419 33.6314 25.9045C33.5924 25.8761 33.5551 25.8444 33.5199 25.8094C33.4511 25.7411 33.3834 25.6707 33.3169 25.5984C33.2832 25.5619 33.2531 25.5234 33.2263 25.4835C33.19 25.4517 33.1556 25.4167 33.1237 25.3787C33.0614 25.3045 33.0003 25.2284 32.9406 25.1504C32.9104 25.1109 32.8839 25.0698 32.8609 25.0276C32.8276 24.9926 32.7966 24.9547 32.7682 24.9139C32.713 24.8345 32.6592 24.7532 32.6069 24.67C32.5804 24.628 32.5577 24.5847 32.5387 24.5406C32.5088 24.5028 32.4813 24.4623 32.4569 24.4192C32.4093 24.3353 32.3632 24.2498 32.3187 24.1626C32.2964 24.1187 32.2779 24.074 32.263 24.0287C32.2368 23.9888 32.2133 23.9465 32.193 23.9018C32.1534 23.8148 32.1153 23.7263 32.0789 23.6363C32.0605 23.5909 32.046 23.5449 32.0351 23.4987C32.0125 23.4568 31.9928 23.4128 31.9764 23.3667C31.9445 23.2773 31.9142 23.1864 31.8855 23.0941C31.8712 23.048 31.8606 23.0017 31.8536 22.9554C31.8348 22.9125 31.819 22.8677 31.8065 22.8211C31.7942 22.7751 31.7822 22.7287 31.7706 22.682L31.7375 22.5467C31.7264 22.5008 31.7189 22.4548 31.7149 22.4091C31.698 22.3663 31.6842 22.3218 31.6736 22.2757C31.6527 22.1851 31.6324 22.0945 31.6126 22.0039C31.6025 21.9576 31.596 21.9115 31.593 21.8657C31.5771 21.8225 31.5642 21.7777 31.5546 21.7314C31.5358 21.6403 31.5175 21.5492 31.4997 21.4581C31.4907 21.4117 31.4852 21.3654 31.4833 21.3195C31.4683 21.276 31.4565 21.2308 31.4479 21.1843C31.4312 21.0928 31.4149 21.0013 31.3992 20.9098C31.3912 20.8632 31.3869 20.8167 31.3859 20.7708C31.372 20.7269 31.3611 20.6815 31.3537 20.6348C31.339 20.5429 31.3249 20.451 31.3113 20.3592C31.3044 20.3123 31.3011 20.2658 31.3012 20.2198Z" fill="#4EC29F"/>
</svg>
