<svg width="278" height="110" viewBox="0 0 278 110" fill="none" xmlns="http://www.w3.org/2000/svg">
<path d="M92.35 98.25C89.75 98.25 87.4 97.65 85.3 96.45C83.2333 95.25 81.5833 93.6167 80.35 91.55C79.15 89.45 78.5333 87.1 78.5 84.5V60.9C78.5 60.3 78.6667 59.8333 79 59.5C79.3667 59.1333 79.85 58.95 80.45 58.95C81.0167 58.95 81.4667 59.1333 81.8 59.5C82.1667 59.8333 82.35 60.3 82.35 60.9V75.6C83.45 74.0333 84.9 72.7833 86.7 71.85C88.5333 70.8833 90.5667 70.4 92.8 70.4C95.3667 70.4 97.6667 71.0167 99.7 72.25C101.733 73.45 103.333 75.1 104.5 77.2C105.7 79.3 106.3 81.6667 106.3 84.3C106.3 86.9667 105.683 89.35 104.45 91.45C103.25 93.55 101.6 95.2167 99.5 96.45C97.4 97.65 95.0167 98.25 92.35 98.25ZM92.35 94.75C94.2833 94.75 96.0167 94.3 97.55 93.4C99.0833 92.4667 100.283 91.2167 101.15 89.65C102.05 88.0833 102.5 86.3 102.5 84.3C102.5 82.3333 102.05 80.5667 101.15 79C100.283 77.4 99.0833 76.15 97.55 75.25C96.0167 74.35 94.2833 73.9 92.35 73.9C90.45 73.9 88.7333 74.35 87.2 75.25C85.6667 76.15 84.4667 77.4 83.6 79C82.7333 80.5667 82.3 82.3333 82.3 84.3C82.3 86.3 82.7333 88.0833 83.6 89.65C84.4667 91.2167 85.6667 92.4667 87.2 93.4C88.7333 94.3 90.45 94.75 92.35 94.75ZM115.452 81.15C115.552 79.0833 116.085 77.2333 117.052 75.6C118.052 73.9667 119.335 72.6833 120.902 71.75C122.502 70.8167 124.268 70.35 126.202 70.35C127.735 70.35 128.918 70.5667 129.752 71C130.585 71.4333 130.902 72.0667 130.702 72.9C130.568 73.4 130.335 73.7333 130.002 73.9C129.702 74.0667 129.318 74.1333 128.852 74.1C128.418 74.0667 127.918 74.0333 127.352 74C125.485 73.8333 123.818 74.0333 122.352 74.6C120.918 75.1333 119.768 75.9667 118.902 77.1C118.068 78.2333 117.652 79.5833 117.652 81.15H115.452ZM115.752 98C115.152 98 114.685 97.8333 114.352 97.5C114.018 97.1667 113.852 96.7 113.852 96.1V72.55C113.852 71.95 114.018 71.4833 114.352 71.15C114.685 70.8167 115.152 70.65 115.752 70.65C116.352 70.65 116.818 70.8167 117.152 71.15C117.485 71.4833 117.652 71.95 117.652 72.55V96.1C117.652 96.7 117.485 97.1667 117.152 97.5C116.818 97.8333 116.352 98 115.752 98ZM147.2 98.25C144.533 98.25 142.15 97.65 140.05 96.45C137.95 95.25 136.3 93.6 135.1 91.5C133.9 89.4 133.3 87.0167 133.3 84.35C133.3 81.65 133.9 79.25 135.1 77.15C136.3 75.05 137.95 73.4 140.05 72.2C142.15 71 144.533 70.4 147.2 70.4C149.867 70.4 152.233 71 154.3 72.2C156.4 73.4 158.05 75.05 159.25 77.15C160.45 79.25 161.067 81.65 161.1 84.35C161.1 87.0167 160.483 89.4 159.25 91.5C158.05 93.6 156.4 95.25 154.3 96.45C152.233 97.65 149.867 98.25 147.2 98.25ZM147.2 94.75C149.133 94.75 150.867 94.3 152.4 93.4C153.933 92.5 155.133 91.2667 156 89.7C156.867 88.1333 157.3 86.35 157.3 84.35C157.3 82.35 156.867 80.5667 156 79C155.133 77.4 153.933 76.15 152.4 75.25C150.867 74.35 149.133 73.9 147.2 73.9C145.267 73.9 143.533 74.35 142 75.25C140.467 76.15 139.25 77.4 138.35 79C137.483 80.5667 137.05 82.35 137.05 84.35C137.05 86.35 137.483 88.1333 138.35 89.7C139.25 91.2667 140.467 92.5 142 93.4C143.533 94.3 145.267 94.75 147.2 94.75ZM179.288 98C177.521 98 175.938 97.5833 174.538 96.75C173.171 95.9167 172.088 94.7833 171.288 93.35C170.488 91.8833 170.088 90.2167 170.088 88.35V63.9C170.088 63.3333 170.255 62.8667 170.588 62.5C170.955 62.1333 171.421 61.95 171.988 61.95C172.555 61.95 173.021 62.1333 173.388 62.5C173.755 62.8667 173.938 63.3333 173.938 63.9V88.35C173.938 90.05 174.438 91.45 175.438 92.55C176.438 93.6167 177.721 94.15 179.288 94.15H180.638C181.171 94.15 181.605 94.3333 181.938 94.7C182.271 95.0667 182.438 95.5333 182.438 96.1C182.438 96.6667 182.238 97.1333 181.838 97.5C181.438 97.8333 180.938 98 180.338 98H179.288ZM166.838 75C166.338 75 165.921 74.85 165.588 74.55C165.255 74.2167 165.088 73.8167 165.088 73.35C165.088 72.85 165.255 72.45 165.588 72.15C165.921 71.8167 166.338 71.65 166.838 71.65H179.588C180.088 71.65 180.505 71.8167 180.838 72.15C181.171 72.45 181.338 72.85 181.338 73.35C181.338 73.8167 181.171 74.2167 180.838 74.55C180.505 74.85 180.088 75 179.588 75H166.838ZM200.755 98.25C198.188 98.25 195.888 97.65 193.855 96.45C191.822 95.2167 190.205 93.55 189.005 91.45C187.838 89.35 187.255 86.9833 187.255 84.35C187.255 81.6833 187.855 79.3 189.055 77.2C190.288 75.1 191.955 73.45 194.055 72.25C196.155 71.0167 198.522 70.4 201.155 70.4C203.788 70.4 206.138 71.0167 208.205 72.25C210.305 73.45 211.955 75.1 213.155 77.2C214.388 79.3 215.022 81.6833 215.055 84.35L213.505 85.55C213.505 87.95 212.938 90.1167 211.805 92.05C210.705 93.95 209.188 95.4667 207.255 96.6C205.355 97.7 203.188 98.25 200.755 98.25ZM201.155 94.75C203.088 94.75 204.805 94.3 206.305 93.4C207.838 92.5 209.038 91.2667 209.905 89.7C210.805 88.1 211.255 86.3167 211.255 84.35C211.255 82.35 210.805 80.5667 209.905 79C209.038 77.4333 207.838 76.2 206.305 75.3C204.805 74.3667 203.088 73.9 201.155 73.9C199.255 73.9 197.538 74.3667 196.005 75.3C194.472 76.2 193.255 77.4333 192.355 79C191.455 80.5667 191.005 82.35 191.005 84.35C191.005 86.3167 191.455 88.1 192.355 89.7C193.255 91.2667 194.472 92.5 196.005 93.4C197.538 94.3 199.255 94.75 201.155 94.75ZM213.105 98C212.538 98 212.072 97.8333 211.705 97.5C211.338 97.1333 211.155 96.6667 211.155 96.1V87.55L212.105 83.6L215.055 84.35V96.1C215.055 96.6667 214.872 97.1333 214.505 97.5C214.138 97.8333 213.672 98 213.105 98ZM223.443 98.8C222.643 98.8 221.96 98.5167 221.393 97.95C220.826 97.3833 220.543 96.7 220.543 95.9C220.543 95.0667 220.826 94.3667 221.393 93.8C221.993 93.2333 222.676 92.95 223.443 92.95C224.243 92.95 224.926 93.25 225.493 93.85C226.06 94.4167 226.343 95.1 226.343 95.9C226.343 96.6667 226.06 97.35 225.493 97.95C224.96 98.5167 224.276 98.8 223.443 98.8ZM245.384 98.25C242.817 98.25 240.517 97.65 238.484 96.45C236.451 95.2167 234.834 93.55 233.634 91.45C232.467 89.35 231.884 86.9833 231.884 84.35C231.884 81.6833 232.484 79.3 233.684 77.2C234.917 75.1 236.584 73.45 238.684 72.25C240.784 71.0167 243.151 70.4 245.784 70.4C248.417 70.4 250.767 71.0167 252.834 72.25C254.934 73.45 256.584 75.1 257.784 77.2C259.017 79.3 259.651 81.6833 259.684 84.35L258.134 85.55C258.134 87.95 257.567 90.1167 256.434 92.05C255.334 93.95 253.817 95.4667 251.884 96.6C249.984 97.7 247.817 98.25 245.384 98.25ZM245.784 94.75C247.717 94.75 249.434 94.3 250.934 93.4C252.467 92.5 253.667 91.2667 254.534 89.7C255.434 88.1 255.884 86.3167 255.884 84.35C255.884 82.35 255.434 80.5667 254.534 79C253.667 77.4333 252.467 76.2 250.934 75.3C249.434 74.3667 247.717 73.9 245.784 73.9C243.884 73.9 242.167 74.3667 240.634 75.3C239.101 76.2 237.884 77.4333 236.984 79C236.084 80.5667 235.634 82.35 235.634 84.35C235.634 86.3167 236.084 88.1 236.984 89.7C237.884 91.2667 239.101 92.5 240.634 93.4C242.167 94.3 243.884 94.75 245.784 94.75ZM257.734 98C257.167 98 256.701 97.8333 256.334 97.5C255.967 97.1333 255.784 96.6667 255.784 96.1V87.55L256.734 83.6L259.684 84.35V96.1C259.684 96.6667 259.501 97.1333 259.134 97.5C258.767 97.8333 258.301 98 257.734 98ZM269.922 98C269.322 98 268.839 97.8333 268.472 97.5C268.139 97.1333 267.972 96.65 267.972 96.05V72.6C267.972 72 268.139 71.5333 268.472 71.2C268.839 70.8333 269.322 70.65 269.922 70.65C270.489 70.65 270.939 70.8333 271.272 71.2C271.639 71.5333 271.822 72 271.822 72.6V96.05C271.822 96.65 271.639 97.1333 271.272 97.5C270.939 97.8333 270.489 98 269.922 98ZM269.872 65.45C269.139 65.45 268.505 65.1833 267.972 64.65C267.439 64.1167 267.172 63.4667 267.172 62.7C267.172 61.8667 267.439 61.2167 267.972 60.75C268.539 60.25 269.189 60 269.922 60C270.622 60 271.239 60.25 271.772 60.75C272.339 61.2167 272.622 61.8667 272.622 62.7C272.622 63.4667 272.355 64.1167 271.822 64.65C271.289 65.1833 270.639 65.45 269.872 65.45Z" fill="black" fill-opacity="0.1"/>
<path fill-rule="evenodd" clip-rule="evenodd" d="M38.3787 0.0230836C38.566 -0.00562246 38.7606 -0.00816788 38.958 0.0188963C39.2958 0.0652056 39.6173 0.156168 39.9202 0.27671C40.054 0.329968 40.1787 0.395971 40.2933 0.472719C40.417 0.515853 40.5381 0.571778 40.6548 0.640936C40.7598 0.703142 40.8636 0.768876 40.9661 0.837737L41.1888 0.987353C41.2645 1.03816 41.3354 1.09322 41.4015 1.15197C41.4813 1.19123 41.5592 1.23625 41.6349 1.28714L42.0816 1.58785C42.1574 1.63897 42.2285 1.69437 42.2947 1.75349C42.3747 1.79307 42.4529 1.83844 42.5287 1.88972L42.9761 2.19302C43.0521 2.24463 43.1232 2.30053 43.1895 2.36015C43.2696 2.40021 43.3478 2.44612 43.4237 2.49796C43.5729 2.59993 43.7221 2.70219 43.8712 2.80478C43.9472 2.85703 44.0182 2.91357 44.0843 2.97384C44.1645 3.01456 44.2427 3.06115 44.3185 3.11372C44.4676 3.21711 44.6166 3.32086 44.7654 3.42501C44.8412 3.47807 44.9121 3.53541 44.9779 3.59647C45.058 3.63802 45.1362 3.68548 45.2118 3.73893C45.3605 3.84408 45.5091 3.94968 45.6574 4.05574C45.733 4.10978 45.8035 4.16808 45.8689 4.23008C45.9488 4.27265 46.0268 4.32114 46.1021 4.37565C46.2502 4.48288 46.398 4.59062 46.5456 4.69891C46.6207 4.75408 46.6908 4.81349 46.7556 4.87656C46.8353 4.92032 46.9129 4.97002 46.9877 5.02575C47.1349 5.13537 47.2818 5.24559 47.4283 5.35643C47.5029 5.4129 47.5723 5.47358 47.6364 5.53787C47.7158 5.58299 47.7928 5.63407 47.8671 5.69118C48.0131 5.80354 48.1587 5.91658 48.3039 6.03033C48.3779 6.08828 48.4465 6.15039 48.5097 6.21604C48.5885 6.26271 48.665 6.31536 48.7384 6.37403C48.8829 6.48943 49.027 6.60559 49.1705 6.72253C49.2436 6.78212 49.3113 6.84579 49.3734 6.91293C49.4515 6.96132 49.5272 7.01568 49.5997 7.07606C49.7424 7.19481 49.8845 7.31439 50.026 7.43485C50.0981 7.49623 50.1645 7.5616 50.2254 7.63035C50.3027 7.68063 50.3775 7.73687 50.4489 7.79912C50.5893 7.92151 50.7291 8.04483 50.8682 8.1691C50.9391 8.23241 51.0042 8.29963 51.0635 8.3701C51.1399 8.42244 51.2135 8.48073 51.2836 8.54498C51.4214 8.67128 51.5585 8.79859 51.6948 8.92693C51.7642 8.99231 51.8278 9.06147 51.8854 9.13376C51.9606 9.1883 52.0329 9.24876 52.1014 9.31513C52.2361 9.44558 52.3701 9.57711 52.5031 9.70975C52.5709 9.77731 52.6326 9.84851 52.6883 9.9227C52.7622 9.97959 52.8329 10.0423 52.8996 10.1109C53.0309 10.2457 53.1612 10.3817 53.2906 10.5188C53.3565 10.5887 53.4162 10.662 53.4696 10.7381C53.5419 10.7975 53.6108 10.8626 53.6756 10.9335C53.8028 11.0728 53.929 11.2133 54.0542 11.355C54.118 11.4272 54.1753 11.5026 54.2264 11.5807C54.2968 11.6426 54.3637 11.7102 54.4262 11.7834C54.5489 11.9273 54.6706 12.0724 54.7911 12.2189C54.8525 12.2934 54.9073 12.371 54.9557 12.4511C55.0241 12.5156 55.0887 12.5856 55.1487 12.6613C55.2665 12.8098 55.3831 12.9596 55.4986 13.1107C55.5573 13.1876 55.6093 13.2674 55.6548 13.3494C55.7209 13.4164 55.783 13.489 55.8402 13.567C55.9525 13.7199 56.0635 13.8742 56.1733 14.03C56.2291 14.1091 56.2781 14.191 56.3204 14.2748C56.384 14.3444 56.4433 14.4194 56.4976 14.4997C56.5509 14.5786 56.6039 14.6578 56.6566 14.7374C56.7083 14.8156 56.7598 14.8946 56.8111 14.9743C56.8634 15.0558 56.9088 15.1397 56.9475 15.2252C57.0074 15.2976 57.0628 15.3752 57.1129 15.4577C57.2098 15.6172 57.3057 15.7795 57.4007 15.9445C57.448 16.0267 57.4886 16.1109 57.5226 16.1964C57.578 16.2701 57.6287 16.3486 57.6742 16.4317C57.7627 16.5933 57.8503 16.7573 57.937 16.9235C57.9808 17.0073 58.0177 17.0928 58.048 17.1793C58.1003 17.255 58.1478 17.3351 58.1899 17.4197C58.2713 17.5834 58.352 17.7491 58.4317 17.9168C58.4718 18.0011 58.5053 18.0869 58.5322 18.1735C58.5811 18.2501 58.6252 18.331 58.6639 18.416C58.7394 18.5821 58.8141 18.75 58.8878 18.9195C58.925 19.0049 58.9555 19.0915 58.9794 19.1786C59.0257 19.2565 59.067 19.3386 59.1028 19.4245C59.1725 19.5918 59.2413 19.7607 59.3091 19.9309C59.3435 20.0172 59.3712 20.1045 59.3924 20.1922C59.4363 20.2714 59.475 20.3545 59.5081 20.4413C59.5726 20.6104 59.6362 20.7809 59.6988 20.9526C59.7305 21.0394 59.7555 21.1271 59.7741 21.2149C59.8153 21.2949 59.8514 21.3787 59.8819 21.4659C59.9415 21.6371 60.0003 21.8095 60.058 21.9828C60.0871 22.0703 60.1095 22.1584 60.1256 22.2464C60.1645 22.3274 60.1981 22.4119 60.226 22.4997C60.2808 22.6721 60.3345 22.8454 60.3872 23.0197C60.4139 23.1081 60.4339 23.1969 60.4476 23.2855C60.4843 23.3676 60.5157 23.4531 60.5412 23.5419C60.5911 23.7155 60.6399 23.8898 60.6877 24.065C60.7119 24.154 60.7295 24.2433 60.7407 24.3323C60.7752 24.4153 60.8042 24.5017 60.8272 24.5911C60.8724 24.7661 60.9165 24.9418 60.9594 25.1182C60.9812 25.2078 60.9963 25.2975 61.0051 25.3867C61.0372 25.4705 61.0638 25.5576 61.0844 25.6475C61.1248 25.8241 61.1641 26.0012 61.2021 26.1789C61.2215 26.2691 61.2341 26.3592 61.2403 26.4486C61.2701 26.5333 61.2943 26.6211 61.3123 26.7115C61.3478 26.8894 61.3821 27.0677 61.4151 27.2465C61.4319 27.3373 61.442 27.4278 61.4457 27.5175C61.4731 27.6032 61.4948 27.6917 61.5103 27.7828C61.5407 27.9619 61.5699 28.1414 61.5977 28.3211C61.6118 28.4126 61.6193 28.5035 61.6203 28.5935C61.6452 28.68 61.6643 28.7693 61.6771 28.861C61.7023 29.0414 61.7261 29.222 61.7485 29.4028C61.7599 29.4949 61.7645 29.5862 61.7628 29.6763C61.7851 29.7638 61.8015 29.8538 61.8115 29.9461C61.8311 30.1277 61.8493 30.3094 61.8659 30.4912C61.8744 30.5838 61.8762 30.6755 61.8716 30.7658C61.8911 30.8542 61.9046 30.9451 61.9116 31.0379C61.9253 31.2205 61.9375 31.4031 61.9481 31.5857C61.9535 31.679 61.9522 31.7711 61.9444 31.8616C61.961 31.951 61.9715 32.0425 61.9752 32.136C61.9827 32.3197 61.9885 32.5033 61.9926 32.6868C61.9947 32.7806 61.99 32.8729 61.979 32.9634C61.9924 33.0536 61.9995 33.1458 61.9998 33.2397C62.0005 33.4246 61.9994 33.6093 61.9965 33.7938C61.995 33.8879 61.9867 33.9802 61.9722 34.0705C61.9821 34.1614 61.9856 34.2542 61.9822 34.3483C61.9755 34.5343 61.9669 34.7201 61.9563 34.9055C61.951 35 61.9388 35.0925 61.9203 35.1827C61.9265 35.2746 61.926 35.368 61.9186 35.4625C61.9039 35.649 61.8871 35.835 61.8682 36.0205C61.8585 36.1155 61.8421 36.2082 61.8193 36.2981C61.8213 36.3909 61.8165 36.485 61.8046 36.5798C61.7811 36.7666 61.7554 36.9527 61.7273 37.1382C61.713 37.2333 61.6918 37.3258 61.6644 37.4152C61.6618 37.5087 61.6522 37.6032 61.6353 37.698C61.6021 37.8852 61.5663 38.0717 61.5281 38.2573C61.5086 38.352 61.4823 38.4438 61.45 38.5322C61.4422 38.6259 61.4273 38.7202 61.4051 38.8146C61.3609 39.0016 61.3141 39.1877 61.2646 39.3729C61.2393 39.4675 61.2073 39.5586 61.1692 39.6459C61.1557 39.7401 61.1349 39.8345 61.1066 39.9284C61.0507 40.1136 60.992 40.2977 60.9302 40.4806C60.8985 40.5746 60.8601 40.6646 60.8159 40.7503C60.7959 40.8446 60.7686 40.9386 60.7336 41.0317C60.6992 41.1229 60.6641 41.2137 60.6281 41.3043C60.5934 41.3919 60.5581 41.4793 60.5224 41.5666C60.486 41.6554 60.4437 41.7401 60.3961 41.8205C60.3718 41.9103 60.3407 41.9995 60.3024 42.0875C60.2274 42.26 60.1505 42.4318 60.072 42.6027C60.032 42.6896 59.9863 42.7722 59.9356 42.8503C59.9077 42.9388 59.873 43.0264 59.8313 43.1124C59.7494 43.2814 59.6658 43.4495 59.5806 43.6166C59.5373 43.7017 59.4885 43.7822 59.4349 43.8581C59.4035 43.9451 59.3654 44.031 59.3205 44.1152C59.2322 44.2805 59.1424 44.4448 59.0511 44.6082C59.0046 44.6913 58.9528 44.7698 58.8965 44.8434C58.8619 44.929 58.8207 45.0133 58.7727 45.0955C58.6783 45.2571 58.5826 45.4177 58.4855 45.5772C58.4361 45.6584 58.3815 45.7349 58.3226 45.8063C58.2849 45.8904 58.2407 45.973 58.1898 46.0533C58.0898 46.2112 57.9885 46.3679 57.8859 46.5236C57.8337 46.6029 57.7765 46.6773 57.7152 46.7465C57.6746 46.8291 57.6275 46.91 57.5739 46.9883C57.4684 47.1425 57.3617 47.2956 57.2538 47.4475C57.1989 47.5249 57.1393 47.5971 57.0756 47.6641C57.0322 47.7452 56.9824 47.8243 56.9262 47.9007C56.8155 48.0511 56.7037 48.2002 56.5909 48.3482C56.5333 48.4237 56.4712 48.4939 56.4053 48.5587C56.3591 48.6383 56.3067 48.7157 56.2478 48.7902C56.1321 48.9368 56.0153 49.0821 55.8976 49.2261C55.8376 49.2995 55.7733 49.3675 55.7053 49.43C55.6565 49.508 55.6015 49.5835 55.5402 49.6559C55.4194 49.7988 55.2976 49.9404 55.175 50.0805C55.1124 50.152 55.0458 50.2179 54.9756 50.2782C54.9241 50.3546 54.8665 50.4283 54.8028 50.4987C54.6773 50.6374 54.5509 50.7746 54.4239 50.9104C54.3588 50.9798 54.2898 51.0436 54.2175 51.1016C54.1634 51.1764 54.1032 51.2483 54.0369 51.3166C53.9063 51.4515 53.7749 51.5849 53.6428 51.7165C53.5754 51.7838 53.5042 51.8452 53.4299 51.9007C53.3732 51.9736 53.3105 52.0434 53.2419 52.1095C53.1065 52.24 52.9704 52.3687 52.8338 52.4957C52.7637 52.5609 52.69 52.62 52.6134 52.6732C52.5539 52.7444 52.4884 52.8122 52.4171 52.8762C52.2763 53.0024 52.135 53.1268 51.9932 53.2492C51.9207 53.3119 51.8448 53.3683 51.7663 53.4187C51.704 53.4877 51.6359 53.5532 51.5621 53.6145C51.4162 53.7358 51.2699 53.8551 51.1232 53.9722C51.0477 54.0325 50.9691 54.0864 50.8879 54.1341C50.8225 54.2011 50.7513 54.2644 50.6745 54.3232C50.5225 54.4396 50.3702 54.5538 50.2177 54.6656C50.1395 54.723 50.0583 54.7738 49.9749 54.8182C49.9063 54.8827 49.8321 54.9432 49.7524 54.9989C49.5945 55.1094 49.4364 55.2174 49.2781 55.3227C49.1967 55.377 49.1126 55.4244 49.0266 55.4652C48.9544 55.527 48.8768 55.5844 48.7939 55.6367C48.6284 55.7411 48.4629 55.8426 48.2974 55.9411C48.2121 55.9919 48.1244 56.0356 48.035 56.0724C47.9586 56.1313 47.8768 56.1853 47.7898 56.2338C47.6165 56.3305 47.4432 56.4238 47.27 56.5137C47.1804 56.5602 47.0888 56.5993 46.996 56.6311C46.9147 56.6861 46.8283 56.7358 46.7368 56.7795C46.554 56.8669 46.3713 56.9504 46.1888 57.0297C46.094 57.0709 45.9976 57.1042 45.9005 57.1299C45.8133 57.1801 45.7211 57.2244 45.6241 57.2619C45.4295 57.3374 45.235 57.4081 45.0407 57.4736C44.9392 57.5078 44.8368 57.5335 44.7343 57.5509C44.6395 57.5947 44.54 57.6316 44.436 57.6609C44.3332 57.6898 44.2304 57.7173 44.1277 57.7431C43.9946 57.7767 43.8585 57.7964 43.7214 57.8022V58.2015C43.7214 58.2897 43.7155 58.3765 43.7039 58.4616C43.7155 58.5467 43.7214 58.6335 43.7214 58.7218V59.2421C43.7214 59.3303 43.7155 59.4171 43.7039 59.5022C43.7155 59.5873 43.7214 59.6741 43.7214 59.7624V60.2827C43.7214 60.3709 43.7155 60.4577 43.7039 60.5428C43.7155 60.6279 43.7214 60.7147 43.7214 60.803V61.3233C43.7214 61.4115 43.7155 61.4983 43.7039 61.5834C43.7155 61.6685 43.7214 61.7554 43.7214 61.8436V62.3639C43.7214 62.4521 43.7155 62.5389 43.7039 62.624C43.7155 62.7091 43.7214 62.796 43.7214 62.8842V63.4045C43.7214 63.4927 43.7155 63.5795 43.7039 63.6646C43.7155 63.7497 43.7214 63.8366 43.7214 63.9248V64.4451C43.7214 64.5333 43.7155 64.6201 43.7039 64.7052C43.7155 64.7903 43.7214 64.8772 43.7214 64.9654V65.4857C43.7214 65.5739 43.7155 65.6607 43.7039 65.7458C43.7155 65.8309 43.7214 65.9178 43.7214 66.006V66.5263C43.7214 66.6145 43.7155 66.7013 43.7039 66.7864C43.7155 66.8715 43.7214 66.9584 43.7214 67.0466V67.5452C43.7214 67.626 43.7164 67.7055 43.7067 67.7837C43.7164 67.8618 43.7214 67.9414 43.7214 68.0222V68.4991C43.7214 68.5798 43.7164 68.6594 43.7067 68.7376C43.7164 68.8157 43.7214 68.8953 43.7214 68.976V69.453C43.7214 69.5337 43.7164 69.6133 43.7067 69.6915C43.7164 69.7696 43.7214 69.8492 43.7214 69.9299V70.4069C43.7214 70.4876 43.7164 70.5672 43.7067 70.6453C43.7164 70.7235 43.7214 70.8031 43.7214 70.8838V71.3608C43.7214 71.4415 43.7164 71.5211 43.7067 71.5992C43.7164 71.6774 43.7214 71.757 43.7214 71.8377V72.3147C43.7214 72.3954 43.7164 72.475 43.7067 72.5531C43.7164 72.6313 43.7214 72.7109 43.7214 72.7916V73.2884C43.7214 73.376 43.7155 73.4622 43.7041 73.5467C43.7155 73.6313 43.7214 73.7175 43.7214 73.8051V74.3218C43.7214 74.4094 43.7155 74.4956 43.7041 74.5801C43.7155 74.6646 43.7214 74.7509 43.7214 74.8385V75.3552C43.7214 75.4427 43.7155 75.529 43.7041 75.6135C43.7155 75.698 43.7214 75.7842 43.7214 75.8718V76.3885C43.7214 76.4761 43.7155 76.5623 43.7041 76.6469C43.7155 76.7314 43.7214 76.8176 43.7214 76.9052V77.4219C43.7214 77.5095 43.7155 77.5957 43.7041 77.6802C43.7155 77.7648 43.7214 77.851 43.7214 77.9386V78.4553C43.7214 78.5429 43.7155 78.6291 43.7041 78.7136C43.7155 78.7981 43.7214 78.8844 43.7214 78.972V79.4887C43.7214 79.5762 43.7155 79.6625 43.7041 79.747C43.7155 79.8315 43.7214 79.9177 43.7214 80.0053V80.522C43.7214 80.6096 43.7155 80.6958 43.7041 80.7804C43.7155 80.8649 43.7214 80.9511 43.7214 81.0387V81.5554C43.7214 81.643 43.7155 81.7292 43.7041 81.8137C43.7155 81.8983 43.7214 81.9845 43.7214 82.0721V82.5888C43.7214 82.6764 43.7155 82.7626 43.7041 82.8471C43.7155 82.9316 43.7214 83.0179 43.7214 83.1055V83.6222C43.7214 83.7097 43.7155 83.796 43.7041 83.8805C43.7155 83.965 43.7214 84.0513 43.7214 84.1388V84.6555C43.7214 84.7431 43.7155 84.8293 43.7041 84.9139C43.7155 84.9984 43.7214 85.0846 43.7214 85.1722V85.6889C43.7214 85.7765 43.7155 85.8627 43.7041 85.9472C43.7155 86.0318 43.7214 86.118 43.7214 86.2056V86.7223C43.7214 86.8099 43.7155 86.8961 43.7041 86.9806C43.7155 87.0651 43.7214 87.1514 43.7214 87.239V87.7557C43.7214 87.8433 43.7155 87.9295 43.7041 88.014C43.7155 88.0985 43.7214 88.1848 43.7214 88.2724V88.789C43.7214 88.8766 43.7155 88.9628 43.7041 89.0474C43.7155 89.1319 43.7214 89.2181 43.7214 89.3057V89.8224C43.7214 89.91 43.7155 89.9962 43.7041 90.0807C43.7155 90.1653 43.7214 90.2515 43.7214 90.3391V90.8558C43.7214 90.9434 43.7155 91.0296 43.7041 91.1141C43.7155 91.1986 43.7214 91.2849 43.7214 91.3725V91.8892C43.7214 91.9768 43.7155 92.063 43.7041 92.1475C43.7155 92.232 43.7214 92.3183 43.7214 92.4059V92.9225C43.7214 93.0101 43.7155 93.0963 43.7041 93.1809C43.7155 93.2654 43.7214 93.3516 43.7214 93.4392V93.9559C43.7214 94.0435 43.7155 94.1297 43.7041 94.2142C43.7155 94.2988 43.7214 94.385 43.7214 94.4726V94.9893C43.7214 95.0769 43.7155 95.1631 43.7041 95.2476C43.7155 95.3321 43.7214 95.4184 43.7214 95.506V96.0227C43.7214 96.1103 43.7155 96.1965 43.7041 96.281C43.7155 96.3655 43.7214 96.4518 43.7214 96.5394V97.056C43.7214 97.1436 43.7155 97.2298 43.7041 97.3144C43.7155 97.3989 43.7214 97.4851 43.7214 97.5727V97.8311H43.5579C43.2532 98.519 42.5551 99 41.7427 99C40.9303 99 40.2322 98.519 39.9275 97.8311H39.764V97.5727C39.764 97.4851 39.7699 97.3989 39.7813 97.3144C39.7699 97.2298 39.764 97.1436 39.764 97.056V96.5394C39.764 96.4518 39.7699 96.3655 39.7813 96.281C39.7699 96.1965 39.764 96.1103 39.764 96.0227V95.506C39.764 95.4184 39.7699 95.3321 39.7813 95.2476C39.7699 95.1631 39.764 95.0769 39.764 94.9893V94.4726C39.764 94.385 39.7699 94.2988 39.7813 94.2142C39.7699 94.1297 39.764 94.0435 39.764 93.9559V93.4392C39.764 93.3516 39.7699 93.2654 39.7813 93.1809C39.7699 93.0963 39.764 93.0101 39.764 92.9225V92.4059C39.764 92.3183 39.7699 92.232 39.7813 92.1475C39.7699 92.063 39.764 91.9768 39.764 91.8892V91.3725C39.764 91.2849 39.7699 91.1986 39.7813 91.1141C39.7699 91.0296 39.764 90.9434 39.764 90.8558V90.3391C39.764 90.2515 39.7699 90.1653 39.7813 90.0807C39.7699 89.9962 39.764 89.91 39.764 89.8224V89.3057C39.764 89.2181 39.7699 89.1319 39.7813 89.0474C39.7699 88.9628 39.764 88.8766 39.764 88.789V88.2724C39.764 88.1848 39.7699 88.0985 39.7813 88.014C39.7699 87.9295 39.764 87.8433 39.764 87.7557V87.239C39.764 87.1514 39.7699 87.0651 39.7813 86.9806C39.7699 86.8961 39.764 86.8099 39.764 86.7223V86.2056C39.764 86.118 39.7699 86.0318 39.7813 85.9472C39.7699 85.8627 39.764 85.7765 39.764 85.6889V85.1722C39.764 85.0846 39.7699 84.9984 39.7813 84.9139C39.7699 84.8293 39.764 84.7431 39.764 84.6555V84.1388C39.764 84.0513 39.7699 83.965 39.7813 83.8805C39.7699 83.796 39.764 83.7097 39.764 83.6222V83.1055C39.764 83.0179 39.7699 82.9316 39.7813 82.8471C39.7699 82.7626 39.764 82.6764 39.764 82.5888V82.0721C39.764 81.9845 39.7699 81.8983 39.7813 81.8137C39.7699 81.7292 39.764 81.643 39.764 81.5554V81.0387C39.764 80.9511 39.7699 80.8649 39.7813 80.7804C39.7699 80.6958 39.764 80.6096 39.764 80.522V80.0053C39.764 79.9177 39.7699 79.8315 39.7813 79.747C39.7699 79.6625 39.764 79.5762 39.764 79.4887V78.972C39.764 78.8844 39.7699 78.7981 39.7813 78.7136C39.7699 78.6291 39.764 78.5429 39.764 78.4553V77.9386C39.764 77.851 39.7699 77.7648 39.7813 77.6802C39.7699 77.5957 39.764 77.5095 39.764 77.4219V76.9052C39.764 76.8176 39.7699 76.7314 39.7813 76.6469C39.7699 76.5623 39.764 76.4761 39.764 76.3885V75.8718C39.764 75.7842 39.7699 75.698 39.7813 75.6135C39.7699 75.529 39.764 75.4427 39.764 75.3552V75.3148C39.7053 75.3217 39.6467 75.3285 39.5882 75.335C39.4917 75.3458 39.396 75.3496 39.3017 75.3468C39.2099 75.3686 39.1154 75.3841 39.0186 75.393C38.8255 75.4107 38.6332 75.4263 38.4416 75.4399C38.3445 75.4468 38.2485 75.4466 38.1542 75.4399C38.0614 75.4579 37.9662 75.4696 37.869 75.4745C37.6755 75.4842 37.4827 75.4917 37.2908 75.4973C37.1929 75.5001 37.0963 75.4959 37.0018 75.4851C36.9077 75.4993 36.8114 75.507 36.7133 75.5078C36.5206 75.5092 36.3287 75.5086 36.1376 75.5059C36.039 75.5045 35.9423 75.4961 35.8478 75.4811C35.7527 75.4914 35.6556 75.495 35.5571 75.4915C35.3645 75.4846 35.1728 75.4756 34.9819 75.4646C34.8835 75.4589 34.7872 75.4463 34.6934 75.4272C34.5978 75.4333 34.5007 75.4326 34.4024 75.4248C34.2095 75.4094 34.0175 75.3919 33.8265 75.3724C33.7288 75.3624 33.6335 75.3456 33.541 75.3225C33.4456 75.3243 33.3489 75.3194 33.2514 75.3072C33.0589 75.2833 32.8673 75.2572 32.6768 75.2291C32.5799 75.2149 32.4857 75.1939 32.3946 75.1668C32.2995 75.1644 32.2033 75.1551 32.1068 75.1387C31.9152 75.1062 31.7248 75.0716 31.5353 75.035C31.4392 75.0164 31.3461 74.9913 31.2563 74.9602C31.1614 74.9535 31.0658 74.94 30.9701 74.9193C30.7805 74.8784 30.592 74.8354 30.4046 74.7905C30.3093 74.7677 30.2173 74.7384 30.129 74.7033C30.0343 74.6925 29.9393 74.6748 29.8446 74.6498C29.6576 74.6007 29.4718 74.5496 29.2871 74.4967C29.1929 74.4697 29.1023 74.4365 29.0156 74.3975C28.9215 74.3825 28.8274 74.3607 28.7338 74.3317C28.5498 74.2746 28.3669 74.2157 28.1852 74.155C28.0923 74.124 28.0033 74.0868 27.9185 74.0442C27.8252 74.0252 27.7322 73.9994 27.64 73.9664C27.4592 73.9017 27.2795 73.8352 27.101 73.767C27.0097 73.7321 26.9225 73.6913 26.8397 73.6452C26.7474 73.6223 26.6557 73.5926 26.5652 73.5559C26.3877 73.4838 26.2115 73.4101 26.0365 73.3348C25.9468 73.2962 25.8616 73.2519 25.7809 73.2025C25.6899 73.1759 25.5996 73.1425 25.5108 73.1022C25.3368 73.023 25.1641 72.9424 24.9925 72.8602C24.9048 72.8181 24.8217 72.7706 24.7434 72.7182C24.6538 72.6881 24.5652 72.6512 24.4785 72.6075C24.3081 72.5217 24.1391 72.4345 23.9712 72.3458C23.8855 72.3005 23.8046 72.2499 23.7287 72.1947C23.6406 72.1612 23.5539 72.1211 23.4691 72.0743C23.3027 71.9822 23.1374 71.8887 22.9735 71.794C22.8899 71.7457 22.8112 71.6923 22.7377 71.6344C22.6512 71.5978 22.5663 71.5546 22.4836 71.5048C22.3211 71.4068 22.1599 71.3076 22 71.2072C21.9185 71.156 21.8421 71.0999 21.7709 71.0396C21.6861 71 21.6031 70.954 21.5225 70.9014C21.3641 70.798 21.2069 70.6933 21.051 70.5876C20.9716 70.5338 20.8975 70.4753 20.8288 70.4127C20.7456 70.3703 20.6645 70.3216 20.5862 70.2665C20.4318 70.1579 20.2787 70.0482 20.1269 69.9376C20.0496 69.8813 19.9778 69.8205 19.9114 69.7559C19.83 69.7109 19.7508 69.6597 19.6746 69.6022C19.5242 69.4888 19.3752 69.3744 19.2275 69.2592C19.1524 69.2006 19.0827 69.1378 19.0187 69.0713C18.939 69.0238 18.8618 68.9703 18.7877 68.9105C18.6414 68.7927 18.4964 68.674 18.3527 68.5545C18.2797 68.4938 18.2123 68.429 18.1506 68.3608C18.0726 68.311 17.9974 68.2553 17.9253 68.1936C17.783 68.0715 17.642 67.9488 17.5024 67.8254C17.4314 67.7627 17.3662 67.6961 17.3067 67.6263C17.2305 67.5745 17.1571 67.5167 17.0872 67.4531C16.9488 67.3271 16.8117 67.2006 16.676 67.0735C16.6071 67.009 16.544 66.9408 16.4867 66.8696C16.4122 66.8157 16.3407 66.7561 16.2728 66.6907C16.1383 66.5611 16.0051 66.4311 15.8732 66.3006C15.8064 66.2344 15.7453 66.1647 15.6901 66.0921C15.6174 66.0364 15.5477 65.975 15.4818 65.908C15.351 65.775 15.2216 65.6417 15.0936 65.5081C15.0287 65.4403 14.9697 65.3692 14.9166 65.2953C14.8455 65.2378 14.7776 65.1748 14.7136 65.1063C14.5865 64.9702 14.4609 64.8338 14.3367 64.6973C14.2736 64.628 14.2166 64.5556 14.1655 64.4805C14.096 64.4214 14.0299 64.3568 13.9677 64.2868C13.8443 64.1478 13.7224 64.0086 13.6019 63.8694C13.5407 63.7987 13.4855 63.725 13.4363 63.6488C13.3684 63.5881 13.304 63.5221 13.2437 63.4507C13.1239 63.3089 13.0056 63.1672 12.8888 63.0256C12.8294 62.9536 12.7761 62.8786 12.7288 62.8013C12.6624 62.7391 12.5996 62.6716 12.541 62.5989C12.4249 62.4547 12.3102 62.3106 12.1972 62.1669C12.1394 62.0935 12.0878 62.0173 12.0424 61.9389C11.9774 61.8752 11.9162 61.8064 11.8593 61.7323C11.7468 61.5859 11.6358 61.4398 11.5265 61.2942C11.4704 61.2195 11.4205 61.1421 11.3768 61.0627C11.3132 60.9975 11.2535 60.9272 11.1982 60.8519C11.0894 60.7035 10.9822 60.5558 10.8767 60.4087C10.8222 60.3326 10.7739 60.254 10.7319 60.1734C10.6696 60.1068 10.6113 60.0351 10.5576 59.9584C10.452 59.8078 10.3483 59.658 10.2463 59.5091C10.1935 59.432 10.147 59.3525 10.1069 59.2712C10.0461 59.2034 9.98948 59.1307 9.93752 59.053L9.78738 58.8274C9.73675 58.7509 9.68653 58.6744 9.63673 58.5978C9.58631 58.5204 9.54218 58.4407 9.50422 58.3595C9.44613 58.2906 9.39219 58.2171 9.34296 58.1389C9.24536 57.9839 9.14945 57.8289 9.05518 57.6741C9.00716 57.5953 8.9655 57.5144 8.93003 57.4321C8.87409 57.3617 8.82243 57.2867 8.77562 57.2072C8.68295 57.0498 8.59195 56.8925 8.50256 56.7355C8.45686 56.6552 8.41759 56.573 8.38456 56.4897C8.33064 56.4176 8.28114 56.3411 8.23664 56.2601C8.14902 56.1009 8.06305 55.9418 7.97864 55.783C7.9353 55.7015 7.89843 55.6183 7.86784 55.534C7.81601 55.4605 7.76874 55.3826 7.72658 55.3005C7.64349 55.1387 7.56199 54.9772 7.48205 54.8161C7.4413 54.7339 7.40697 54.6503 7.37888 54.5658C7.32949 54.4914 7.28472 54.4128 7.24511 54.3301C7.16646 54.166 7.08939 54.0023 7.01383 53.8391C6.97531 53.7558 6.94325 53.6713 6.91746 53.5861C6.87004 53.5104 6.82735 53.4306 6.78993 53.3469C6.7162 53.182 6.64398 53.0176 6.57321 52.8537C6.53685 52.7695 6.507 52.6843 6.48343 52.5984C6.43795 52.5216 6.3973 52.4408 6.36201 52.3562C6.29243 52.1895 6.22432 52.0234 6.15761 51.8579C6.12357 51.7735 6.09596 51.6881 6.07457 51.6024C6.0313 51.525 5.99287 51.4438 5.95983 51.3591C5.89437 51.1912 5.83031 51.024 5.76759 50.8576C5.7355 50.7725 5.70986 50.6866 5.69043 50.6004C5.64889 50.5222 5.61228 50.4402 5.58112 50.3548C5.51964 50.1863 5.45949 50.0187 5.4006 49.852C5.37052 49.7668 5.34681 49.681 5.32924 49.5951C5.28962 49.5166 5.25493 49.4345 5.2257 49.3492C5.16761 49.1796 5.11078 49.011 5.05514 48.8436C5.0267 48.7581 5.00463 48.672 4.98868 48.5858C4.95052 48.5068 4.91735 48.4243 4.88966 48.3385C4.83495 48.1692 4.78139 48.001 4.72892 47.8341C4.7021 47.7488 4.68155 47.6631 4.66701 47.5774C4.63041 47.4984 4.59875 47.416 4.57256 47.3306C4.5205 47.161 4.46951 46.9927 4.4195 46.826C4.39388 46.7406 4.3745 46.6549 4.36111 46.5693C4.32557 46.4901 4.29498 46.4077 4.26984 46.3222C4.22008 46.1531 4.17125 45.9856 4.1233 45.82C4.09874 45.7352 4.0803 45.6501 4.06775 45.5651C4.03322 45.4864 4.00361 45.4045 3.97935 45.3197L3.83745 44.8217C3.81358 44.7376 3.79572 44.6533 3.7836 44.5692C3.74977 44.4912 3.72075 44.4101 3.69697 44.3262L3.55692 43.8328C3.53325 43.7496 3.51546 43.6662 3.50332 43.583C3.46965 43.5059 3.44067 43.4258 3.41682 43.3429C3.3694 43.178 3.32252 43.0163 3.27599 42.8577C3.25209 42.7762 3.23386 42.6944 3.22107 42.6128C3.18726 42.5375 3.15794 42.4592 3.1335 42.3782C3.08484 42.2169 3.03654 42.0594 2.9884 41.9058C2.96367 41.8269 2.9443 41.7476 2.9301 41.6683C2.89563 41.5957 2.86533 41.5203 2.8396 41.4422C2.78827 41.2863 2.73714 41.1355 2.68597 40.9896C2.65971 40.9147 2.63838 40.8393 2.6218 40.7637C2.58618 40.6956 2.55426 40.6246 2.52639 40.5511C2.47058 40.4037 2.41488 40.263 2.35908 40.1288C2.3305 40.0601 2.30622 39.9907 2.28611 39.9209C2.24881 39.8597 2.21455 39.7958 2.18363 39.7294C2.15357 39.6648 2.12359 39.6024 2.09367 39.5421C2.05381 39.4618 2.01469 39.3821 1.97628 39.3032C1.93705 39.2225 1.90397 39.1405 1.87688 39.0577C1.82946 38.984 1.78652 38.9063 1.7486 38.8248C1.67157 38.6592 1.59779 38.4966 1.52715 38.3368C1.49028 38.2534 1.45982 38.1689 1.43558 38.0838C1.39025 38.0071 1.34973 37.9264 1.31456 37.8421C1.24317 37.6708 1.17547 37.5028 1.11129 37.3379C1.07766 37.2515 1.05072 37.1642 1.03022 37.0765C0.987888 36.9964 0.950737 36.9124 0.919312 36.8248C0.855202 36.6461 0.79533 36.4711 0.739452 36.2994C0.710068 36.2092 0.687756 36.1184 0.672203 36.0276C0.633816 35.9432 0.601097 35.855 0.574631 35.7635C0.52071 35.5771 0.471626 35.3948 0.426979 35.2162C0.40345 35.122 0.387333 35.0278 0.378265 34.9341C0.345467 34.8454 0.318851 34.7532 0.299019 34.6579C0.258694 34.4642 0.223671 34.2753 0.193287 34.0908C0.177349 33.994 0.168987 33.8977 0.167763 33.8025C0.142307 33.7107 0.123405 33.6159 0.111637 33.5185C0.087883 33.3221 0.0691948 33.1315 0.0544815 32.946C0.0468712 32.8501 0.0464783 32.7553 0.0528603 32.6621C0.0353889 32.571 0.0243492 32.4776 0.0202217 32.3823C0.0120659 32.1938 0.0072403 32.0112 0.0043602 31.8348C0.00289536 31.7452 0.00762177 31.657 0.0181465 31.5705C0.00644302 31.4855 0.000324249 31.3989 0.000164032 31.3108L3.8147e-06 31.0591C3.8147e-06 30.8758 0.0132217 30.6915 0.0413971 30.5074C0.0726929 30.303 0.135319 30.1109 0.223759 29.935C0.262363 29.7373 0.333138 29.5421 0.438122 29.3566C0.644341 28.9921 0.906197 28.6887 1.1924 28.4398C1.32614 28.3236 1.47139 28.2283 1.62403 28.1538C1.74306 28.0492 1.877 27.9571 2.02483 27.8808C2.28239 27.7479 2.54538 27.6419 2.80311 27.5562C2.92531 27.5156 3.04875 27.4874 3.17199 27.4709C3.28244 27.4245 3.39878 27.3873 3.52026 27.3606C3.74411 27.3114 3.96927 27.2717 4.19223 27.2396C4.30133 27.2239 4.40966 27.2172 4.51643 27.2191C4.61821 27.1934 4.72341 27.1755 4.83143 27.1658C5.03765 27.1474 5.24371 27.1339 5.44756 27.1241C5.54966 27.1192 5.65034 27.122 5.749 27.132C5.84595 27.116 5.94534 27.107 6.04663 27.1054C6.24416 27.1022 6.43969 27.1019 6.63143 27.1036C6.72907 27.1044 6.825 27.1122 6.91872 27.1265C7.01233 27.1158 7.10786 27.1116 7.20482 27.1143C7.39764 27.1197 7.58568 27.1265 7.76662 27.1339C7.86013 27.1378 7.95185 27.1479 8.04138 27.164C8.13127 27.1562 8.22277 27.1543 8.31544 27.1588C8.38672 27.1623 8.45502 27.1656 8.52121 27.1689C8.63453 27.1744 8.74163 27.1797 8.84675 27.1846C8.93227 27.1886 9.01626 27.1979 9.09841 27.2121C9.17836 27.2046 9.2596 27.2019 9.34192 27.2041C9.42435 27.2063 9.49417 27.2074 9.55285 27.2074C9.69436 27.2074 9.83537 27.2136 9.97294 27.2238C10.097 27.233 10.2176 27.2532 10.3337 27.2835C10.4476 27.2816 10.5633 27.2894 10.6797 27.3076C10.8828 27.3393 11.0935 27.3777 11.3094 27.4216C11.4114 27.4424 11.51 27.4705 11.6046 27.5053C11.7042 27.5134 11.8045 27.5291 11.9047 27.5527C12.0925 27.5969 12.2854 27.6449 12.4825 27.6962C12.5787 27.7212 12.6714 27.7528 12.7601 27.7903C12.8555 27.8027 12.9512 27.822 13.0465 27.8487C13.229 27.8998 13.4148 27.9535 13.6034 28.0095C13.6969 28.0372 13.7868 28.0712 13.8727 28.1107C13.9662 28.1258 14.0596 28.1477 14.1525 28.1767C14.3323 28.2327 14.5143 28.2907 14.6981 28.3504C14.7901 28.3803 14.8784 28.4162 14.9626 28.4576C15.055 28.4748 15.1473 28.4987 15.2389 28.5296C15.4168 28.5897 15.596 28.6512 15.7762 28.7142C15.8672 28.746 15.9543 28.7836 16.0374 28.8265C16.1291 28.8456 16.2206 28.8714 16.3111 28.904C16.4881 28.9678 16.6658 29.0329 16.8437 29.099C16.9338 29.1325 17.02 29.1718 17.102 29.2162C17.1931 29.2371 17.2839 29.2646 17.3737 29.2989C17.5498 29.3663 17.7259 29.4347 17.9018 29.504C17.9913 29.5392 18.0768 29.5802 18.1579 29.6263C18.2487 29.6489 18.339 29.6782 18.4282 29.7143C18.6037 29.7855 18.7787 29.8574 18.9529 29.9301C19.0419 29.9672 19.1267 30.01 19.207 30.0579C19.2977 30.0824 19.3876 30.1137 19.4763 30.1518C19.6516 30.2272 19.8258 30.3032 19.9985 30.3798C20.0871 30.4191 20.1713 30.464 20.2509 30.5139C20.3415 30.5407 20.4311 30.5741 20.5193 30.6146C20.6944 30.6948 20.8676 30.7755 21.0385 30.8567C21.127 30.8987 21.2109 30.9463 21.2899 30.9989C21.3807 31.0285 21.4705 31.0648 21.5585 31.1082C21.6453 31.1511 21.7315 31.194 21.8169 31.2371C21.8997 31.2788 21.9826 31.3214 22.0657 31.3648C22.1493 31.4085 22.2285 31.4573 22.3029 31.5105C22.388 31.5435 22.4718 31.5827 22.5537 31.6282C22.7106 31.7155 22.8681 31.8054 23.0256 31.8974C23.1044 31.9435 23.1788 31.9941 23.2486 32.0486C23.3298 32.0842 23.4095 32.1256 23.4871 32.1728C23.6381 32.2647 23.7892 32.3584 23.9399 32.4534C24.0158 32.5012 24.0873 32.5533 24.1542 32.6091C24.233 32.6465 24.3102 32.6896 24.3853 32.7383C24.532 32.8336 24.6783 32.9299 24.8239 33.0269C24.8977 33.0761 24.967 33.1293 25.0317 33.186C25.1088 33.2249 25.1841 33.2693 25.2572 33.3192C25.4012 33.4173 25.5441 33.5159 25.6859 33.6147C25.758 33.6649 25.8257 33.7191 25.8889 33.7766C25.9646 33.8167 26.0386 33.8622 26.1102 33.913C26.2519 34.0137 26.3922 34.1141 26.5304 34.214C26.6015 34.2653 26.668 34.3204 26.7299 34.3787C26.8048 34.42 26.8777 34.4664 26.9483 34.5182C26.9602 34.527 26.9721 34.5357 26.984 34.5445C26.9845 34.4679 26.9852 34.3914 26.9861 34.3148C26.9871 34.2243 26.9945 34.1353 27.0077 34.0482C26.9975 33.9607 26.9932 33.8715 26.9953 33.7811C26.9993 33.6032 27.0044 33.4253 27.0104 33.2474C27.0135 33.157 27.0228 33.0682 27.0379 32.9814C27.0296 32.8937 27.0273 32.8045 27.0314 32.7141C27.0394 32.5363 27.0484 32.3586 27.0583 32.1809C27.0634 32.0906 27.0747 32.002 27.0917 31.9156C27.0854 31.8278 27.0851 31.7385 27.0912 31.6482C27.1031 31.4707 27.116 31.2933 27.1299 31.1159C27.1369 31.0257 27.1502 30.9373 27.1691 30.8513C27.1647 30.7634 27.1664 30.6742 27.1744 30.584C27.1903 30.4069 27.2071 30.2298 27.2248 30.0528C27.2339 29.9627 27.249 29.8748 27.2698 29.7892C27.2674 29.7012 27.271 29.612 27.281 29.5221C27.3007 29.3455 27.3214 29.1688 27.343 28.9922C27.354 28.9024 27.3711 28.8148 27.3938 28.7296C27.3932 28.6417 27.3988 28.5526 27.4108 28.463C27.4343 28.2868 27.4588 28.1107 27.4842 27.9346C27.4971 27.8451 27.5161 27.7579 27.5406 27.6733C27.542 27.5854 27.5494 27.4965 27.5633 27.4071C27.5906 27.2316 27.6189 27.0561 27.6481 26.8806C27.663 26.7914 27.6838 26.7047 27.7101 26.6206C27.7133 26.5328 27.7227 26.4441 27.7385 26.3551C27.7695 26.1803 27.8015 26.0055 27.8344 25.8307C27.8511 25.7418 27.8738 25.6556 27.9018 25.5721C27.9069 25.4844 27.9182 25.396 27.9358 25.3073C27.9705 25.1333 28.0062 24.9592 28.0428 24.7852C28.0613 24.6968 28.0858 24.611 28.1156 24.5282C28.1225 24.4406 28.1356 24.3525 28.1551 24.2643C28.1934 24.091 28.2326 23.9178 28.2728 23.7446C28.2932 23.6566 28.3194 23.5714 28.3508 23.4893C28.3596 23.4019 28.3745 23.3141 28.3958 23.2263L28.4593 22.9675L28.5224 22.713C28.5439 22.6267 28.5708 22.5431 28.6029 22.4626C28.6122 22.3766 28.6274 22.2902 28.6488 22.2039L28.7753 21.6946C28.7968 21.6081 28.8238 21.5245 28.856 21.4439C28.8653 21.3578 28.8806 21.2714 28.9021 21.185L29.029 20.6753C29.0506 20.5889 29.0777 20.5053 29.1099 20.4247C29.1193 20.3386 29.1347 20.2521 29.1563 20.1656L29.284 19.6554C29.3057 19.5689 29.333 19.4852 29.3654 19.4045C29.3749 19.3183 29.3904 19.2317 29.4122 19.1452L29.5408 18.6353C29.5627 18.5487 29.5901 18.4649 29.6227 18.3842C29.6324 18.2979 29.6481 18.2113 29.6701 18.1247L29.8001 17.614C29.8222 17.5274 29.8499 17.4436 29.8827 17.363C29.8926 17.2767 29.9085 17.19 29.9308 17.1035L30.0621 16.5933C30.0845 16.5066 30.1126 16.4227 30.1457 16.342C30.1559 16.2555 30.1722 16.1686 30.1947 16.0819L30.3282 15.5708C30.3509 15.4841 30.3793 15.4004 30.4127 15.3198C30.4232 15.2333 30.4398 15.1466 30.4627 15.06L30.5983 14.5496C30.6215 14.4628 30.6503 14.3789 30.6842 14.2982C30.6952 14.2115 30.7122 14.1245 30.7356 14.0377L30.8743 13.5261C30.8979 13.4394 30.9272 13.3557 30.9615 13.2751C30.973 13.1885 30.9905 13.1016 31.0144 13.0149C31.0616 12.8436 31.1089 12.6733 31.1562 12.504C31.1804 12.4173 31.2102 12.3335 31.2452 12.253C31.2573 12.1663 31.2754 12.0793 31.3 11.9926C31.3486 11.8207 31.3973 11.6499 31.4461 11.4804C31.471 11.3935 31.5016 11.3097 31.5374 11.2292C31.5501 11.1423 31.569 11.0551 31.5944 10.9683C31.6446 10.7964 31.6949 10.6257 31.7451 10.4565C31.7709 10.3697 31.8024 10.286 31.8389 10.2057C31.8525 10.1187 31.8723 10.0316 31.8986 9.94483C31.9507 9.77276 32.0029 9.6022 32.0551 9.43326C32.0819 9.34639 32.1144 9.26271 32.152 9.1825C32.1667 9.09532 32.1876 9.00808 32.215 8.9213C32.2697 8.74841 32.3244 8.57731 32.3792 8.40811C32.4074 8.32099 32.4412 8.23718 32.4803 8.15695C32.4963 8.06936 32.5186 7.98179 32.5476 7.89479C32.6052 7.72144 32.6629 7.55021 32.7208 7.38122C32.7507 7.29397 32.7862 7.21017 32.8269 7.13009C32.8446 7.04215 32.8688 6.95437 32.8996 6.86727C32.9611 6.69319 33.0228 6.52164 33.0847 6.35277C33.1168 6.26526 33.1546 6.18141 33.1975 6.10146C33.2175 6.013 33.244 5.92484 33.2772 5.83755C33.344 5.66239 33.4111 5.49029 33.4785 5.32144C33.5135 5.23354 33.5544 5.14957 33.6004 5.06977C33.6235 4.98054 33.6533 4.89183 33.69 4.80425C33.7645 4.62685 33.8395 4.45321 33.915 4.28365C33.9548 4.19441 34.0005 4.10958 34.0516 4.02942C34.0793 3.93825 34.1143 3.84796 34.1566 3.75921C34.1987 3.67109 34.241 3.58413 34.2835 3.49838C34.3249 3.41513 34.3666 3.33228 34.4087 3.25007C34.4529 3.16384 34.5028 3.08224 34.5576 3.0055C34.5914 2.91594 34.6323 2.82771 34.6806 2.74151C34.7809 2.56244 34.8862 2.38457 34.9969 2.21112C35.0581 2.11539 35.1263 2.02669 35.2006 1.94527C35.2534 1.84402 35.316 1.74594 35.3886 1.65225C35.5445 1.45108 35.7191 1.25041 35.9157 1.06152C36.0309 0.950822 36.1563 0.856745 36.2889 0.779251C36.4052 0.663032 36.5383 0.559378 36.6874 0.471958C37.01 0.282795 37.3743 0.134117 37.7785 0.0528208C37.9813 0.0120379 38.1832 0.00330241 38.3787 0.0230836ZM38.0324 4.79769C38.0737 4.73994 38.1122 4.6794 38.1476 4.61616C38.2185 4.48967 38.2854 4.37725 38.3491 4.27765C38.3803 4.2288 38.409 4.17911 38.4352 4.12873C38.4706 4.08992 38.5048 4.04941 38.5374 4.00723C38.5529 3.98726 38.5676 3.969 38.5813 3.95232C38.5913 3.95843 38.6012 3.96446 38.6113 3.97043C38.6477 3.992 38.6881 4.01742 38.7326 4.04728L38.9551 4.19675C39.0305 4.24739 39.1082 4.29222 39.1876 4.33133C39.2535 4.38985 39.3241 4.44471 39.3994 4.49537L39.8426 4.79374C39.9177 4.8443 39.995 4.88909 40.074 4.92822C40.1395 4.98665 40.2097 5.04146 40.2846 5.09211L40.7251 5.39071C40.7996 5.44134 40.8764 5.48626 40.955 5.52556C41.02 5.58404 41.0897 5.63895 41.164 5.68975C41.3101 5.78955 41.4558 5.88944 41.6011 5.98945C41.6751 6.0403 41.7513 6.0855 41.8293 6.12514C41.8936 6.18379 41.9627 6.23893 42.0363 6.29002C42.1811 6.39042 42.3255 6.49096 42.4694 6.59169C42.5426 6.64292 42.6181 6.68855 42.6955 6.72868C42.759 6.78764 42.8273 6.84314 42.9002 6.89468C43.0435 6.99597 43.1863 7.09747 43.3286 7.19923C43.401 7.25097 43.4757 7.2972 43.5523 7.33798C43.6149 7.39736 43.6823 7.45338 43.7543 7.50551C43.8958 7.60796 44.0368 7.71068 44.1772 7.81372C44.2486 7.86612 44.3224 7.91307 44.3981 7.95465C44.4597 8.01458 44.5261 8.07123 44.597 8.12408C44.7365 8.22796 44.8754 8.33218 45.0136 8.43677C45.0839 8.48996 45.1567 8.53779 45.2315 8.58031C45.2919 8.64089 45.357 8.69829 45.4268 8.752C45.564 8.85759 45.7006 8.96359 45.8364 9.07002C45.9055 9.12414 45.9771 9.17298 46.0508 9.21661C46.1099 9.27797 46.1737 9.33625 46.2422 9.39096C46.3769 9.49849 46.5108 9.60649 46.6439 9.71499C46.7116 9.77016 46.782 9.82014 46.8544 9.865C46.912 9.92721 46.9743 9.98648 47.0414 10.0423C47.1731 10.152 47.3041 10.2622 47.4343 10.3731C47.5005 10.4294 47.5693 10.4806 47.6405 10.5269C47.6964 10.59 47.757 10.6504 47.8225 10.7074C47.9511 10.8195 48.0789 10.9323 48.2058 11.0456C48.2703 11.1032 48.3376 11.1559 48.4072 11.2036C48.4613 11.2678 48.5202 11.3293 48.5839 11.3877C48.709 11.5024 48.8332 11.6178 48.9565 11.7339C49.0192 11.7929 49.0848 11.847 49.1528 11.8963C49.2048 11.9617 49.2618 12.0245 49.3235 12.0843C49.4449 12.2018 49.5653 12.32 49.6846 12.439C49.7453 12.4994 49.809 12.5552 49.8752 12.6062C49.9251 12.6727 49.9799 12.7368 50.0396 12.7981C50.1568 12.9186 50.2731 13.0398 50.3882 13.1619C50.4467 13.2238 50.5083 13.2812 50.5727 13.334C50.6203 13.4018 50.6727 13.4673 50.7302 13.5302C50.843 13.6537 50.9547 13.778 51.0653 13.9032C51.1214 13.9668 51.1809 14.0259 51.2432 14.0806C51.2883 14.1496 51.3383 14.2165 51.3933 14.281C51.5013 14.4076 51.6083 14.5352 51.714 14.6637C51.7677 14.7289 51.8249 14.7899 51.8849 14.8464C51.9274 14.9167 51.9748 14.9851 52.0273 15.0513C52.1303 15.1811 52.2322 15.312 52.3329 15.4438C52.384 15.5108 52.4386 15.5735 52.4963 15.632C52.536 15.7036 52.5807 15.7735 52.6305 15.8413C52.7281 15.9743 52.8246 16.1084 52.9198 16.2435C52.9682 16.3121 53.0202 16.3766 53.0754 16.4371C53.1122 16.5099 53.154 16.5812 53.201 16.6507C53.2471 16.719 53.293 16.7876 53.3386 16.8564C53.3806 16.9199 53.4226 16.9843 53.4646 17.0497C53.5077 17.1168 53.5543 17.1804 53.604 17.2404C53.636 17.3114 53.6728 17.3812 53.7143 17.4495C53.7951 17.5826 53.8757 17.719 53.9561 17.8587C53.9963 17.9284 54.0402 17.9948 54.0874 18.0577C54.1165 18.1307 54.1503 18.2028 54.189 18.2735C54.2648 18.4119 54.3402 18.553 54.4152 18.6967C54.453 18.7693 54.4949 18.8386 54.5404 18.9044C54.5668 18.9797 54.5982 19.0542 54.6347 19.1276C54.7057 19.2703 54.7763 19.4153 54.8463 19.5625C54.8815 19.6366 54.9209 19.7075 54.9641 19.7751C54.9878 19.8514 55.0167 19.9272 55.0507 20.002C55.1174 20.1486 55.1835 20.2972 55.2489 20.4476C55.2819 20.5234 55.3191 20.596 55.3604 20.6654C55.3817 20.743 55.4082 20.8202 55.44 20.8965C55.502 21.0456 55.5634 21.1962 55.6241 21.3484C55.6548 21.4256 55.69 21.4997 55.7293 21.5706C55.7483 21.6493 55.7726 21.7276 55.8022 21.8052C55.86 21.9568 55.917 22.1098 55.9733 22.264C56.0017 22.342 56.0347 22.4172 56.0719 22.4892C56.0886 22.5683 56.1106 22.6472 56.1379 22.7257C56.1916 22.8797 56.2445 23.035 56.2965 23.1913C56.3228 23.2701 56.3536 23.3461 56.3887 23.4192C56.4033 23.4987 56.423 23.5783 56.4481 23.6574C56.4975 23.813 56.546 23.9694 56.5936 24.1268C56.6177 24.2065 56.6465 24.2836 56.6798 24.3579C56.6921 24.4381 56.7096 24.5184 56.7327 24.5985C56.7777 24.7553 56.8219 24.9128 56.865 25.0711C56.8869 25.1515 56.9137 25.2293 56.9448 25.3044C56.955 25.3849 56.9703 25.4657 56.9911 25.5464C57.0319 25.7045 57.0717 25.8632 57.1105 26.0225C57.1302 26.1033 57.1547 26.1818 57.1838 26.2576C57.1917 26.3382 57.2048 26.4193 57.2233 26.5003C57.2598 26.6597 57.2952 26.8195 57.3295 26.9797C57.3469 27.0609 57.3693 27.1398 57.3961 27.2163C57.4018 27.297 57.4126 27.3782 57.4288 27.4596C57.4608 27.6198 57.4917 27.7803 57.5214 27.941C57.5364 28.0225 57.5565 28.102 57.5811 28.1791C57.5845 28.2598 57.5929 28.3412 57.6068 28.4229C57.6341 28.5837 57.6603 28.7446 57.6852 28.9057C57.6979 28.9875 57.7155 29.0673 57.7379 29.1449C57.7388 29.2255 57.7449 29.3069 57.7563 29.3889C57.7788 29.5501 57.8001 29.7114 57.82 29.8726C57.8302 29.9545 57.8454 30.0346 57.8653 30.1126C57.8637 30.193 57.8673 30.2743 57.8761 30.3563C57.8936 30.5178 57.9097 30.6791 57.9245 30.8403C57.932 30.9222 57.9446 31.0025 57.9619 31.0809C57.9578 31.1609 57.9587 31.2421 57.9649 31.3241C57.977 31.4854 57.9877 31.6465 57.9971 31.8072C58.0018 31.8891 58.0117 31.9695 58.0263 32.0481C58.0195 32.1277 58.0176 32.2086 58.0209 32.2905C58.0274 32.4515 58.0325 32.6122 58.0361 32.7723C58.0379 32.8538 58.0448 32.9341 58.0565 33.0128C58.0469 33.0917 58.0421 33.1721 58.0424 33.2536C58.043 33.4142 58.042 33.5742 58.0395 33.7336C58.0382 33.8145 58.042 33.8944 58.0506 33.9729C58.038 34.0508 58.0301 34.1303 58.0272 34.2112C58.0215 34.371 58.0141 34.53 58.0051 34.6883C58.0005 34.7687 58.001 34.8482 58.0062 34.9265C57.9904 35.0034 57.9793 35.082 57.9729 35.1622C57.9605 35.3203 57.9463 35.4775 57.9304 35.6337C57.9223 35.7133 57.9192 35.7922 57.9209 35.8703C57.9018 35.9459 57.887 36.0235 57.8771 36.1027C57.8574 36.2587 57.836 36.4136 57.8128 36.5673C57.8009 36.6457 57.794 36.7237 57.7918 36.801C57.7692 36.875 57.7508 36.951 57.7369 37.029C57.7096 37.1827 57.6804 37.3351 57.6493 37.486C57.6335 37.5627 57.6225 37.6392 57.6162 37.7153C57.5899 37.787 57.5677 37.861 57.5497 37.937C57.5142 38.0876 57.4767 38.2366 57.4373 38.3841C57.4172 38.459 57.4019 38.534 57.3911 38.6089C57.3609 38.6782 57.3345 38.75 57.3121 38.8241C57.2682 38.97 57.2221 39.1141 57.1741 39.2564C57.1495 39.3291 57.1296 39.4021 57.1141 39.4753C57.0798 39.5418 57.049 39.611 57.022 39.6826C56.9956 39.7527 56.9687 39.8223 56.9412 39.8915C56.9116 39.9661 56.8816 40.0406 56.8511 40.115C56.8201 40.1907 56.7942 40.2672 56.7734 40.3441C56.7327 40.413 56.6958 40.4851 56.6631 40.5602C56.5988 40.7079 56.5329 40.8553 56.4654 41.0021C56.4311 41.0768 56.4019 41.1525 56.3779 41.2288C56.3341 41.2962 56.2941 41.367 56.2582 41.441C56.1876 41.5867 56.1154 41.7319 56.0417 41.8765C56.0042 41.95 55.972 42.0248 55.9448 42.1004C55.8982 42.1662 55.8552 42.2356 55.8163 42.3085C55.7397 42.4519 55.6616 42.5947 55.5822 42.7368C55.5418 42.8091 55.5065 42.8828 55.4764 42.9576C55.4271 43.0218 55.3814 43.0898 55.3396 43.1614C55.2574 43.3023 55.1738 43.4426 55.0889 43.5821C55.0457 43.653 55.0076 43.7256 54.9746 43.7994C54.9229 43.862 54.8746 43.9285 54.8301 43.9987C54.7425 44.137 54.6536 44.2745 54.5636 44.4111C54.5178 44.4807 54.4771 44.552 54.4413 44.6248C54.3873 44.6857 54.3366 44.7506 54.2895 44.8193C54.1968 44.9549 54.1029 45.0895 54.008 45.2233C53.9597 45.2913 53.9164 45.3613 53.8781 45.4329C53.8219 45.492 53.7689 45.5552 53.7194 45.6224C53.6218 45.7549 53.5233 45.8864 53.4238 46.0169C53.373 46.0835 53.3273 46.1521 53.2865 46.2225C53.2282 46.2798 53.1729 46.3413 53.1211 46.407C53.0189 46.5363 52.9158 46.6646 52.8119 46.7917C52.759 46.8565 52.711 46.9235 52.6678 46.9925C52.6077 47.0478 52.5504 47.1074 52.4964 47.1712C52.3897 47.2974 52.2821 47.4224 52.1739 47.5461C52.1188 47.6091 52.0685 47.6746 52.023 47.7421C51.9609 47.7954 51.9016 47.8531 51.8454 47.9152C51.7347 48.0376 51.6232 48.1586 51.5112 48.2783C51.454 48.3394 51.4015 48.4032 51.3537 48.4692C51.2898 48.5204 51.2286 48.5761 51.1703 48.6363C51.0552 48.755 50.9396 48.8723 50.8235 48.9881C50.7643 49.0471 50.7098 49.1089 50.6599 49.173C50.5945 49.2219 50.5315 49.2753 50.4713 49.3333C50.3525 49.4478 50.2333 49.5606 50.1137 49.6718C50.0525 49.7287 49.9958 49.7885 49.9436 49.8509C49.8765 49.8974 49.8117 49.9486 49.7495 50.0043C49.6266 50.1145 49.5034 50.2229 49.3802 50.3293C49.3173 50.3837 49.2587 50.4411 49.2045 50.5011C49.1362 50.5449 49.0699 50.5933 49.006 50.6464C48.8796 50.7515 48.7532 50.8545 48.6268 50.9555C48.5619 51.0073 48.5013 51.0622 48.4449 51.12C48.3751 51.161 48.307 51.2067 48.2412 51.2571C48.111 51.3569 47.9809 51.4543 47.8511 51.5495C47.7847 51.5981 47.7224 51.6501 47.6641 51.7049C47.5932 51.7426 47.5239 51.785 47.4566 51.8321C47.3233 51.9254 47.1904 52.0161 47.058 52.1042C46.9902 52.1494 46.9262 52.1979 46.866 52.2494C46.7943 52.2835 46.7238 52.3221 46.6551 52.3655C46.5182 52.4519 46.3821 52.5353 46.247 52.6158C46.1778 52.6569 46.1121 52.7016 46.0499 52.7495C45.9773 52.7793 45.9058 52.8138 45.8356 52.853C45.6963 52.9307 45.5582 53.005 45.4215 53.076C45.3515 53.1123 45.2846 53.1522 45.2209 53.1953C45.1482 53.2202 45.0763 53.2496 45.0054 53.2835C44.9883 53.2916 44.9713 53.2997 44.9544 53.3077C44.9777 53.2388 44.9969 53.1694 45.012 53.0998C45.0547 53.0194 45.0922 52.935 45.1239 52.847C45.1846 52.6782 45.2459 52.505 45.3074 52.3276C45.3381 52.2393 45.3618 52.1504 45.3791 52.0614C45.4198 51.9801 45.4553 51.895 45.4849 51.8064C45.542 51.6353 45.5991 51.4609 45.6562 51.2831C45.6847 51.1941 45.7064 51.1046 45.7216 51.0152C45.7604 50.9329 45.7939 50.8469 45.8214 50.7576C45.8747 50.5842 45.9278 50.4082 45.9804 50.2295C46.0068 50.1396 46.0264 50.0494 46.0394 49.9594C46.0763 49.876 46.1078 49.789 46.1331 49.6988C46.1825 49.5233 46.2313 49.3454 46.2794 49.1655C46.3037 49.0747 46.321 48.9837 46.3317 48.8931C46.3666 48.8085 46.3959 48.7205 46.419 48.6294C46.4639 48.4523 46.5081 48.2734 46.5513 48.0927C46.5732 48.0013 46.5881 47.9099 46.5964 47.8191C46.629 47.7337 46.6559 47.6449 46.6766 47.5532C46.7169 47.374 46.7562 47.1931 46.7945 47.0108C46.8139 46.9184 46.8263 46.8262 46.832 46.7348C46.8624 46.648 46.8869 46.5582 46.9049 46.4655C46.9402 46.2842 46.9744 46.1016 47.0073 45.9178C47.024 45.8248 47.0336 45.7321 47.0366 45.6404C47.0643 45.5527 47.0861 45.462 47.1013 45.3687C47.1311 45.1857 47.1596 45.0016 47.1867 44.8165C47.2004 44.7224 47.2071 44.629 47.2071 44.5367C47.2321 44.4476 47.2509 44.3558 47.2631 44.2614C47.287 44.0765 47.3094 43.8907 47.3301 43.704C47.3407 43.6092 47.3441 43.5153 47.3408 43.4227C47.3628 43.3326 47.3784 43.2398 47.3872 43.1448C47.4045 42.9581 47.4202 42.7708 47.434 42.5827C47.441 42.4871 47.4409 42.3925 47.434 42.2995C47.4527 42.2081 47.4648 42.1142 47.4699 42.0183C47.48 41.83 47.4883 41.6411 47.4945 41.4517C47.4977 41.3553 47.4936 41.2602 47.4829 41.1671C47.4977 41.0745 47.506 40.9796 47.5071 40.8831C47.5081 40.7881 47.5087 40.693 47.5087 40.5979V40.3471C47.5087 40.2608 47.5029 40.1749 47.4918 40.0916C47.5029 40.0082 47.5087 39.9233 47.5087 39.837V39.3297C47.5087 39.2433 47.5029 39.1562 47.4918 39.0729C47.5029 38.9895 47.5087 38.9045 47.5087 38.8181V38.3107C47.5087 38.2246 47.503 38.1378 47.4919 38.0547C47.503 37.9715 47.5087 37.8867 47.5087 37.8007V37.2941C47.5087 37.2078 47.5029 37.1209 47.4919 37.0376C47.5029 36.9543 47.5087 36.8694 47.5087 36.7831V36.276C47.5087 36.1897 47.5029 36.1028 47.4918 36.0195C47.5029 35.9362 47.5087 35.8512 47.5087 35.7649V35.2582C47.5087 35.172 47.5029 35.085 47.4919 35.0018C47.5029 34.9185 47.5087 34.8335 47.5087 34.7473V34.2402C47.5087 34.154 47.5029 34.0671 47.4919 33.9838C47.5029 33.9006 47.5087 33.8156 47.5087 33.7294V33.223C47.5087 33.1367 47.5029 33.0498 47.4918 32.9665C47.5029 32.8832 47.5087 32.7982 47.5087 32.712V32.2045C47.5087 32.1182 47.5029 32.0313 47.4918 31.948C47.5029 31.8646 47.5087 31.7796 47.5087 31.6933V31.1864C47.5087 31.1002 47.5029 31.0134 47.4919 30.9301C47.5029 30.8469 47.5087 30.762 47.5087 30.6758V30.1695C47.5087 30.0834 47.503 29.9966 47.4919 29.9134C47.503 29.8303 47.5087 29.7455 47.5087 29.6594V29.153C47.5087 29.0667 47.5029 28.9799 47.4919 28.8966C47.5029 28.8134 47.5087 28.7284 47.5087 28.6422V28.1345C47.5087 28.048 47.5029 27.9609 47.4918 27.8774C47.5029 27.7939 47.5087 27.7087 47.5087 27.6222V27.1139C47.5087 27.0281 47.503 26.9417 47.492 26.8588C47.503 26.7759 47.5087 26.6914 47.5087 26.6056V26.0955C47.5087 26.0098 47.503 25.9238 47.4921 25.8411C47.503 25.7584 47.5087 25.6741 47.5087 25.5885V25.3383L47.3526 25.3358C47.0519 24.6387 46.3491 24.1497 45.5299 24.1497C44.7108 24.1497 44.0079 24.6387 43.7072 25.3358H43.5512V25.5865C43.5512 25.6721 43.5568 25.7584 43.5678 25.8411C43.5568 25.9238 43.5512 26.0081 43.5512 26.0937V26.6034C43.5512 26.6892 43.5569 26.7759 43.5678 26.8588C43.5569 26.9417 43.5512 27.0262 43.5512 27.112V27.6201C43.5512 27.7066 43.557 27.7939 43.5681 27.8774C43.557 27.9609 43.5512 28.0461 43.5512 28.1326V28.6402C43.5512 28.7264 43.5569 28.8134 43.568 28.8966C43.5569 28.9799 43.5512 29.0648 43.5512 29.151V29.6573C43.5512 29.7434 43.5569 29.8303 43.568 29.9134C43.5569 29.9966 43.5512 30.0814 43.5512 30.1675V30.6738C43.5512 30.76 43.5569 30.8469 43.568 30.9301C43.5569 31.0134 43.5512 31.0982 43.5512 31.1844V31.6913C43.5512 31.7776 43.5569 31.8646 43.568 31.948C43.5569 32.0313 43.5512 32.1163 43.5512 32.2026V32.71C43.5512 32.7962 43.5569 32.8832 43.568 32.9665C43.5569 33.0498 43.5512 33.1347 43.5512 33.221V33.7274C43.5512 33.8137 43.5569 33.9006 43.568 33.9838C43.5569 34.0671 43.5512 34.152 43.5512 34.2383V34.7453C43.5512 34.8315 43.5569 34.9185 43.568 35.0018C43.5569 35.085 43.5512 35.17 43.5512 35.2562V35.7629C43.5512 35.8492 43.5569 35.9362 43.568 36.0195C43.5569 36.1028 43.5512 36.1877 43.5512 36.274V36.7812C43.5512 36.8674 43.5569 36.9543 43.568 37.0376C43.5569 37.1209 43.5512 37.2058 43.5512 37.2921V37.7987C43.5512 37.8848 43.5569 37.9715 43.5679 38.0547C43.5569 38.1378 43.5512 38.2226 43.5512 38.3087V38.8161C43.5512 38.9025 43.5569 38.9895 43.568 39.0729C43.5569 39.1562 43.5512 39.2413 43.5512 39.3276V39.835C43.5512 39.9213 43.5569 40.0082 43.568 40.0916C43.5569 40.1749 43.5512 40.2598 43.5512 40.3461V40.5969C43.5512 40.6776 43.5508 40.7594 43.5498 40.8403C43.5489 40.9226 43.5532 41.0038 43.5624 41.0835C43.5497 41.1628 43.5418 41.2439 43.5391 41.3262C43.5338 41.4886 43.5267 41.6511 43.518 41.8137C43.5135 41.8965 43.5144 41.9784 43.5204 42.059C43.5042 42.1383 43.4929 42.2196 43.4869 42.3024C43.4748 42.4656 43.4612 42.6288 43.4461 42.7918C43.4384 42.8749 43.4361 42.9572 43.439 43.0384C43.4198 43.1175 43.4053 43.1987 43.3961 43.2816C43.3779 43.4455 43.3582 43.6091 43.3371 43.7723C43.3264 43.8556 43.3212 43.9383 43.3212 44.0201C43.299 44.099 43.2817 44.1802 43.2695 44.2633C43.2455 44.4274 43.2201 44.591 43.1936 44.754C43.18 44.8372 43.1721 44.9199 43.1694 45.0019C43.1446 45.0803 43.1246 45.1611 43.1098 45.2441C43.0803 45.4084 43.0497 45.572 43.018 45.7347C43.0018 45.8179 42.9913 45.9009 42.9861 45.9833C42.9588 46.0614 42.9362 46.1421 42.9187 46.2251C42.8843 46.3893 42.8487 46.5524 42.8123 46.7145C42.7937 46.7973 42.7807 46.8801 42.7732 46.9624C42.7436 47.0398 42.7188 47.12 42.699 47.2026C42.6598 47.3664 42.6197 47.5288 42.5789 47.6897C42.5579 47.7725 42.5427 47.8554 42.5329 47.938C42.5011 48.015 42.4739 48.0949 42.4519 48.1775C42.408 48.3414 42.3635 48.5036 42.3184 48.6639C42.2953 48.7463 42.2779 48.8288 42.266 48.9112C42.2322 48.9875 42.203 49.0668 42.1789 49.1489C42.1307 49.3124 42.0821 49.4735 42.0333 49.6324C42.0081 49.7142 41.9887 49.7964 41.9748 49.8785C41.9391 49.954 41.908 50.0327 41.8818 50.1142C41.8295 50.2773 41.777 50.4375 41.7246 50.5946C41.6974 50.6759 41.676 50.7577 41.6602 50.8396C41.6227 50.9144 41.5897 50.9924 41.5616 51.0734C41.505 51.2364 41.4487 51.3956 41.3929 51.5507C41.3638 51.6316 41.3404 51.713 41.3227 51.7947C41.2834 51.8687 41.2485 51.9461 41.2185 52.0265C41.1574 52.1901 41.0973 52.3482 41.0384 52.5005C41.0075 52.5806 40.9823 52.6614 40.9626 52.7425C40.9216 52.8155 40.885 52.892 40.8531 52.9716C40.7874 53.1356 40.7239 53.2912 40.6631 53.4377C40.6492 53.4714 40.6362 53.5052 40.6243 53.5392C40.5853 53.5324 40.5464 53.5268 40.5076 53.5223C40.4372 53.4949 40.3644 53.471 40.2894 53.4512C40.1435 53.4126 39.9966 53.3713 39.8492 53.3273C39.7751 53.3052 39.7008 53.2875 39.6265 53.2742C39.5582 53.2424 39.4874 53.2142 39.4142 53.1897C39.2714 53.142 39.1283 53.0917 38.9853 53.0387C38.9133 53.012 38.8407 52.9897 38.7679 52.9716C38.7024 52.9357 38.6341 52.9031 38.5632 52.8741C38.4247 52.8174 38.2864 52.7581 38.1487 52.6961C38.0794 52.6649 38.0091 52.6379 37.9383 52.6151C37.876 52.5751 37.8108 52.5382 37.7427 52.5046C37.6095 52.4389 37.4772 52.3707 37.3458 52.2998C37.2795 52.264 37.2121 52.2324 37.1438 52.2048C37.0852 52.1608 37.0235 52.1196 36.9588 52.0815C36.8322 52.0069 36.7067 51.9297 36.5825 51.8499C36.5199 51.8097 36.4558 51.7734 36.3906 51.741C36.3362 51.6931 36.2785 51.6478 36.2177 51.6051C36.0986 51.5217 35.981 51.4358 35.865 51.3472C35.8064 51.3025 35.7462 51.2616 35.6844 51.2243C35.6347 51.1727 35.5816 51.1232 35.5251 51.0762C35.4145 50.9842 35.3057 50.8896 35.1986 50.7924C35.1446 50.7433 35.0885 50.6978 35.0307 50.6558C34.986 50.6005 34.9378 50.5471 34.8861 50.4959C34.7849 50.3955 34.6856 50.2925 34.5881 50.1868C34.5391 50.1336 34.4878 50.0837 34.4344 50.0371C34.3951 49.9786 34.3523 49.9216 34.3057 49.8663C34.2148 49.7582 34.1257 49.6474 34.0387 49.5339C33.9949 49.4767 33.9484 49.4225 33.8996 49.3714C33.8659 49.3096 33.8285 49.2491 33.7874 49.1899C33.7068 49.0743 33.6283 48.9558 33.5518 48.8346C33.5133 48.7735 33.4718 48.7152 33.4278 48.6597C33.3998 48.5949 33.368 48.531 33.3323 48.4682C33.2625 48.3455 33.1948 48.2199 33.1292 48.0916C33.0963 48.0271 33.0602 47.9653 33.0213 47.9061C32.9992 47.8389 32.9731 47.7723 32.9431 47.7064C32.8843 47.5776 32.8275 47.446 32.773 47.3115C32.7455 47.2436 32.7145 47.1781 32.6804 47.1151C32.664 47.0454 32.6436 46.9759 32.6189 46.9069C32.5707 46.772 32.5247 46.6343 32.4809 46.4937C32.459 46.4234 32.4334 46.3552 32.4044 46.2893C32.3937 46.2181 32.3788 46.1468 32.3597 46.0756C32.3406 46.0047 32.3221 45.9331 32.3041 45.8608L32.2408 45.6023C32.2195 45.5145 32.1925 45.4296 32.1602 45.3477C32.1525 45.2603 32.1386 45.1724 32.1183 45.0844C32.0784 44.9114 32.0395 44.7384 32.0016 44.5654C31.9823 44.4773 31.9572 44.3918 31.9268 44.3094C31.921 44.2219 31.9091 44.1337 31.8908 44.0454C31.8548 43.8716 31.8199 43.6979 31.7859 43.5243C31.7686 43.4358 31.7455 43.3498 31.7169 43.2668C31.7131 43.1792 31.7032 43.0909 31.6869 43.0022C31.6549 42.8278 31.6239 42.6535 31.594 42.4792C31.5787 42.3904 31.5575 42.304 31.5309 42.2204C31.5291 42.1328 31.5213 42.0443 31.507 41.9553C31.479 41.7804 31.4521 41.6055 31.4262 41.4306C31.413 41.3415 31.3938 41.2547 31.3691 41.1706C31.3694 41.083 31.3636 40.9944 31.3514 40.9052C31.3275 40.7298 31.3046 40.5544 31.2828 40.379C31.2717 40.2897 31.2546 40.2025 31.2319 40.1178C31.2342 40.0303 31.2305 39.9416 31.2204 39.8522C31.2006 39.6764 31.1819 39.5006 31.1642 39.3248C31.1552 39.2353 31.1401 39.1478 31.1195 39.0626C31.1238 38.9752 31.1222 38.8865 31.1142 38.7969L31.0916 38.5327L31.072 38.2876C31.0656 38.2046 31.0539 38.1232 31.0374 38.0436C31.0424 37.9626 31.0424 37.8804 31.0369 37.7973C31.0261 37.6338 31.0161 37.4702 31.0072 37.3067C31.0026 37.2235 30.9928 37.1419 30.978 37.062C30.9848 36.9812 30.9865 36.899 30.9829 36.8158C30.9757 36.6521 30.9694 36.4884 30.9641 36.3247C30.9613 36.2415 30.9533 36.1596 30.9403 36.0795C30.9489 35.9988 30.9525 35.9167 30.9507 35.8334C30.9471 35.6697 30.9445 35.5059 30.9427 35.3421C30.9419 35.2588 30.9357 35.1769 30.9245 35.0965C30.9349 35.016 30.9402 34.934 30.9403 34.8507C30.9404 34.6869 30.9414 34.5231 30.9433 34.3593C30.9442 34.2761 30.9399 34.194 30.9305 34.1134C30.9426 34.0331 30.9498 33.9512 30.9517 33.868C30.9555 33.7042 30.9601 33.5405 30.9656 33.3767C30.9685 33.2935 30.9659 33.2114 30.9583 33.1306C30.9722 33.0506 30.9813 32.9689 30.985 32.8857C30.9924 32.7221 31.0006 32.5584 31.0098 32.3948C31.0145 32.3117 31.0137 32.2294 31.0079 32.1485C31.0236 32.0688 31.0345 31.9873 31.04 31.9042C31.051 31.7408 31.0629 31.5773 31.0757 31.4139C31.0822 31.3308 31.0833 31.2486 31.0792 31.1675C31.0967 31.0882 31.1093 31.0069 31.1167 30.9239C31.1313 30.7607 31.1468 30.5976 31.1632 30.4344C31.1715 30.3515 31.1744 30.2692 31.1721 30.1881C31.1913 30.1091 31.2057 30.0281 31.215 29.9453C31.2331 29.7824 31.2522 29.6195 31.2721 29.4567C31.2823 29.3739 31.2869 29.2918 31.2865 29.2105C31.3074 29.132 31.3236 29.0512 31.3346 28.9686C31.3563 28.8061 31.3789 28.6436 31.4024 28.4811C31.4143 28.3986 31.4208 28.3165 31.422 28.2353C31.4447 28.1571 31.4626 28.0767 31.4754 27.9943C31.5006 27.8323 31.5267 27.6702 31.5537 27.5082C31.5674 27.4259 31.5756 27.3439 31.5786 27.2627C31.6029 27.185 31.6225 27.105 31.6371 27.0228C31.6658 26.8613 31.6953 26.6998 31.7258 26.5382C31.7412 26.4562 31.7512 26.3744 31.7559 26.2932C31.7819 26.216 31.8032 26.1363 31.8195 26.0544C31.8516 25.8934 31.8846 25.7325 31.9184 25.5715C31.9356 25.4897 31.9473 25.4081 31.9537 25.327C31.9813 25.2503 32.0043 25.171 32.0224 25.0894C32.0578 24.9291 32.0941 24.7687 32.1313 24.6083C32.1502 24.5269 32.1636 24.4455 32.1717 24.3645C32.2009 24.2883 32.2256 24.2094 32.2453 24.1282L32.3041 23.8883L32.3673 23.6339C32.3887 23.5476 32.4039 23.4613 32.4131 23.3754C32.4452 23.2949 32.4721 23.2115 32.4935 23.1252L32.6198 22.6167C32.6413 22.5305 32.6565 22.4443 32.6658 22.3584C32.6978 22.278 32.7248 22.1946 32.7463 22.1084L32.8728 21.6005C32.8942 21.5145 32.9095 21.4283 32.9189 21.3426C32.951 21.2623 32.978 21.1791 32.9995 21.093L33.1266 20.5854C33.1482 20.4994 33.1635 20.4134 33.173 20.3277C33.2052 20.2475 33.2323 20.1643 33.254 20.0784L33.3817 19.572C33.4034 19.4861 33.4189 19.4002 33.4285 19.3146C33.4608 19.2345 33.4881 19.1514 33.5099 19.0656L33.6387 18.5595C33.6606 18.4738 33.6763 18.388 33.6861 18.3025C33.7186 18.2227 33.7461 18.1398 33.7681 18.0542L33.898 17.5498C33.9201 17.4641 33.936 17.3784 33.9461 17.293C33.9789 17.2132 34.0066 17.1304 34.0289 17.0448L34.1605 16.5407C34.1829 16.4554 34.1992 16.3699 34.2096 16.2848C34.2425 16.2054 34.2705 16.1229 34.293 16.0376L34.4264 15.5357C34.4491 15.4505 34.4657 15.3651 34.4765 15.2799C34.5098 15.2007 34.5382 15.1183 34.5612 15.0331L34.6971 14.5317C34.7202 14.4468 34.7372 14.3618 34.7485 14.277C34.7821 14.1982 34.8108 14.1163 34.8342 14.0315C34.8803 13.8641 34.9265 13.6978 34.9726 13.5327C34.9962 13.4482 35.0137 13.3635 35.0255 13.2789C35.0596 13.2005 35.0888 13.1189 35.1127 13.0345C35.16 12.8672 35.2074 12.7013 35.2547 12.5367C35.2788 12.4525 35.297 12.368 35.3094 12.2837C35.344 12.2057 35.3738 12.1245 35.3984 12.0405C35.447 11.8741 35.4955 11.7093 35.544 11.546C35.5689 11.4624 35.5877 11.3785 35.6009 11.2947C35.6361 11.2173 35.6665 11.1368 35.6918 11.0534C35.7418 10.888 35.7919 10.7245 35.8418 10.5628C35.8675 10.4798 35.8872 10.3965 35.9012 10.3132C35.9371 10.2366 35.9684 10.1568 35.9946 10.074C36.0466 9.90935 36.0985 9.74686 36.1504 9.58661C36.1771 9.50432 36.1978 9.42157 36.213 9.33881C36.2498 9.26302 36.2821 9.18402 36.3094 9.10202C36.3636 8.93891 36.4177 8.77843 36.4718 8.62065C36.4996 8.53948 36.5216 8.45778 36.5381 8.37596C36.5759 8.30147 36.6094 8.22374 36.6379 8.14298C36.6948 7.98194 36.7516 7.82415 36.8082 7.66968C36.8374 7.59007 36.861 7.50982 36.8791 7.42935C36.9182 7.35663 36.953 7.28067 36.9831 7.20163C37.0434 7.04362 37.1034 6.88974 37.1631 6.74007C37.1939 6.66282 37.2193 6.58481 37.2396 6.50644C37.28 6.43638 37.3164 6.36307 37.3485 6.28669C37.4131 6.13293 37.4771 5.98471 37.5406 5.8421C37.5735 5.76818 37.6014 5.69333 37.6244 5.61794C37.6666 5.55173 37.7051 5.4823 37.7397 5.4098C37.7737 5.33873 37.8073 5.26951 37.8408 5.20215C37.8754 5.13227 37.9096 5.06448 37.9433 4.99873C37.9772 4.93262 38.0069 4.86551 38.0324 4.79769ZM27.4891 41.7033C27.4624 41.6122 27.4422 41.518 27.429 41.4213C27.4031 41.2311 27.3783 41.041 27.3546 40.8508C27.3425 40.7538 27.338 40.6577 27.3404 40.5629C27.3159 40.4712 27.2978 40.3765 27.2869 40.2794C27.2654 40.0887 27.2451 39.898 27.2259 39.7072C27.2246 39.6942 27.2234 39.6811 27.2224 39.6681C27.1256 39.59 27.0187 39.5043 26.9027 39.4118C26.8382 39.3605 26.7779 39.3059 26.7217 39.2486C26.6528 39.2069 26.5857 39.1606 26.5209 39.1096C26.399 39.0137 26.2704 38.9131 26.1358 38.8087C26.0705 38.758 26.0093 38.704 25.9523 38.6473C25.8827 38.6063 25.8148 38.5607 25.7492 38.5105C25.6233 38.414 25.4936 38.3153 25.3605 38.2146C25.2947 38.1649 25.233 38.112 25.1754 38.0561C25.1055 38.0163 25.0373 37.9717 24.9712 37.9225C24.843 37.8269 24.7123 37.7303 24.5796 37.6329C24.5132 37.5841 24.4508 37.532 24.3924 37.477C24.3219 37.4382 24.2531 37.3947 24.1863 37.3465C24.0564 37.2526 23.925 37.1585 23.7925 37.0645C23.7257 37.0171 23.6629 36.9663 23.604 36.9127C23.5333 36.8752 23.4642 36.8331 23.3971 36.7864C23.2654 36.6947 23.133 36.6034 23.0002 36.5128C22.9331 36.467 22.8696 36.4178 22.8101 36.3656C22.7393 36.3298 22.6698 36.2894 22.6023 36.2444C22.4691 36.1557 22.3361 36.0681 22.2034 35.982C22.1359 35.9381 22.072 35.8909 22.0118 35.8407C21.9409 35.807 21.8713 35.7688 21.8034 35.726C21.6688 35.6412 21.5352 35.5584 21.4029 35.4779C21.3354 35.4368 21.2713 35.3923 21.2106 35.3449C21.1401 35.314 21.0707 35.2788 21.0028 35.2391C20.8677 35.1602 20.7348 35.0843 20.6043 35.0117C20.5372 34.9744 20.4732 34.9339 20.4124 34.8903C20.3429 34.8634 20.2742 34.8324 20.2067 34.7971C20.1406 34.7625 20.0754 34.729 20.0112 34.6967C19.9359 34.6587 19.8596 34.6207 19.7824 34.5826C19.7038 34.5439 19.6291 34.5007 19.5582 34.4535C19.4768 34.427 19.3961 34.395 19.3168 34.3574C19.1627 34.2842 19.0058 34.211 18.8464 34.138C18.7659 34.1011 18.6892 34.0596 18.6164 34.014C18.5335 33.9895 18.4513 33.9593 18.3703 33.9234C18.2118 33.8531 18.0515 33.7832 17.8897 33.7136C17.8079 33.6784 17.7297 33.6384 17.6553 33.5941C17.5714 33.5714 17.488 33.5429 17.4057 33.5086C17.2443 33.4413 17.0819 33.3745 16.9188 33.3084C16.8359 33.2748 16.7566 33.2363 16.6811 33.1934C16.5965 33.1723 16.5123 33.1455 16.4291 33.1127C16.2653 33.0482 16.1012 32.9845 15.9372 32.9217C15.8536 32.8897 15.7735 32.8527 15.697 32.8113C15.612 32.7918 15.5273 32.7666 15.4434 32.7354C15.2776 32.6738 15.1122 32.6133 14.9476 32.5539C14.8635 32.5236 14.7827 32.4882 14.7055 32.4483C14.6201 32.4305 14.535 32.407 14.4506 32.3775C14.2834 32.3191 14.1174 32.2621 13.953 32.2066C13.8687 32.1781 13.7875 32.1446 13.7098 32.1065C13.6245 32.0906 13.5394 32.069 13.4547 32.0415C13.2859 31.9866 13.1194 31.9336 12.9557 31.8825C12.8714 31.8563 12.7902 31.825 12.7123 31.7891C12.6276 31.7754 12.5428 31.7562 12.4584 31.7311C12.2887 31.6807 12.1229 31.6329 11.9616 31.5877C11.8781 31.5643 11.7975 31.536 11.7198 31.5032C11.6364 31.4924 11.5527 31.4762 11.4692 31.4545C11.2994 31.4103 11.1368 31.3699 10.9817 31.3334C10.9011 31.3144 10.8228 31.2908 10.7471 31.2629C10.6676 31.2565 10.5876 31.2452 10.5076 31.2289C10.3417 31.1952 10.1919 31.1681 10.0586 31.1473C9.9909 31.1367 9.92455 31.1229 9.85968 31.106C9.7988 31.107 9.73733 31.1053 9.67541 31.1007C9.6181 31.0964 9.5779 31.0953 9.55285 31.0953C9.44839 31.0953 9.341 31.0935 9.23368 31.0906C9.13442 31.0879 9.03707 31.0781 8.94212 31.0617C8.84922 31.0703 8.75457 31.0726 8.65865 31.0681C8.54987 31.0631 8.43423 31.0574 8.31745 31.0517C8.2519 31.0484 8.18598 31.0452 8.12072 31.042C8.0322 31.0378 7.94533 31.0278 7.86045 31.0126C7.77527 31.02 7.68863 31.0221 7.60088 31.0184C7.4335 31.0116 7.2639 31.0054 7.09295 31.0007C7.0084 30.9983 6.92524 30.9908 6.84377 30.9784C6.76248 30.9877 6.67971 30.9921 6.59577 30.9913C6.4328 30.9899 6.27085 30.9902 6.11084 30.9928C6.03062 30.994 5.95144 30.9906 5.87358 30.9827C5.79725 30.9953 5.71935 31.0036 5.64014 31.0074C5.48458 31.0149 5.33401 31.0249 5.18917 31.0378C5.11649 31.0443 5.04437 31.0468 4.97303 31.0456C4.90558 31.0626 4.83655 31.0763 4.76611 31.0864C4.627 31.1064 4.49992 31.1293 4.38491 31.1546C4.32908 31.1669 4.27327 31.1767 4.2176 31.1842C4.1699 31.2042 4.12103 31.2226 4.07103 31.2392C4.0275 31.2537 3.98985 31.2677 3.95758 31.2808L3.9576 31.3037C3.95775 31.3838 3.95296 31.4628 3.94352 31.5404C3.95399 31.6164 3.96001 31.6938 3.96129 31.7724C3.96375 31.9224 3.96772 32.0699 3.97409 32.2171C3.97724 32.2898 3.97628 32.3617 3.97143 32.4326C3.98468 32.5017 3.99427 32.5722 3.99996 32.6439C4.0108 32.7806 4.02441 32.9189 4.04146 33.0599C4.04987 33.1295 4.05443 33.1986 4.05531 33.2672C4.07363 33.3332 4.08858 33.4009 4.09996 33.47C4.12172 33.6022 4.14695 33.7383 4.17621 33.8789C4.19068 33.9484 4.20117 34.0177 4.20785 34.0868C4.23205 34.1523 4.25292 34.2197 4.27022 34.2889C4.30338 34.4215 4.34029 34.5587 4.3814 34.7009C4.40172 34.7712 4.41784 34.8416 4.4299 34.912C4.45969 34.9775 4.4861 35.0453 4.50887 35.1153C4.55264 35.2498 4.60012 35.3886 4.65165 35.5322C4.67705 35.603 4.69802 35.6743 4.71472 35.7457C4.74926 35.8111 4.78038 35.879 4.80779 35.9495C4.86057 36.0851 4.91682 36.2247 4.97676 36.3685C5.00643 36.4397 5.03149 36.5116 5.05208 36.5839C5.09058 36.649 5.12565 36.7171 5.15694 36.7878C5.21735 36.9245 5.28094 37.0646 5.34787 37.2085C5.38093 37.2795 5.40927 37.3515 5.43301 37.4241C5.47459 37.4887 5.51274 37.5564 5.54711 37.6271C5.58094 37.6967 5.61552 37.7671 5.65085 37.8383C5.69576 37.9287 5.73962 38.0201 5.78251 38.1122C5.82552 38.2046 5.86053 38.2985 5.88785 38.3933C5.93876 38.4769 5.98389 38.5654 6.02254 38.6583C6.0958 38.8344 6.16668 39.0137 6.2355 39.1955C6.26939 39.285 6.29613 39.3753 6.31602 39.466C6.35885 39.5479 6.39626 39.6338 6.42767 39.7234C6.48781 39.8949 6.5468 40.069 6.60485 40.2453C6.63371 40.3329 6.65588 40.421 6.67168 40.5092C6.71004 40.5899 6.74321 40.6742 6.77065 40.7618C6.82347 40.9303 6.87582 41.1011 6.92788 41.2736C6.95385 41.3598 6.97347 41.4462 6.987 41.5326C7.02278 41.6123 7.05353 41.6953 7.07875 41.7813C7.1275 41.9475 7.17624 42.1156 7.22505 42.2853C7.24949 42.3703 7.26779 42.4555 7.2802 42.5406C7.31461 42.6193 7.34411 42.7013 7.36825 42.7861L7.50941 43.2834C7.53313 43.3672 7.5509 43.4511 7.56297 43.5349C7.59666 43.6126 7.62559 43.6933 7.64931 43.7768L7.78917 44.2677C7.81288 44.3506 7.83075 44.4337 7.84302 44.5167C7.87673 44.5936 7.90578 44.6735 7.92973 44.7562C7.97636 44.9173 8.02362 45.0794 8.07164 45.2426C8.09582 45.3247 8.11424 45.4072 8.12712 45.4896C8.1613 45.5657 8.19091 45.6449 8.2155 45.7269C8.2634 45.8865 8.31208 46.0471 8.36163 46.2087C8.38651 46.2898 8.40574 46.3712 8.41954 46.4526C8.45431 46.5276 8.48461 46.6057 8.51003 46.6865C8.55968 46.8444 8.61023 47.0031 8.66173 47.1625C8.68774 47.2431 8.70812 47.324 8.72311 47.4049C8.75897 47.4792 8.79044 47.5566 8.8171 47.6368C8.86923 47.7936 8.92233 47.9511 8.9765 48.1092C9.0037 48.1887 9.02539 48.2686 9.04176 48.3487C9.07866 48.4218 9.11129 48.498 9.13923 48.5771C9.19392 48.7319 9.24966 48.8872 9.30652 49.0431C9.33528 49.1219 9.35854 49.2013 9.37649 49.281C9.41488 49.3533 9.44908 49.4288 9.47867 49.5073C9.53646 49.6606 9.5954 49.8144 9.65552 49.9686C9.68581 50.0463 9.71068 50.1247 9.73032 50.2034C9.77005 50.2745 9.8057 50.3487 9.83687 50.426C9.89795 50.5775 9.96021 50.7293 10.0237 50.8815C10.0559 50.9586 10.0826 51.0365 10.1041 51.1148C10.1456 51.1849 10.1831 51.2584 10.2162 51.335C10.2807 51.4841 10.3463 51.6336 10.4133 51.7834C10.4472 51.8592 10.4758 51.936 10.4992 52.0134C10.5422 52.0822 10.5814 52.1543 10.6163 52.2297C10.6848 52.3776 10.7545 52.5257 10.8256 52.674C10.8613 52.7486 10.8918 52.8243 10.9172 52.9007C10.9619 52.968 11.0028 53.0387 11.0395 53.1128C11.1116 53.2582 11.1851 53.4037 11.2599 53.5494C11.2978 53.6232 11.3304 53.6982 11.358 53.7741C11.4047 53.8403 11.4477 53.9101 11.4866 53.9834C11.5625 54.1261 11.6397 54.269 11.7183 54.4119C11.7582 54.4844 11.7929 54.5583 11.8226 54.6332C11.871 54.6979 11.9159 54.7663 11.9568 54.8382C12.0369 54.9789 12.1184 55.1198 12.2013 55.2606C12.2432 55.3317 12.2799 55.4043 12.3117 55.478C12.3618 55.5411 12.4085 55.6079 12.4514 55.6783C12.5357 55.8168 12.6214 55.9553 12.7086 56.0937C12.7525 56.1635 12.7914 56.2349 12.8254 56.3075C12.8773 56.3691 12.926 56.4344 12.9709 56.5035C13.0154 56.5718 13.0602 56.6401 13.1054 56.7084L13.2442 56.917C13.2922 56.9888 13.3348 57.0624 13.372 57.1376C13.4282 57.2004 13.4809 57.2674 13.5297 57.3386C13.6239 57.4763 13.7198 57.6147 13.8173 57.7539C13.8669 57.8246 13.911 57.8974 13.9499 57.9719C14.0075 58.0335 14.0617 58.0994 14.112 58.1696C14.2094 58.3054 14.3082 58.4417 14.4086 58.5785C14.4595 58.6479 14.5051 58.7195 14.5455 58.7928C14.6041 58.8529 14.6596 58.9175 14.7113 58.9863C14.812 59.1204 14.9141 59.2549 15.0177 59.3897C15.07 59.4578 15.117 59.5281 15.1589 59.6003C15.2187 59.6589 15.2754 59.722 15.3285 59.7894C15.4324 59.9216 15.5377 60.0539 15.6444 60.1863C15.6981 60.253 15.7466 60.322 15.7901 60.393C15.8511 60.4502 15.909 60.5118 15.9635 60.5778C16.0706 60.7077 16.179 60.8375 16.2886 60.9673C16.3438 61.0325 16.3939 61.1003 16.4389 61.1701C16.5011 61.2257 16.5604 61.2858 16.6163 61.3504C16.7265 61.4776 16.8379 61.6047 16.9505 61.7316C17.0071 61.7954 17.0588 61.8618 17.1054 61.9304C17.1689 61.9843 17.2295 62.0429 17.2869 62.106C17.4001 62.2304 17.5145 62.3545 17.6301 62.4783C17.6882 62.5405 17.7414 62.6055 17.7897 62.6727C17.8544 62.725 17.9165 62.7819 17.9754 62.8434C18.0916 62.9647 18.209 63.0857 18.3275 63.2061C18.3871 63.2668 18.442 63.3302 18.492 63.3961C18.5579 63.4466 18.6214 63.5017 18.6818 63.5616C18.8011 63.6796 18.9214 63.797 19.0428 63.914C19.104 63.9729 19.1605 64.0347 19.2122 64.0991C19.2794 64.1477 19.3443 64.201 19.4063 64.2591C19.5285 64.3735 19.6518 64.4874 19.7762 64.6005C19.8389 64.6576 19.8971 64.7178 19.9506 64.7805C20.019 64.8271 20.0853 64.8785 20.1488 64.9347C20.2741 65.0453 20.4003 65.1553 20.5276 65.2644C20.5919 65.3196 20.6517 65.3779 20.707 65.4389C20.7767 65.4834 20.8444 65.5327 20.9095 65.5869C21.0377 65.6935 21.1669 65.7993 21.2972 65.9042C21.363 65.9573 21.4245 66.0136 21.4815 66.0729C21.5525 66.1151 21.6215 66.1622 21.6882 66.2142C21.8194 66.3166 21.9515 66.418 22.0847 66.5184C22.1521 66.5693 22.2152 66.6235 22.2741 66.6808C22.3462 66.7206 22.4166 66.7654 22.4848 66.8151C22.619 66.9129 22.7541 67.0097 22.8901 67.1054C22.959 67.1539 23.0238 67.2059 23.0845 67.261C23.1578 67.2984 23.2295 67.3407 23.2992 67.388C23.4363 67.4809 23.5742 67.5728 23.7131 67.6635C23.7836 67.7095 23.85 67.7591 23.9124 67.812C23.9869 67.8467 24.0599 67.8864 24.1311 67.9311C24.271 68.019 24.4118 68.1056 24.5535 68.191C24.6254 68.2344 24.6935 68.2815 24.7577 68.332C24.8331 68.364 24.9074 68.4009 24.9801 68.4429C25.1227 68.5254 25.2663 68.6065 25.4107 68.6864C25.484 68.727 25.5537 68.7715 25.6196 68.8194C25.6961 68.8485 25.7716 68.8825 25.8457 68.9217C25.991 68.9984 26.1371 69.0738 26.2841 69.1479C26.3589 69.1856 26.4301 69.2272 26.4978 69.2725C26.5752 69.2985 26.6519 69.3296 26.7274 69.3657C26.8751 69.4365 27.0237 69.5059 27.1732 69.5739C27.2493 69.6085 27.3221 69.6473 27.3915 69.6898C27.4698 69.7126 27.5475 69.7405 27.6243 69.7735C27.7744 69.8381 27.9253 69.9012 28.0771 69.9629C28.1543 69.9942 28.2285 70.0299 28.2994 70.0694C28.3784 70.089 28.4571 70.1135 28.535 70.1433C28.6874 70.2015 28.8406 70.2582 28.9948 70.3134C29.0731 70.3414 29.1486 70.3738 29.221 70.4102C29.3005 70.4264 29.38 70.4476 29.4589 70.4739C29.6135 70.5256 29.769 70.5757 29.9253 70.6241C30.0046 70.6488 30.0813 70.6778 30.155 70.7109C30.235 70.7237 30.3151 70.7414 30.395 70.7643C30.5517 70.8091 30.7092 70.8524 30.8676 70.8941C30.9478 70.9151 31.0254 70.9407 31.1004 70.9705C31.1807 70.9798 31.2614 70.9939 31.3419 71.0132C31.5006 71.0512 31.6601 71.0876 31.8205 71.1222C31.9013 71.1397 31.9799 71.1618 32.0559 71.1881C32.1364 71.1938 32.2174 71.2044 32.2985 71.22C32.4587 71.251 32.6198 71.2802 32.7816 71.3077C32.8631 71.3216 32.9426 71.3402 33.0198 71.3631C33.1004 71.3652 33.1817 71.3721 33.2635 71.3842C33.4246 71.4079 33.5865 71.4299 33.7493 71.4502C33.8316 71.4605 33.912 71.4755 33.9904 71.4951C34.0713 71.4936 34.1531 71.4969 34.2356 71.5053C34.3972 71.5218 34.5596 71.5366 34.7229 71.5496C34.806 71.5563 34.8874 71.5679 34.967 71.5841C35.0481 71.5789 35.1304 71.5786 35.2136 71.5834C35.3753 71.5927 35.5379 71.6003 35.7012 71.6061C35.7847 71.6091 35.8667 71.6171 35.9471 71.6299C36.028 71.6211 36.1103 71.6172 36.1938 71.6184C36.3561 71.6206 36.5192 71.6212 36.6832 71.6199C36.7665 71.6193 36.8486 71.6238 36.9293 71.633C37.0096 71.6208 37.0915 71.6134 37.1748 71.611C37.3383 71.6063 37.5026 71.5998 37.6678 71.5916C37.7507 71.5874 37.8327 71.5884 37.9135 71.5941C37.9929 71.5787 38.0742 71.5679 38.1571 71.562C38.321 71.5504 38.4857 71.537 38.6512 71.5219C38.7341 71.5143 38.8162 71.5118 38.8974 71.5142C38.9763 71.4955 39.0573 71.4814 39.14 71.4721C39.3027 71.4539 39.4661 71.4339 39.6304 71.4122C39.6752 71.4063 39.7199 71.4019 39.7644 71.399C39.7641 71.3863 39.764 71.3735 39.764 71.3608V70.8838C39.764 70.8031 39.769 70.7235 39.7787 70.6453C39.769 70.5672 39.764 70.4876 39.764 70.4069V69.9299C39.764 69.8492 39.769 69.7696 39.7787 69.6915C39.769 69.6133 39.764 69.5337 39.764 69.453V68.976C39.764 68.8953 39.769 68.8157 39.7787 68.7376C39.769 68.6594 39.764 68.5798 39.764 68.4991V68.3434L39.5702 68.2149C39.4975 68.1665 39.429 68.1143 39.365 68.0585C39.2886 68.0207 39.2139 67.9775 39.1412 67.929L38.7144 67.6433C38.6419 67.5946 38.5738 67.5421 38.5101 67.4862C38.4339 67.4481 38.3594 67.4047 38.2871 67.3559L37.8602 67.0676C37.7879 67.0186 37.7199 66.9658 37.6564 66.9096C37.5804 66.8711 37.506 66.8274 37.4338 66.7783L37.0079 66.4881C36.9357 66.4388 36.8679 66.3857 36.8045 66.3291C36.7286 66.2903 36.6543 66.2462 36.5822 66.1968L36.1569 65.9044C36.085 65.8548 36.0175 65.8015 35.9545 65.7448C35.8788 65.7057 35.8049 65.6614 35.7331 65.6117L35.3106 65.3184C35.2389 65.2685 35.1716 65.2148 35.1088 65.1578C35.0333 65.1184 34.9595 65.0737 34.8879 65.0236L34.4653 64.7274C34.3937 64.677 34.3265 64.6228 34.2638 64.5653C34.1883 64.5254 34.1145 64.4803 34.043 64.4297L33.6223 64.1316C33.551 64.0809 33.4842 64.0264 33.4219 63.9686C33.3466 63.9284 33.2732 63.8828 33.202 63.8319C33.0622 63.732 32.9222 63.6315 32.782 63.5306C32.7109 63.4795 32.6443 63.4245 32.5822 63.3662C32.507 63.3254 32.4337 63.2793 32.3627 63.2279C32.2232 63.1268 32.0836 63.0253 31.9443 62.9237C31.8734 62.8719 31.807 62.8164 31.7453 62.7576C31.6703 62.7162 31.5971 62.6695 31.5264 62.6175C31.387 62.515 31.2479 62.4123 31.1093 62.3096C31.0387 62.2572 30.9727 62.2011 30.9113 62.1418C30.8366 62.0998 30.7638 62.0525 30.6934 61.9998C30.5541 61.8957 30.4156 61.7915 30.2779 61.6875C30.2074 61.6343 30.1416 61.5774 30.0806 61.5172C30.0058 61.4742 29.9331 61.426 29.8628 61.3724C29.7238 61.2663 29.5858 61.1603 29.449 61.0547C29.379 61.0007 29.3137 60.9429 29.2532 60.8819C29.1788 60.8381 29.1065 60.7889 29.0368 60.7344C28.8983 60.6261 28.7614 60.5182 28.6261 60.4109C28.5562 60.3554 28.4911 60.2962 28.4309 60.2338C28.3564 60.1885 28.2841 60.1378 28.2145 60.0817C28.0756 59.9697 27.9388 59.8584 27.8043 59.7479C27.7347 59.6908 27.6702 59.6299 27.6107 59.566C27.5364 59.5189 27.4645 59.4664 27.3954 59.4085L27.194 59.2384L26.9895 59.0637C26.9201 59.0041 26.856 58.9408 26.7972 58.8743C26.723 58.8252 26.6512 58.7705 26.5826 58.7103C26.4488 58.5928 26.3148 58.4741 26.1809 58.3542C26.1132 58.2937 26.0508 58.2296 25.9937 58.1626C25.9209 58.1124 25.8507 58.0568 25.7837 57.9957C25.6525 57.8763 25.5214 57.756 25.3906 57.635C25.3244 57.5737 25.2634 57.509 25.2076 57.4414C25.136 57.3904 25.0671 57.334 25.0013 57.2723C24.8723 57.1512 24.7437 57.0296 24.6155 56.9077C24.5504 56.8457 24.4905 56.7805 24.4359 56.7124C24.3653 56.6606 24.2974 56.6036 24.2327 56.5413C24.1054 56.4187 23.9787 56.2958 23.8527 56.173C23.7885 56.1105 23.7296 56.0447 23.676 55.9762C23.6061 55.9237 23.539 55.866 23.4753 55.8031C23.3494 55.6791 23.2244 55.5552 23.1003 55.4316C23.0369 55.3686 22.9789 55.3023 22.9261 55.2334C22.8569 55.1803 22.7906 55.1221 22.7276 55.0587C22.603 54.9334 22.4794 54.8085 22.3571 54.6844C22.2945 54.6208 22.2372 54.5542 22.1852 54.4849C22.1167 54.4313 22.0511 54.3726 21.9888 54.3088C21.8651 54.1821 21.7429 54.0564 21.6223 53.9318C21.5603 53.8678 21.5037 53.8007 21.4523 53.7311C21.3844 53.677 21.3193 53.6178 21.2577 53.5535C21.1347 53.4254 21.0136 53.2988 20.8947 53.174C20.8333 53.1095 20.7773 53.042 20.7265 52.9721C20.6591 52.9174 20.5945 52.8578 20.5334 52.7931C20.4108 52.6633 20.2908 52.5358 20.1736 52.4109C20.1128 52.346 20.0573 52.2781 20.0071 52.2078C19.9401 52.1527 19.876 52.0926 19.8155 52.0275C19.6929 51.8958 19.574 51.7676 19.4593 51.6434C19.3992 51.5783 19.3444 51.5104 19.295 51.4401C19.2287 51.3847 19.1654 51.3243 19.1056 51.2591C18.9807 51.1229 18.8619 50.9928 18.7497 50.8695C18.6902 50.8041 18.6361 50.7359 18.5872 50.6653C18.5215 50.6095 18.4588 50.5488 18.3996 50.4831C18.269 50.3384 18.1511 50.2071 18.0473 50.091C17.9873 50.024 17.9329 49.9541 17.884 49.8818C17.8174 49.8243 17.754 49.7618 17.6943 49.6943L17.5652 49.5478L17.5312 49.5091L17.5196 49.4958L17.6446 49.3882C17.4188 48.6773 17.6214 47.8708 18.2275 47.3476C18.8464 46.8133 19.7092 46.7268 20.4056 47.0622L20.5226 46.9636L20.5314 46.9737L20.5614 47.0078L20.6819 47.1445C20.7389 47.209 20.7908 47.2762 20.8377 47.3455C20.9015 47.4005 20.9625 47.4603 21.02 47.5246C21.1201 47.6366 21.2341 47.7635 21.3607 47.9037C21.4181 47.9673 21.4705 48.0336 21.5179 48.1021C21.5816 48.1562 21.6426 48.215 21.7003 48.2784C21.8092 48.3982 21.9246 48.5246 22.0459 48.6569C22.1041 48.7203 22.1572 48.7864 22.2053 48.8548C22.2697 48.9087 22.3313 48.9672 22.3897 49.0304C22.4412 49.0861 22.4934 49.1426 22.5465 49.1998C22.6086 49.2668 22.6718 49.3349 22.736 49.4039C22.7949 49.4671 22.8487 49.5332 22.8975 49.6015C22.9626 49.6551 23.025 49.7135 23.0841 49.7765C23.198 49.8979 23.3146 50.0218 23.4337 50.1478C23.493 50.2106 23.5473 50.2762 23.5966 50.3442C23.6621 50.3973 23.7249 50.4551 23.7845 50.5177C23.8999 50.6389 24.0174 50.7617 24.1366 50.8859C24.1964 50.9482 24.2512 51.0133 24.3009 51.0808C24.3668 51.1333 24.43 51.1905 24.49 51.2525C24.6068 51.3732 24.7251 51.4949 24.8447 51.6174C24.905 51.6791 24.9602 51.7436 25.0105 51.8106C25.0768 51.8625 25.1404 51.9191 25.2009 51.9805C25.319 52.1004 25.4382 52.2209 25.5584 52.3418C25.6191 52.4028 25.6749 52.4668 25.7257 52.5332C25.7924 52.5844 25.8564 52.6403 25.9174 52.701C26.0368 52.82 26.157 52.9391 26.2779 53.0582C26.3391 53.1185 26.3954 53.1817 26.4468 53.2475C26.5139 53.2978 26.5784 53.353 26.6399 53.4129C26.7606 53.5306 26.8818 53.648 27.0033 53.7651C27.065 53.8245 27.1219 53.8869 27.174 53.9519C27.2413 54.0013 27.3063 54.0555 27.3683 54.1145C27.4903 54.2306 27.6126 54.3461 27.7349 54.4609C27.7971 54.5193 27.8547 54.5808 27.9074 54.6448C27.9752 54.6932 28.0407 54.7463 28.1033 54.8042C28.2268 54.9184 28.3503 55.0317 28.4735 55.1439C28.5363 55.2011 28.5945 55.2613 28.648 55.3242C28.7162 55.3713 28.7822 55.4231 28.8455 55.4797C28.9705 55.5915 29.0951 55.702 29.2192 55.8109C29.2826 55.8666 29.3415 55.9253 29.3959 55.9867C29.4645 56.0321 29.5309 56.0823 29.5948 56.1372L29.7823 56.2974L29.966 56.4524C30.0295 56.5057 30.0887 56.5621 30.1435 56.6211C30.2121 56.6645 30.2787 56.7126 30.3429 56.7653C30.4676 56.8678 30.5952 56.9716 30.7254 57.0765C30.7907 57.1292 30.8517 57.1852 30.9084 57.2439C30.9785 57.2866 31.0468 57.334 31.1126 57.3862C31.2404 57.4876 31.3701 57.5898 31.5017 57.6927C31.5681 57.7446 31.6301 57.7998 31.6878 57.858C31.7588 57.8998 31.8279 57.9465 31.8946 57.998C32.0253 58.0989 32.1574 58.2004 32.2909 58.3023C32.3583 58.3537 32.4215 58.4087 32.4802 58.4666C32.5521 58.5079 32.6222 58.5541 32.69 58.6052C32.8226 58.7054 32.9563 58.8059 33.0908 58.9065C33.1589 58.9575 33.2226 59.0118 33.282 59.0693C33.3544 59.11 33.4249 59.1556 33.4932 59.2062C33.6275 59.3058 33.7624 59.4054 33.8978 59.505C33.9666 59.5555 34.031 59.6096 34.091 59.6667C34.164 59.707 34.2352 59.7522 34.3041 59.8025C34.4397 59.9015 34.5756 60.0003 34.7116 60.0988C34.7808 60.149 34.8457 60.2027 34.9063 60.2596C34.9796 60.2994 35.0512 60.3442 35.1206 60.3942L35.5309 60.6885C35.6005 60.7383 35.6658 60.7916 35.7268 60.8482C35.8004 60.8876 35.8723 60.9321 35.942 60.9816L36.354 61.2736C36.4241 61.3231 36.4899 61.3763 36.5513 61.4327C36.6254 61.4718 36.6978 61.516 36.768 61.5654L37.1826 61.856C37.2529 61.9052 37.3189 61.958 37.3805 62.014C37.4547 62.0527 37.5273 62.0965 37.5976 62.1455L38.0128 62.4336C38.0834 62.4825 38.1496 62.535 38.2116 62.5908C38.286 62.6292 38.3588 62.6727 38.4294 62.7214L38.8478 63.009C38.9187 63.0576 38.9854 63.11 39.0477 63.1657C39.1225 63.2038 39.1956 63.2471 39.2666 63.2956L39.6858 63.5813C39.7179 63.6031 39.7491 63.6257 39.7795 63.649C39.7693 63.5689 39.764 63.4873 39.764 63.4045V62.8842C39.764 62.796 39.77 62.7091 39.7816 62.624C39.77 62.5389 39.764 62.4521 39.764 62.3639V61.8436C39.764 61.7554 39.77 61.6685 39.7816 61.5834C39.77 61.4983 39.764 61.4115 39.764 61.3233V60.803C39.764 60.7147 39.77 60.6279 39.7816 60.5428C39.77 60.4577 39.764 60.3709 39.764 60.2827V59.7624C39.764 59.6741 39.77 59.5873 39.7816 59.5022C39.77 59.4171 39.764 59.3303 39.764 59.2421V58.7218C39.764 58.6335 39.77 58.5467 39.7816 58.4616C39.77 58.3765 39.764 58.2897 39.764 58.2015V57.6811C39.764 57.5929 39.77 57.5061 39.7816 57.421C39.7775 57.3916 39.7742 57.362 39.7716 57.3322C39.6947 57.3121 39.6201 57.2879 39.5479 57.2597C39.4522 57.2487 39.3562 57.2307 39.2603 57.2054C39.0742 57.1561 38.8866 57.1034 38.698 57.0471C38.6029 57.0187 38.5116 56.9839 38.4244 56.9433C38.3294 56.9263 38.2345 56.9022 38.1403 56.8707C37.9569 56.8095 37.7726 56.7446 37.5878 56.6761C37.4944 56.6415 37.4053 56.6007 37.3207 56.5543C37.2266 56.531 37.1331 56.5006 37.0409 56.4629C36.8608 56.3892 36.6805 56.3118 36.5002 56.2306C36.4089 56.1895 36.3223 56.1425 36.2407 56.0901C36.148 56.0603 36.0563 56.0233 35.9665 55.979C35.7908 55.8923 35.6154 55.8018 35.4406 55.7075C35.3519 55.6596 35.2685 55.6061 35.1904 55.5476C35.0995 55.5108 35.0103 55.467 34.9234 55.4158C34.7535 55.3157 34.5843 55.2117 34.4163 55.1037C34.331 55.0489 34.2514 54.9887 34.1777 54.9239C34.0894 54.88 34.0033 54.829 33.9202 54.7708C33.7576 54.6569 33.5963 54.5391 33.4366 54.4171C33.3555 54.3552 33.2807 54.2884 33.2122 54.2173C33.1273 54.1661 33.0452 54.1078 32.9668 54.0426C32.8135 53.9149 32.6619 53.7832 32.5123 53.6474C32.4365 53.5785 32.3673 53.5052 32.305 53.4281C32.2243 53.3695 32.1473 53.3041 32.0745 53.2319C31.9323 53.0909 31.7924 52.9459 31.6549 52.7967C31.5854 52.7213 31.523 52.642 31.4677 52.5596C31.3926 52.494 31.3217 52.422 31.2557 52.3436C31.1269 52.1905 31.0007 52.0336 30.8773 51.8726C30.8149 51.7912 30.76 51.7065 30.7125 51.6194C30.6437 51.5473 30.5796 51.4691 30.521 51.385C30.4068 51.2211 30.2956 51.0534 30.1875 50.8819C30.1329 50.7952 30.086 50.706 30.0467 50.6149C29.9848 50.537 29.9281 50.4535 29.8775 50.3645C29.7792 50.1916 29.684 50.0152 29.5921 49.8353C29.5459 49.7449 29.5076 49.6526 29.4769 49.5593C29.4227 49.477 29.3742 49.3896 29.3321 49.2974C29.2503 49.1181 29.1716 48.9356 29.0964 48.7499C29.0584 48.6562 29.0284 48.5613 29.0059 48.466C28.9592 48.3797 28.9185 48.2889 28.8846 48.1939C28.8187 48.0094 28.7561 47.822 28.6967 47.6316C28.6671 47.5365 28.6453 47.4409 28.6309 47.3454C28.592 47.257 28.5593 47.1645 28.5335 47.0685C28.5079 46.9736 28.4832 46.8779 28.4593 46.7816L28.3909 46.5026C28.3679 46.4078 28.3524 46.313 28.3441 46.2187C28.3093 46.1305 28.2806 46.0386 28.2587 45.9436C28.2156 45.7567 28.1736 45.5699 28.1327 45.383C28.1118 45.2877 28.0984 45.1924 28.0922 45.098C28.0593 45.009 28.0327 44.9165 28.0129 44.8209C27.974 44.6331 27.9362 44.4453 27.8995 44.2574C27.8807 44.1616 27.8695 44.0661 27.8654 43.9715C27.8346 43.8817 27.81 43.7886 27.7924 43.6926C27.7577 43.5039 27.7242 43.3152 27.6918 43.1265C27.6752 43.0303 27.6662 42.9345 27.6642 42.8397C27.6354 42.7493 27.613 42.6556 27.5976 42.5592C27.5673 42.3697 27.5381 42.1803 27.51 41.9907C27.4957 41.8941 27.4889 41.7981 27.4891 41.7033Z" fill="black" fill-opacity="0.1"/>
</svg>
